<svg xmlns="http://www.w3.org/2000/svg" viewBox="0 0 3818.71 940.94"><defs><style>.cls-1{fill:none;}.cls-2{fill:#4e96b3;}.cls-3{fill:#4498b6;}</style></defs><title>Asset 16</title><g id="Layer_2" data-name="Layer 2"><g id="Layer_1-2" data-name="Layer 1"><path class="cls-1" d="M465.85,789.86c-8.2-28.45-33-39.08-55.81-51.47C374,718.82,373.83,719.07,349.5,752c-.93,1.27-2.23,2.31-3,3.65-7.62,12.76-1.47,47.37,9.64,49.6,28.65,5.74,56.47,15.82,79.12,16.88C466.19,822.83,472.74,813.81,465.85,789.86Z"/><path class="cls-1" d="M765.06,386.11c9-12.11,6.55-21.3-8.37-24.15-13.86-2.64-28.18-2.94-42.3-4.27-43.39-.4-43.38-.4-36.42,42.15.64,3.89,1.07,7.82,1.62,11.73.57,4.09,2.35,9.27,6.72,7.66C713,409.37,745.39,412.62,765.06,386.11Z"/><path class="cls-1" d="M523.91,807.48c-7.14-1.92-7.7,3.85-7.5,8.43.3,6.71-.41,15.53,9,16.09,5.71.34,9-5.46,10.39-12.6C534.6,813.67,530.36,809.22,523.91,807.48Z"/><path class="cls-1" d="M525.81,664.86c-5-.56-12.16-3.52-13.19,4.86-3.78,30.65-10.75,61.48,2.56,96.07a262.5,262.5,0,0,0,22.54-87C538.52,669.6,533.89,665.77,525.81,664.86Z"/><path class="cls-1" d="M608.39,337.45c11.36,2,15.88-1.13,9.4-13.67-15.2-29.43-30.26-58.94-44.67-88.76-4.94-10.23-11.36-12.85-20.44-7-8.9,5.7-25.79-.15-26.19,18C525.54,289.58,564.57,333.64,608.39,337.45Z"/><path class="cls-1" d="M534.09,173.37c-3.52,15-6.79,29-10.7,45.66C562.65,208.89,563.5,204.42,534.09,173.37Z"/><path class="cls-1" d="M542,642.56c2.52-14.81,4.87-29.65-2.3-43.94-4.88-9.74-13.28-13.3-23.55-11.86-12.8,1.79-5.9,12.16-7.66,18.31,1.16,11.47,2.47,22.41,3.31,33.38.78,10.13,8.27,10.17,15.35,10.59C533,649.39,540.35,652.14,542,642.56Z"/><path class="cls-1" d="M385.16,859.27H335.3C351.8,861.19,367.68,875.24,385.16,859.27Z"/><path class="cls-1" d="M373.56,693.77c6.52-11,6.87-23-.48-33.44s-13.77.47-19.89,3c-9.16,3.83-19.2,6.94-26.41,17.09,8.71,4.31,16.63,9,25.11,12.15C358.73,695.17,366.14,706.28,373.56,693.77Z"/><path class="cls-1" d="M306,793.7c23.83,7.18,23.83,7.18,19.31-16C317.41,783.41,309.53,785.84,306,793.7Z"/><path class="cls-1" d="M330.69,701.45c2.23,14.83,4,26.69,10.35,38.12C365.86,713.56,365.53,712.16,330.69,701.45Z"/><path class="cls-1" d="M355,815c-12.5-3.24-13.82,5-13.21,13s-14.27,20.47,1.79,23.32c31.24,5.53,62.68,3.94,94.82-13.64C409.1,824.73,381.48,821.88,355,815Z"/><path class="cls-1" d="M618,657.08c-1.83,7.58,4.58,9,9.9,9.79,8.33,1.22,16.77,1.65,28.66,2.73-7.68-12.49-14.57-18.31-24-20.48C625.65,647.53,619.74,649.87,618,657.08Z"/><path class="cls-1" d="M354.18,644.74c-13.83-8.26-28.07-4.64-44.27-5.84C316.29,671.71,317,671.79,354.18,644.74Z"/><path class="cls-1" d="M686.66,445.92c10.71,1.92,15.48-7.16,21.92-13.34-7.89,3.34-19.55-2.3-23.53,9.41C684.69,443.05,685.87,445.77,686.66,445.92Z"/><path class="cls-1" d="M713,677.6c10.36-2.63,3.67-12,6-20-2.59-13.1-5-27.94-8.53-42.53-3.73-15.59-9.81-30.27-22.7-40.79-16.15-13.18-29.35-4.12-42.46,6-14.84,11.45-1.5,19.26,3.81,27.4,13.42,20.56,27.83,40.47,41.33,61C696.15,677.34,704.16,679.84,713,677.6Z"/><path class="cls-1" d="M570.77,689.46c4.37-7.85.82-10.65-6.53-13.25-8.6-3-9.17,2.4-10.18,7.84-2.65,14.19-5.13,28.4-7.68,42.61l3.39,1.3C556.76,715.12,563.65,702.23,570.77,689.46Z"/><path class="cls-1" d="M774.93,528.57C768.5,493,762,457.52,755.06,419.49c-19.47,14.57-37,27.74-54.64,40.84-4,3-6.41,6.09-6.1,11.75,1.52,27.46,38.43,66.21,66.57,70.5C773.33,544.48,777,539.88,774.93,528.57Z"/><path class="cls-1" d="M591.76,498.6c10,8.55,18.66-1.06,33.64-6-14.67-6.86-23.6-15.4-34.4-11.17C586.57,483.22,587.3,494.77,591.76,498.6Z"/><path class="cls-1" d="M661.81,488.77c-.7,16.67,14.09,21.35,26.08,28.68-4.83-12.72,1.32-29.12-13.52-37.33C672.22,478.93,662,485.51,661.81,488.77Z"/><path class="cls-1" d="M669.51,531c-4.49-5.27-10-9.67-17.2-16.45-3,12.18-1.43,19.74,3.39,26.52,5.2,7.33,12.53,11.81,19.89,4.64S673,535.14,669.51,531Z"/><path class="cls-1" d="M569.67,474.21c-2.81-1.62-7.11-1-7.51,2.18-.91,7.31,2.76,12.94,11.22,17.81C574.94,485.7,577.47,478.72,569.67,474.21Z"/><path class="cls-1" d="M642.38,413.63c-1.6-11.45-1.79-17.08-3.24-22.37-3.41-12.44.34-30.75-13.6-35.4-18.54-6.2-37.56.06-52.89,13.57a58.46,58.46,0,0,0-8,8.68c-13.79,18.37-11.81,26.69,8.76,35.9a153.1,153.1,0,0,0,48.06,12.27C636,427.71,645.52,425.54,642.38,413.63Z"/><path class="cls-1" d="M627.46,203.75c-10.7,2.92-21,7.43-31.8,9.85-11.15,2.5-11.87,7.19-7,16.5,15.13,28.81,29.4,58.06,44.54,86.86,3.16,6,6.93,14.17,15.34,13.11,10.1-1.28,10.54-11.18,11.24-18.6,2.46-26.07,4-52.22,5.54-73.89C665.63,191.84,675.5,190.62,627.46,203.75Z"/><path class="cls-1" d="M725.37,797.59c-4,6.85-9.51,12.23-5.34,20.63C733.36,813.78,735.11,807.55,725.37,797.59Z"/><path class="cls-1" d="M338,280.66c-15.05-12.9-32.93-19.87-51.71-25.39C301,269.06,318,278.2,338,280.66Z"/><path class="cls-1" d="M351.1,347.49c-17.11-3.37-34.43-8.41-54.77,7.2Z"/><path class="cls-1" d="M430.39,336.43c-15.11-12.08-28.91-22-45.8-29.21C386.91,338.58,394.45,343.55,430.39,336.43Z"/><path class="cls-1" d="M200.1,426c-5.67,5-3.38,9.29-.21,14.37,18.44,29.61,36.58,59.41,55.08,89,4.29,6.85,9.9,13.93,19.25,9.26,44.13-22.08,95-28.85,136.8-54.14,50.15-30.3,54.35-40.34,18-87.93-9-11.82-21.44-21.07-32.23-31.55-4.22-4.1-8.92-6.55-15-5.66-33.57,5.84-66.94,14.1-100.76,16.87C244.33,379.17,224.2,404.84,200.1,426Z"/><path class="cls-1" d="M401.36,295.19c7,8.17,16.41,11.07,26.52,13.5C414.69,295.27,414.69,295.27,401.36,295.19Z"/><path class="cls-1" d="M576.31,852.07c-9.34-8.7-19.51-9.39-30.07-5.07C556.36,848.82,565.1,856.62,576.31,852.07Z"/><path class="cls-1" d="M466.56,865.06c31,11.3,55.61,9.26,80.35-2.76C521.86,853.38,496.66,848.47,466.56,865.06Z"/><path class="cls-1" d="M114.65,226c-10.83-3.14-15.63,8.44-19.93,16.45-5.65,10.51-8.77,22.11-5.27,34,2.41,8.16,5.22,18.8,14.75,19.34,11.42.64,10.94-11.19,12.76-19.09,2.11-9.13,3.16-18.5,4.51-26.74C120.69,240.6,124.42,228.8,114.65,226Z"/><path class="cls-1" d="M882.86,483.68c-3.65,9.68,1.7,17.28,7.58,26.72.16-13.55,17.08-11.21,17.42-17.24C909.27,468,890.62,489.09,882.86,483.68Z"/><path class="cls-1" d="M848.43,386.38c4.34,24.69,14.77,48.39,23.46,72.2,2.84,7.76,11,9,18.29,7.51,8.19-1.67,8.44-8.23,7.41-12.55-2.93-26.92-5.23-51.36-8.44-75.68-1.13-8.54-1-24.62-13-19.44C865.1,363.17,845.77,371.25,848.43,386.38Z"/><path class="cls-1" d="M180.36,620.38c-2.79,2.58-7.12,5.2-5.36,9.52,2.75,6.75,9.67,5.19,14.49,4.14,28.46-6.2,57.29-9.11,90.6-9.82C249.49,595.1,207.92,594.88,180.36,620.38Z"/><path class="cls-1" d="M458.2,304.27c-.85,4.57-4.1,10.39.86,12.76,3.24,1.55,9.75-.36,13.07-2.93,20.44-15.87,24-38.65,26.09-65.27C473.74,262,462.61,280.62,458.2,304.27Z"/><path class="cls-1" d="M326.91,624.88c7.62,1.54,15.87,1.16,23.69.3,32.6-3.59,58-17.58,72.59-52.07-23.63-1.14-44.51.6-65.48,3.31-13.37,1.74-26.9,2.23-39.11,8.68-12.82,6.78-18.16,18.21-15.52,31.79C305.88,631.21,318.72,623.21,326.91,624.88Z"/><path class="cls-1" d="M460.78,554.1c22,2.27,26.24-1.76,22.47-24.11-1-5.91-2.92-11.65-4.89-19.34-12.82,8.83-18.34,20.86-24.73,32.17C449,551,452.31,553.22,460.78,554.1Z"/><path class="cls-1" d="M229.32,644.47l73.07,25.91C289.5,635.64,271.05,629.92,229.32,644.47Z"/><path class="cls-1" d="M322.66,562.89q43.93-2.73,87.75-7c7-.69,17.48,3.09,20-7.87s-1.9-20.59-10.28-27.64c-9.82-8.26-21.06-9.26-33.56-5.72a863.16,863.16,0,0,0-103,36.73C297.52,560.79,309.86,563.69,322.66,562.89Z"/><path class="cls-1" d="M457.54,590.68c9.51-5.35,18.48-11.64,33.78-21.47H453.5c-8.84,0-12.65,5-13.56,13.24-.5,4.57-4.2,10.18.54,13.24C447,599.92,452.36,593.6,457.54,590.68Z"/><path class="cls-1" d="M505,552.15c25.45-10.5,22.39-23.31-6.43-46.55C497.73,522,501.46,536.87,505,552.15Z"/><path class="cls-1" d="M537.19,441c-.22-26.49-10.41-40.21-29.59-39.22-7,.36-14.88,1.13-16.35,10.08-1.16,7,28.86,46.12,35,45.91C537.28,457.36,538.26,449.66,537.19,441Z"/><path class="cls-1" d="M537.46,515.49c-1.27-21.95-10.11-30.18-29.46-33.18C516,496,523,505.79,537.46,515.49Z"/><path class="cls-1" d="M484.84,595.41c-7.43-1.71-40,19.64-38,23.74,7.77,15.82,23.1,22.53,38.79,23.18,16.68.7,3.86-14.67,9.25-21.36C489.69,612.65,500.16,598.94,484.84,595.41Z"/><path class="cls-1" d="M482.44,658.37c-32.35-3.82-61.13,2.67-84.15,27.57-12.23,13.23-20.38,24.27,4.75,32.82,14,4.78,26.46,14,40.16,20,26.94,11.73,44.31,2.2,49.41-26.71,1.36-7.71,1-15.72,1.65-26.51C486.93,679.62,505.66,661.11,482.44,658.37Z"/><path class="cls-1" d="M589.18,640.27c-.79-17-9.36-31.14-21.29-48-5.35,18.14-6.9,32.91-8.38,47.82-1.32,13.3,6.32,16.74,16.49,17.74C589.11,659.06,589.57,648.68,589.18,640.27Z"/><path class="cls-1" d="M531.53,778.41c-1,1.22-2.65,2.87-2.41,4,4,18.49,20.58,21.35,34.36,22.47,13.14,1.07,35.75,13.57,38.58-10.31,4.24-35.83.93-72.29-8.85-109.16C573.29,717.29,555.05,749.59,531.53,778.41Z"/><path class="cls-1" d="M566.78,875.51c-11.84.94-23.69,1.64-35.52,2.66-44.94,3.86-89.27,11-138.19,24.94,45.25,16,85.14,31.25,129.28,26.88,24.54-2.44,47.08-7.76,59.67-31.88,3.55-6.79,10.74-14.51,5.17-21.59C582.82,871,573.78,875,566.78,875.51Z"/><path class="cls-1" d="M593.48,541.37c14.2-8,21.59-13.82,27.88-26.94C608.35,520.76,602.05,527.65,593.48,541.37Z"/><path class="cls-1" d="M694.35,787.58a174.13,174.13,0,0,0-72.19,34.53c-4,3.21-6.31,8.42-2.11,12.29,3.14,2.89,8.4,4.2,12.88,4.72,5.06.59,6.42-2.79,5.16-7.64C636.93,827,635.32,821,640.73,819c6.16-2.27,11.09,3.25,13.26,7.78,7.86,16.43,19.11,11.39,31.76,7.33,17.8-5.7,19.18-21.16,24-35.18C713.52,787.76,707.42,786.84,694.35,787.58Z"/><path class="cls-1" d="M619.32,747.54c0,14.23,0,28.46,0,42.69,0,5.61-.54,11,8.37,10.61,22.54-1,65.64-36.34,70.51-58.5,5.48-25-6.77-44.9-30-44.54-17,.26-38.5-15.48-48.69-1.22-8.22,11.51-1.66,33.58-1.66,51Z"/><path class="cls-1" d="M347.55,884.66c16.16,8.26,31.58,16,50,.24C378.31,874.48,365.63,874.47,347.55,884.66Z"/><path class="cls-1" d="M321.27,729.89c-1.76-7.68-4.93-15.06-6.38-22.77-3-16.2-8.55-20.57-24.88-11.07-37.88,22.05-77,42-115.6,62.75,3.29,3.27,6.3,6.89,9.93,9.71,24.78,19.24,54.95,15.74,83.39,19.32C307,792.77,330,767.74,321.27,729.89Z"/><path class="cls-1" d="M174.21,758.83l-.25.22h0l.46-.25-.08-.08Z"/><path class="cls-1" d="M310.22,883.71c11.9,21.81,27.09,18.27,49.61,14.37C340.9,889.79,329.16,881.77,310.22,883.71Z"/><path class="cls-1" d="M326.29,819.65c1.91-22.66-20.66-9.79-27.82-17.58-14.93-.26-38.65,15.95-35.91,24.37,6.88,21,27.23,20,43.63,21.76C326,850.3,325.29,831.43,326.29,819.65Z"/><path class="cls-1" d="M698.83,854.81l33.4-27.3C714.09,826.6,704.51,835.41,698.83,854.81Z"/><path class="cls-1" d="M209.42,821.61c13,12.1,27.33,14.48,47.52,17.49C241,824.07,227.71,818.63,209.42,821.61Z"/><path class="cls-1" d="M903.52,584.34c5.16-12.5,12.46-24.72,6.47-41.53C895.71,557.33,898.32,570.76,903.52,584.34Z"/><path class="cls-1" d="M886.86,617.1c11.14-14.47,7.86-24.81,5.46-39.36C884.21,591,883.88,601,886.86,617.1Z"/><path class="cls-1" d="M865.77,663.22c13.06-6.82,22-16,19.79-31.42Z"/><path class="cls-1" d="M744.72,682c13.42.54,24.74-4,33.85-13.79,6.55-7,2.11-13.25-2.37-18.82-12.76-15.91-25.82-31.58-43-52.51-4.14,27.89-1,48.77,1.09,69.54C734.92,672.62,734.08,681.52,744.72,682Z"/><path class="cls-1" d="M784.45,635.4l4.89-1c-2.29-20.08-4.18-40.21-7.12-60.19-.78-5.29.38-14.46-9-13.75-10.46.79-19.35,5.94-26.38,14-5,5.76-1.23,9.89,2.16,14.31Q766.77,612.06,784.45,635.4Z"/><path class="cls-1" d="M838.29,715.78c11.27-6.17,18.72-15.4,26.4-28.8C844.88,690.68,841.76,703.37,838.29,715.78Z"/><path class="cls-1" d="M783.8,703.18c-19.71-1.67-33.31-11.73-46-.27-3.52,3.18,3.27,7.55,6.77,10.57C759,725.89,768.26,715.48,783.8,703.18Z"/><path class="cls-1" d="M776,753.3c-8.28-3.32-15.43-8.27-21.41,3.42-6.89,13.48-11.88,26.91-6.54,43.42,16.43-4.67,24.11-17.17,31.29-30.19C782.93,763.52,786.62,757.55,776,753.3Z"/><path class="cls-1" d="M787.31,718.08c-5.22-.32-9.75,5.07-11.06,10.28-1.87,7.46,5.71,7.53,9.66,10.13,7.15.53,7.37-4.42,7.33-9.1S791.61,718.34,787.31,718.08Z"/><path class="cls-1" d="M811.79,714.4c-6.7-3.29-7.71,2.12-8,6.78-.26,4.31-1.77,10.07,3.9,11.71,5.41,1.55,7.8-3.44,10.21-7.54C819.23,719.91,815.86,716.4,811.79,714.4Z"/><path class="cls-1" d="M886.37,545.19c-1.92-8.92-4.6-12-14.28-7.59-20.32,9.2-42.08,14-64.17,17-10.38,1.4-16.32,5.77-13.89,17.36,6.62,24.3,2.32,50.91,15.08,74,7.24,13.12,14.32,20.94,26.89,3.44,15.27-21.28,31.75-41.71,43.34-65.34C885.27,572,889.4,559.27,886.37,545.19Z"/><path class="cls-1" d="M674.79,307.8c-3.11,26,4.67,35.9,30.83,33.79,13.26-1.07,26.82,1.69,40.25,2.72l0-1.25c11.9,0,23.86.85,35.67-.17,26.64-2.31,45.84-15.69,57.24-40.27,3.32-7.16,4.35-13.09-1.15-19.63-25-29.69-49.17-60.28-81.23-83.06-16.88-12-35.88-15.46-56.42-14.36-13.81.74-19.37,6-19.74,20.2C679.39,239.82,678.84,274,674.79,307.8Z"/><path class="cls-1" d="M723.94,146.55c-5.54-10.92-13.35-18.25-29.81-20.85C703.32,138.88,713.68,142.62,723.94,146.55Z"/><path class="cls-1" d="M685.38,135.15v38.12C705.27,159.94,701.45,149.38,685.38,135.15Z"/><path class="cls-1" d="M679.31,79.38c2.78-.31,6.27-3.68,3.79-7.06-7.74-10.54-19.68-12.1-31.54-13.24-1.2-.12-2.56,1.38-6.06,3.42C654.62,73.65,664.59,81,679.31,79.38Z"/><path class="cls-1" d="M588.15,52.12c26,15.76,49.82,34.77,76,50.41C650.24,68.25,620.54,58.13,588.15,52.12Z"/><path class="cls-1" d="M846.81,337.17c5.84,6.3,17.12,5.63,21.1-1.14,8.89-15.11-6-21.32-15.64-32.58C848.4,316.22,835.56,325,846.81,337.17Z"/><path class="cls-1" d="M797.58,539.78c4.51-.53,6.92-.57,9.21-1.12,16.1-3.89,32.33-7.34,48.22-12,25.55-7.43,29-17.61,15.73-40.26-5-8.58-16.13-7-20.91-14.41-8.55-13.3,16.42-5.18,11.23-16.92-.94-2.13-.95-4.65-1.7-6.88-5.53-16.46-11.68-32.72-16.53-49.37-3.47-11.94-9.14-12-19.07-7.31a493.57,493.57,0,0,1-46,18.68c-8.73,3.08-13.89,6.72-11,16.94C776,459.89,781,493.46,786.4,527,787.57,534.12,789.56,541.4,797.58,539.78Z"/><path class="cls-1" d="M830.51,367.59c-13.27,1.43-23.81,7-31.94,16.47C810.94,381.41,822.52,377.54,830.51,367.59Z"/><path class="cls-1" d="M777.94,184.11c21.39,25.21,43.19,50.09,67.86,78.57-8.58-38.28-30.86-64.58-47.95-93.48-6-10.08-15.33-6.28-22.88-1.5C763.79,174.78,774.17,179.66,777.94,184.11Z"/><path class="cls-1" d="M540.63,37.31c-13.71-9.91-26.54-15-43.36-21C513.48,39.14,513.48,39.14,540.63,37.31Z"/><path class="cls-1" d="M801.13,222c-5.93-9.6-16.6-19.43-29.8-27.13Z"/><path class="cls-1" d="M96.65,611c0,9.44-3.12,22.92,12.51,23.19,12.29.2,21.11-4.41,24.33-19.68,6.7-31.82-.33-62.51-4.82-93.78C111.48,548.93,96.78,577.56,96.65,611Z"/><path class="cls-1" d="M156.91,454c18.94-23.61,18.05-32.75-4-54.4-10.55-10.37-15.62-8-18.14,5.8-4.18,22.82,3,45,1.67,74.32C146.21,467.42,151.53,460.68,156.91,454Z"/><path class="cls-1" d="M180.85,594.42a314.24,314.24,0,0,1,47.31-31.62c13.77-7.45,15.85-16.52,9.57-29-15.62-31.09-34.76-60-54.6-88.82-43.76,41.78-54.3,88.07-32.65,140.44C156.63,600.29,164.88,607.3,180.85,594.42Z"/><path class="cls-1" d="M526.94,124.87c6.81-8.94,6.8-19.3,23.16-25.36C535.27,135.86,547,163.38,566,190c6.65,9.31,11.88,13,23,9.43,18.87-6,38.18-10.62,57.16-16.27,9-2.68,24.27.73,22.89-14.53-1.65-18.23,13.24-38.84-8.62-54.72-30.82-22.4-61.8-44.44-94.51-64-10.15-6.08-20.26-6.56-30.74-4.26-2.7,7.88,9.51,8.39,6.39,16.18a24.68,24.68,0,0,1-17.83-5.84c-8.41-6.95-16.39-9.37-24.89-.41-8.35,8.8-5.07,17.38.36,25.91C508,95.25,516.8,109,526.94,124.87Z"/><path class="cls-1" d="M174.33,758.72h-.05L174,759l.25-.21Z"/><path class="cls-1" d="M288.78,681.84a422.37,422.37,0,0,0-98.56-31.4c-21.74-4.1-35.16,9.43-36.44,31.85-.86,15-.73,30.19-3.12,45-3.18,19.66,3.42,30.23,23.62,31.46C206.29,725.67,250.57,710.51,288.78,681.84Z"/><path class="cls-1" d="M200.24,406.72c13.12-9.72,13.08-29.18,29.55-34.47,21.2-6.81,36.85-21.43,51.72-36.82,20.74-21.45,20.38-43.5-3.6-60.64-36.81-26.31-76.4-48-119.08-64-13.05-4.87-17,.87-20.49,11-5.93,17.55-7,35.69-7,47.9-.74,55.06,10.95,87.4,43.81,133.77C183.69,415.57,187.88,415.87,200.24,406.72Z"/><path class="cls-1" d="M396.22,50.26c9.37-4,19.63-6,28.88-10.3,8.23-3.78,20.83-8.42,16.7-19.14-4.5-11.68-17.88-10.64-28.95-7.92-7.15,1.76-11.94,7.2-16.59,12.73a45,45,0,0,1-8.66,7c-11-12.9-7.7.11-8.52,3.38C377,52,382.29,56.27,396.22,50.26Z"/><path class="cls-1" d="M238,214.37c42.86,9.19,80.55,32.27,118.55,53.6,28.65,16.08,43.05,8.21,46.25-25.8,1-11,.65-22-2.36-33-11.9-43.47-27.48-86-35.35-130.49-2.63-14.87-11-7.58-17.24-5.62-43.95,13.85-86.18,31.62-125.49,56-25.79,16-49.39,34.2-67.24,61.76,5.25,2.35,8.08,3.63,10.93,4.89C189.08,205.83,213.66,209.14,238,214.37Z"/><path class="cls-1" d="M393,60c-6.88,2-13.68,3-11.38,13.81,8.92,41.82,15.4,84.34,34.45,123.24,13.66,27.89,33,38.87,60.52,37.08,20.19-1.32,31-7,22.88-30.67-6.09-17.83-7.87-37.12-11.61-55.75-1.54-7.65-4.57-15.49,3.79-22.54,14.17,13.2,10.33,34.2,22.12,50.5,10.89-21.48,5.32-38.28-7.48-54.34-5.89-7.39-10.05-16.14-15.23-24.12C467.26,60.46,434.8,48.16,393,60Z"/><path class="cls-2" d="M121,140.07l0,.1c8.55-22.89,25.44-40.68,38.35-61-20.28,12.29-33.65,30.07-43.48,50.79h0C120.11,132.06,119.86,136.41,121,140.07Z"/><path class="cls-2" d="M214.8,46.76c21.63-3.55,44.08-3.27,64.31-13.39C256.9,34.2,234.48,34,214.8,46.76Z"/><path class="cls-2" d="M38.91,706.31a16.9,16.9,0,0,0-3.55-.35V706c1.06,20.2,13.66,34.3,22.23,50.53l5.58-2.83L39,706.32Z"/><path class="cls-2" d="M928.71,444.87c-.91-53.14-27.42-100.14-33.57-151.84l.05,0c-6.2-21-14.64-40.89-27.91-58.5v.09a.36.36,0,0,0,0-.09C836.72,206.76,819.4,168.93,795,135c-17,27.46-33.8,29.93-54.09,10a450.13,450.13,0,0,1-30.81-33c-6.38-7.69-15.08-16.2-11.53-27.1s16.5,0,27.33-8c-60-24.57-121.19-35.7-174.57-67.14,6.43,12.3,21.79,11.46,28.52,23.18-9.29,8.6-18.08,5.09-26.09-.6-15.58-11.07-39.19-9.6-48.18-30.86-35.34,3.94-70.68-5.36-106.1.37-27,4.35-35.86,12.12-36.63,40.27-.39,14-5.81,18.92-18.25,22.62a506,506,0,0,0-109,46.75c-18.51,10.68-36.78,21.83-55.65,31.85-5.54,3-14.42,11.21-17.8-3.24,0,0,0-.06,0-.1-1.09-3.66-.84-8-5.1-10.09H157c-4.55,8.35-9.46,16.52-13.6,25.07-8.56,17.72-18,31.85-42,30.27-13-.87-26.24,6.29-34.29,24,16.42-8.95,30.2-11.89,47-7-10,15.5-19.84,27.64-33.44,36.17-4.86,3.05-10.71,8.75-15.91-.27-2.66-4.61-5.07-11.56-12.08-7.23-6.84,4.22-8.59,11.46-4.65,18.79,6.68,12.44,3.81,24.67-.16,36.85-5.14,15.79-10.68,31.45-16,47.17-.1.24-.19.46-.27.68C5.29,390.79-4.34,449.86,1.77,511.62c1-59.78,13.19-117.29,34.53-173l0,0c4.67-8.23,8.61-17,14.16-24.57,15.76-21.51,29.09-21.3,44.13.66,9.88,14.42,17.62,29.9,19.77,47.73q6.38,52.92,13.37,105.76c2.26,17-1.32,31.93-9,47.65C89.39,575.62,76.5,639.46,76.51,706l0,.08V706a17,17,0,0,1,3.55.35c1.54-6.43-2.15-13.71,2.6-19.49,7.25-.22,5,10.44,12.18,11.08.42-38.3,2.93-42.83,26.91-47.31-14.94,29.31-22.57,58.89-13.27,93.26,16.75-23.78,10.36-53.88,33.67-75.06,8.1,25.43,4.57,48.25,4.38,70.8-5.67,15.58.31,26,14.62,32.59a46.13,46.13,0,0,1,17.54,14.45l1,0c2.38,0,4.83-.42,7.13,0C200.66,789,218.1,796,214.69,809c-3.62,13.81-20.66,2.87-31.63,1.13-9.28-1.47-18.25-4.92-27.36-7.49-1.38-5-11.36-7.07-5.14-14.74l.38,0a10.22,10.22,0,0,1-.37-2.11c-4.87-.6-9.7-1.14-8.29,6.41-5.55,13.44,5.41,20.77,12.14,28.18,31.8,35.06,73.34,56.86,113.26,80.78v0C291.47,914,315.61,925.7,343.75,925c-.83-8.61-15.08-6.88-12.77-17.41,30.55-3.18,60.34-2.58,88.16,11.75,14.33,7.38,34.84,2.4,43.25,21.59,54.77-5,117.67,9.39,144.88-61,2.91-7.52,9.44-8.31,15.85-6.34,7.41,2.28,16,5.12,18.6,12.88,4.15,12.52,3.95,14.12,13.74,9,31.84-16.53,65.07-31,91.71-56.06l.42-1.06c-.6.35-1.21.7-1.8,1.06-4.37-12.33,2.32-18.95,11.87-25.11,8.55-5.51,7.7,5.36,12.42,6v0c.46,0,.91,0,1.39,0,16.42-17.11,34-33.26,49.06-51.47C898.31,674.91,930.77,565.79,928.71,444.87ZM121.47,250c-1.35,8.24-2.4,17.61-4.51,26.74-1.82,7.9-1.34,19.73-12.76,19.09-9.53-.54-12.34-11.18-14.75-19.34-3.5-11.92-.38-23.52,5.27-34,4.3-8,9.1-19.59,19.93-16.45C124.42,228.8,120.69,240.6,121.47,250Zm786.39,243.2c-.34,6-17.26,3.69-17.42,17.24-5.88-9.44-11.23-17-7.58-26.72C890.62,489.09,909.27,468,907.86,493.16Zm-18.71-115.3c3.21,24.32,5.51,48.76,8.44,75.68,1,4.32.78,10.88-7.41,12.55-7.27,1.49-15.45.25-18.29-7.51-8.69-23.81-19.12-47.51-23.46-72.2-2.66-15.13,16.67-23.21,27.69-28C888.16,353.24,888,369.32,889.15,377.86ZM546.91,862.3c-24.74,12-49.39,14.06-80.35,2.76C496.66,848.47,521.86,853.38,546.91,862.3Zm-.67-15.3c10.56-4.32,20.73-3.63,30.07,5.07C565.1,856.62,556.36,848.82,546.24,847ZM351.1,347.49l-54.77,7.2C316.67,339.08,334,344.12,351.1,347.49Zm-64.81-92.22c18.78,5.52,36.66,12.49,51.71,25.39C318,278.2,301,269.06,286.29,255.27Zm95.44,104c6.11-.89,10.81,1.56,15,5.66C407.55,375.45,420,384.7,429,396.52c36.38,47.59,32.18,57.63-18,87.93-41.83,25.29-92.67,32.06-136.8,54.14-9.35,4.67-15-2.41-19.25-9.26-18.5-29.57-36.64-59.37-55.08-89-3.17-5.08-5.46-9.39.21-14.37,24.1-21.14,44.23-46.81,80.87-49.8C314.79,373.41,348.16,365.15,381.73,359.31Zm48.66-22.88c-35.94,7.12-43.48,2.15-45.8-29.21C401.48,314.46,415.28,324.35,430.39,336.43Zm-29-41.24c13.33.08,13.33.08,26.52,13.5C417.77,306.26,408.39,303.36,401.36,295.19ZM508,482.31c19.35,3,28.19,11.23,29.46,33.18C523,505.79,516,496,508,482.31Zm-3,69.84c-3.57-15.28-7.3-30.19-6.43-46.55C527.42,528.84,530.48,541.65,505,552.15Zm21.22-94.4c-6.14.21-36.16-38.92-35-45.91,1.47-8.95,9.36-9.72,16.35-10.08,19.18-1,29.37,12.73,29.59,39.22C538.26,449.66,537.28,457.36,526.25,457.75Zm-40.6,184.58c-15.69-.65-31-7.36-38.79-23.18-2-4.1,30.55-25.45,38-23.74,15.32,3.53,4.85,17.24,10.06,25.56C489.51,627.66,502.33,643,485.65,642.33Zm8.61,43.21c-.61,10.79-.29,18.8-1.65,26.51-5.1,28.91-22.47,38.44-49.41,26.71-13.7-6-26.13-15.22-40.16-20-25.13-8.55-17-19.59-4.75-32.82,23-24.9,51.8-31.39,84.15-27.57C505.66,661.11,486.93,679.62,494.26,685.54ZM439.94,582.45c.91-8.28,4.72-13.24,13.56-13.24h37.82c-15.3,9.83-24.27,16.12-33.78,21.47-5.18,2.92-10.52,9.24-17.06,5C435.74,592.63,439.44,587,439.94,582.45ZM472.13,314.1c-3.32,2.57-9.83,4.48-13.07,2.93-5-2.37-1.71-8.19-.86-12.76,4.41-23.65,15.54-42.31,40-55.44C496.13,275.45,492.57,298.23,472.13,314.1Zm6.23,196.55c2,7.69,3.9,13.43,4.89,19.34,3.77,22.35-.43,26.38-22.47,24.11-8.47-.88-11.77-3.11-7.15-11.28C460,531.51,465.54,519.48,478.36,510.65ZM280.09,624.22c-33.31.71-62.14,3.62-90.6,9.82-4.82,1.05-11.74,2.61-14.49-4.14-1.76-4.32,2.57-6.94,5.36-9.52C207.92,594.88,249.49,595.1,280.09,624.22Zm22.3,46.16-73.07-25.91C271.05,629.92,289.5,635.64,302.39,670.38Zm-18.8-119a863.16,863.16,0,0,1,103-36.73c12.5-3.54,23.74-2.54,33.56,5.72,8.38,7,12.8,16.74,10.28,27.64s-13,7.18-20,7.87q-43.8,4.33-87.75,7C309.86,563.69,297.52,560.79,283.59,551.39Zm35,33.71c12.21-6.45,25.74-6.94,39.11-8.68,21-2.71,41.85-4.45,65.48-3.31-14.56,34.49-40,48.48-72.59,52.07-7.82.86-16.07,1.24-23.69-.3-8.19-1.67-21,6.33-23.83-8C300.44,603.31,305.78,591.88,318.6,585.1Zm35.58,59.64c-37.23,27-37.89,27-44.27-5.84C326.11,640.1,340.35,636.48,354.18,644.74Zm-27.4,35.72C334,670.31,344,667.2,353.19,663.37c6.12-2.57,12.58-13.44,19.89-3s7,22.44.48,33.44c-7.42,12.51-14.83,1.4-21.67-1.16C343.41,689.45,335.49,684.77,326.78,680.46ZM306,793.7c3.49-7.86,11.37-10.29,19.31-16C329.87,800.88,329.87,800.88,306,793.7Zm35-54.13c-6.32-11.43-8.12-23.29-10.35-38.12C365.53,712.16,365.86,713.56,341,739.57Zm2.49,111.81c-16.06-2.85-1.18-15.33-1.79-23.32s.71-16.29,13.21-13c26.53,6.87,54.15,9.72,83.4,22.73C406.21,855.32,374.77,856.91,343.53,851.38Zm41.63,7.89c-17.48,16-33.36,1.92-49.86,0Zm50.06-37.1c-22.65-1.06-50.47-11.14-79.12-16.88-11.11-2.23-17.26-36.84-9.64-49.6.81-1.34,2.11-2.38,3-3.65,24.33-33,24.46-33.22,60.54-13.65,22.85,12.39,47.61,23,55.81,51.47C472.74,813.81,466.19,822.83,435.22,822.17Zm90.2,9.83c-9.42-.56-8.71-9.38-9-16.09-.2-4.58.36-10.35,7.5-8.43,6.45,1.74,10.69,6.19,11.9,11.92C534.44,826.54,531.13,832.34,525.42,832Zm-10.24-66.21c-13.31-34.59-6.34-65.42-2.56-96.07,1-8.38,8.14-5.42,13.19-4.86,8.08.91,12.71,4.74,11.91,14A262.5,262.5,0,0,1,515.18,765.79Zm12-116.75c-7.08-.42-14.57-.46-15.35-10.59-.84-11-2.15-21.91-3.31-33.38,1.76-6.15-5.14-16.52,7.66-18.31,10.27-1.44,18.67,2.12,23.55,11.86,7.17,14.29,4.82,29.13,2.3,43.94C540.35,652.14,533,649.39,527.13,649Zm-.64-403c.4-18.16,17.29-12.31,26.19-18,9.08-5.83,15.5-3.21,20.44,7,14.41,29.82,29.47,59.33,44.67,88.76,6.48,12.54,2,15.65-9.4,13.67C564.57,333.64,525.54,289.58,526.49,246Zm-3.1-27c3.91-16.67,7.18-30.63,10.7-45.66C563.5,204.42,562.65,208.89,523.39,219Zm162.92,200.2c-4.37,1.61-6.15-3.57-6.72-7.66-.55-3.91-1-7.84-1.62-11.73-7-42.55-7-42.55,36.42-42.15,14.12,1.33,28.44,1.63,42.3,4.27,14.92,2.85,17.36,12,8.37,24.15C745.39,412.62,713,409.37,686.31,419.23Zm22.27,13.35c-6.44,6.18-11.21,15.26-21.92,13.34-.79-.15-2-2.87-1.61-3.93C689,430.28,700.69,435.92,708.58,432.58Zm-20.69,84.87c-12-7.33-26.78-12-26.08-28.68.14-3.26,10.41-9.84,12.56-8.65C689.21,488.33,683.06,504.73,687.89,517.45Zm-12.3,28.28c-7.36,7.17-14.69,2.69-19.89-4.64-4.82-6.78-6.37-14.34-3.39-26.52,7.2,6.78,12.71,11.18,17.2,16.45C673,535.14,682.92,538.58,675.59,545.73ZM665.35,237.58c-1.56,21.67-3.08,47.82-5.54,73.89-.7,7.42-1.14,17.32-11.24,18.6-8.41,1.06-12.18-7.09-15.34-13.11-15.14-28.8-29.41-58-44.54-86.86-4.9-9.31-4.18-14,7-16.5,10.8-2.42,21.1-6.93,31.8-9.85C675.5,190.62,665.63,191.84,665.35,237.58ZM573.38,414c-20.57-9.21-22.55-17.53-8.76-35.9a58.46,58.46,0,0,1,8-8.68C588,355.92,607,349.66,625.54,355.86c13.94,4.65,10.19,23,13.6,35.4,1.45,5.29,1.64,10.92,3.24,22.37,3.14,11.91-6.39,14.08-20.94,12.65A153.1,153.1,0,0,1,573.38,414Zm0,80.19c-8.46-4.87-12.13-10.5-11.22-17.81.4-3.18,4.7-3.8,7.51-2.18C577.47,478.72,574.94,485.7,573.38,494.2ZM554.06,684.05c1-5.44,1.58-10.87,10.18-7.84,7.35,2.6,10.9,5.4,6.53,13.25-7.12,12.77-14,25.66-21,38.5l-3.39-1.3C548.93,712.45,551.41,698.24,554.06,684.05Zm5.45-44c1.48-14.91,3-29.68,8.38-47.82,11.93,16.9,20.5,31,21.29,48,.39,8.41-.07,18.79-13.18,17.52C565.83,656.79,558.19,653.35,559.51,640.05ZM591,481.48c10.8-4.23,19.73,4.31,34.4,11.17-15,4.89-23.67,14.5-33.64,6C587.3,494.77,586.57,483.22,591,481.48Zm41.55,167.64c9.44,2.17,16.33,8,24,20.48-11.89-1.08-20.33-1.51-28.66-2.73-5.32-.78-11.73-2.21-9.9-9.79C619.74,649.87,625.65,647.53,632.55,649.12Zm16.57-41.43c-5.31-8.14-18.65-16-3.81-27.4,13.11-10.11,26.31-19.17,42.46-6,12.89,10.52,19,25.2,22.7,40.79,3.49,14.59,5.94,29.43,8.53,42.53-2.35,8,4.34,17.35-6,20-8.82,2.24-16.83-.26-22.53-8.93C677,648.16,662.54,628.25,649.12,607.69Zm76.25,189.9c9.74,10,8,16.19-5.34,20.63C715.86,809.82,721.38,804.44,725.37,797.59Zm-31-325.51c-.31-5.66,2.1-8.77,6.1-11.75,17.61-13.1,35.17-26.27,54.64-40.84,6.93,38,13.44,73.54,19.87,109.08,2.05,11.31-1.6,15.91-14,14C732.75,538.29,695.84,499.54,694.32,472.08ZM746.8,574.5c7-8.09,15.92-13.24,26.38-14,9.42-.71,8.26,8.46,9,13.75,2.94,20,4.83,40.11,7.12,60.19l-4.89,1Q766.71,612.11,749,588.81C745.57,584.39,741.78,580.26,746.8,574.5ZM786.4,527C781,493.46,776,459.89,766.72,427.17c-2.88-10.22,2.28-13.86,11-16.94a493.57,493.57,0,0,0,46-18.68c9.93-4.68,15.6-4.63,19.07,7.31,4.85,16.65,11,32.91,16.53,49.37.75,2.23.76,4.75,1.7,6.88,5.19,11.74-19.78,3.62-11.23,16.92,4.78,7.42,15.9,5.83,20.91,14.41C884,509.09,880.56,519.27,855,526.7c-15.89,4.62-32.12,8.07-48.22,12-2.29.55-4.7.59-9.21,1.12C789.56,541.4,787.57,534.12,786.4,527Zm12.17-142.89c8.13-9.47,18.67-15,31.94-16.47C822.52,377.54,810.94,381.41,798.57,384.06Zm69.34-48c-4,6.77-15.26,7.44-21.1,1.14-11.25-12.14,1.59-20.95,5.46-33.72C861.87,314.71,876.8,320.92,867.91,336ZM775,167.7c7.55-4.78,16.92-8.58,22.88,1.5,17.09,28.9,39.37,55.2,47.95,93.48-24.67-28.48-46.47-53.36-67.86-78.57C774.17,179.66,763.79,174.78,775,167.7ZM801.13,222l-29.8-27.13C784.53,202.58,795.2,212.41,801.13,222Zm-77.19-75.46c-10.26-3.93-20.62-7.67-29.81-20.85C710.59,128.3,718.4,135.63,723.94,146.55Zm-38.56-11.4c16.07,14.23,19.89,24.79,0,38.12ZM700,185.57c20.54-1.1,39.54,2.36,56.42,14.36,32.06,22.78,56.19,53.37,81.23,83.06,5.5,6.54,4.47,12.47,1.15,19.63-11.4,24.58-30.6,38-57.24,40.27-11.81,1-23.77.17-35.67.17l0,1.25c-13.43-1-27-3.79-40.25-2.72-26.16,2.11-33.94-7.82-30.83-33.79,4.05-33.76,4.6-68,5.49-102C680.65,191.59,686.21,186.31,700,185.57ZM651.56,59.08c11.86,1.14,23.8,2.7,31.54,13.24,2.48,3.38-1,6.75-3.79,7.06C664.59,81,654.62,73.65,645.5,62.5,649,60.46,650.36,59,651.56,59.08Zm12.57,43.45c-26.16-15.64-50-34.65-76-50.41C620.54,58.13,650.24,68.25,664.13,102.53ZM540.63,37.31c-27.15,1.83-27.15,1.83-43.36-21C514.09,22.36,526.92,27.4,540.63,37.31ZM498.79,55.53c8.5-9,16.48-6.54,24.89.41a24.68,24.68,0,0,0,17.83,5.84c3.12-7.79-9.09-8.3-6.39-16.18,10.48-2.3,20.59-1.82,30.74,4.26,32.71,19.6,63.69,41.64,94.51,64,21.86,15.88,7,36.49,8.62,54.72,1.38,15.26-13.89,11.85-22.89,14.53-19,5.65-38.29,10.26-57.16,16.27-11.11,3.53-16.34-.12-23-9.43-19-26.61-30.68-54.13-15.85-90.48-16.36,6.06-16.35,16.42-23.16,25.36C516.8,109,508,95.25,499.15,81.44,493.72,72.91,490.44,64.33,498.79,55.53ZM491.1,97.18c5.18,8,9.34,16.73,15.23,24.12,12.8,16.06,18.37,32.86,7.48,54.34-11.79-16.3-7.95-37.3-22.12-50.5-8.36,7-5.33,14.89-3.79,22.54,3.74,18.63,5.52,37.92,11.61,55.75,8.08,23.64-2.69,29.35-22.88,30.67-27.5,1.79-46.86-9.19-60.52-37.08-19.05-38.9-25.53-81.42-34.45-123.24C379.36,63,386.16,61.92,393,60,434.8,48.16,467.26,60.46,491.1,97.18ZM379.08,36c.82-3.27-2.44-16.28,8.52-3.38a45,45,0,0,0,8.66-7c4.65-5.53,9.44-11,16.59-12.73,11.07-2.72,24.45-3.76,28.95,7.92,4.13,10.72-8.47,15.36-16.7,19.14-9.25,4.25-19.51,6.26-28.88,10.3C382.29,56.27,377,52,379.08,36ZM222.39,129c39.31-24.35,81.54-42.12,125.49-56,6.22-2,14.61-9.25,17.24,5.62,7.87,44.51,23.45,87,35.35,130.49,3,11,3.4,22,2.36,33-3.2,34-17.6,41.88-46.25,25.8-38-21.33-75.69-44.41-118.55-53.6-24.37-5.23-48.95-8.54-71.95-18.68-2.85-1.26-5.68-2.54-10.93-4.89C173,163.24,196.6,145,222.39,129Zm-91,140.73c0-12.21,1-30.35,7-47.9,3.45-10.17,7.44-15.91,20.49-11,42.68,15.93,82.27,37.65,119.08,64,24,17.14,24.34,39.19,3.6,60.64-14.87,15.39-30.52,30-51.72,36.82-16.47,5.29-16.43,24.75-29.55,34.47-12.36,9.15-16.55,8.85-25.07-3.18C142.31,357.17,130.62,324.83,131.36,269.77Zm2.13,344.7c-3.22,15.27-12,19.88-24.33,19.68C93.53,633.88,96.61,620.4,96.65,611c.13-33.4,14.83-62,32-90.27C133.16,552,140.19,582.65,133.49,614.47Zm1.28-209.09c2.52-13.81,7.59-16.17,18.14-5.8,22.05,21.65,22.94,30.79,4,54.4-5.38,6.7-10.7,13.44-20.47,25.72C137.73,450.41,130.59,428.2,134.77,405.38ZM183.13,445c19.84,28.85,39,57.73,54.6,88.82,6.28,12.5,4.2,21.57-9.57,29a314.24,314.24,0,0,0-47.31,31.62c-16,12.88-24.22,5.87-30.37-9C128.83,533,139.37,486.74,183.13,445Zm1.21,323.55c-3.63-2.82-6.64-6.44-9.93-9.71l-.46.25h0l.32-.32c-20.2-1.23-26.8-11.8-23.62-31.46,2.39-14.78,2.26-30,3.12-45,1.28-22.42,14.7-35.95,36.44-31.85a422.37,422.37,0,0,1,98.56,31.4c-38.21,28.67-82.49,43.83-114.5,76.88h.05l.08.08C213,738,252.13,718.1,290,696.05c16.33-9.5,21.84-5.13,24.88,11.07,1.45,7.71,4.62,15.09,6.38,22.77,8.71,37.85-14.3,62.88-53.54,57.94C239.29,784.25,209.12,787.75,184.34,768.51Zm25.08,53.1c18.29-3,31.61,2.46,47.52,17.49C236.75,836.09,222.39,833.71,209.42,821.61Zm96.77,26.59c-16.4-1.74-36.75-.71-43.63-21.76-2.74-8.42,21-24.63,35.91-24.37,7.16,7.79,29.73-5.08,27.82,17.58C325.29,831.43,326,850.3,306.19,848.2Zm4,35.51c18.94-1.94,30.68,6.08,49.61,14.37C337.31,902,322.12,905.52,310.22,883.71Zm37.33.95c18.08-10.19,30.76-10.18,50,.24C379.13,900.7,363.71,892.92,347.55,884.66ZM582,898.11c-12.59,24.12-35.13,29.44-59.67,31.88-44.14,4.37-84-10.83-129.28-26.88C442,889.17,486.32,882,531.26,878.17c11.83-1,23.68-1.72,35.52-2.66,7-.56,16-4.54,20.41,1C592.76,883.6,585.57,891.32,582,898.11Zm20-103.57c-2.83,23.88-25.44,11.38-38.58,10.31-13.78-1.12-30.31-4-34.36-22.47-.24-1.1,1.42-2.75,2.41-4,23.52-28.82,41.76-61.12,61.68-93C603,722.25,606.3,758.71,602.06,794.54Zm-8.58-253.17c8.57-13.72,14.87-20.61,27.88-26.94C615.07,527.55,607.68,533.34,593.48,541.37Zm26.07,155.21c10.19-14.26,31.73,1.48,48.69,1.22,23.2-.36,35.45,19.59,30,44.54-4.87,22.16-48,57.49-70.51,58.5-8.91.41-8.34-5-8.37-10.61-.05-14.23,0-28.46,0-42.69h-1.43C617.89,730.16,611.33,708.09,619.55,696.58Zm66.2,137.55c-12.65,4.06-23.9,9.1-31.76-7.33-2.17-4.53-7.1-10-13.26-7.78-5.41,2-3.8,8-2.64,12.46,1.26,4.85-.1,8.23-5.16,7.64-4.48-.52-9.74-1.83-12.88-4.72-4.2-3.87-1.86-9.08,2.11-12.29a174.13,174.13,0,0,1,72.19-34.53c13.07-.74,19.17.18,15.36,11.37C704.93,813,703.55,828.43,685.75,834.13Zm13.08,20.68c5.68-19.4,15.26-28.21,33.4-27.3Zm34.36-258c17.19,20.93,30.25,36.6,43,52.51,4.48,5.57,8.92,11.81,2.37,18.82-9.11,9.75-20.43,14.33-33.85,13.79-10.64-.43-9.8-9.33-10.44-15.58C732.15,645.6,729.05,624.72,733.19,596.83Zm4.63,106.08c12.67-11.46,26.27-1.4,46,.27-15.54,12.3-24.77,22.71-39.21,10.3C741.09,710.46,734.3,706.09,737.82,702.91Zm41.55,67c-7.18,13-14.86,25.52-31.29,30.19-5.34-16.51-.35-29.94,6.54-43.42,6-11.69,13.13-6.74,21.41-3.42C786.62,757.55,782.93,763.52,779.37,770Zm6.54-31.46c-3.95-2.6-11.53-2.67-9.66-10.13,1.31-5.21,5.84-10.6,11.06-10.28,4.3.26,5.89,6.55,5.93,11.31S793.06,739,785.91,738.49Zm32-13.14c-2.41,4.1-4.8,9.09-10.21,7.54-5.67-1.64-4.16-7.4-3.9-11.71.29-4.66,1.3-10.07,8-6.78C815.86,716.4,819.23,719.91,817.9,725.35ZM809.11,646c-12.76-23.12-8.46-49.73-15.08-74-2.43-11.59,3.51-16,13.89-17.36,22.09-3,43.85-7.77,64.17-17,9.68-4.39,12.36-1.33,14.28,7.59,3,14.08-1.1,26.76-7,38.87-11.59,23.63-28.07,44.06-43.34,65.34C823.43,666.9,816.35,659.08,809.11,646Zm29.18,69.82c3.47-12.41,6.59-25.1,26.4-28.8C857,700.38,849.56,709.61,838.29,715.78Zm27.48-52.56,19.79-31.42C887.77,647.27,878.83,656.4,865.77,663.22Zm21.09-46.12c-3-16.07-2.65-26.13,5.46-39.36C894.72,592.29,898,602.63,886.86,617.1Zm16.66-32.76c-5.2-13.58-7.81-27,6.47-41.53C916,559.62,908.68,571.84,903.52,584.34Z"/><path class="cls-2" d="M174.21,758.83,174,759h0Z"/><path class="cls-2" d="M174.33,758.72l-.12.11Z"/><path class="cls-3" d="M1628.88,510.26c0-39,.08-78.06,0-117.09,0-17.36-1.21-18.36-18.64-18.44-11.67-.05-23.35-.08-35,0-13.59.11-15.67,2.1-15.68,15.79q-.1,95.13,0,190.25c0,16.51-.43,33,.18,49.54.3,8.17-2.68,10.1-10.32,9.84-15.42-.53-30.91-.75-46.3.05-10,.51-13.21-1.94-13.14-12.63.52-76.18.28-152.37.28-228.56,0-2.63.06-5.25,0-7.88-.44-14.56-2.09-16.29-16.38-16.39-12.43-.09-24.87-.38-37.27.14-14.43.6-17,3.27-17,17.73,0,42.78.26,85.56.34,128.34.06,36.4-.22,72.81.19,109.21.09,8-2.25,10.3-10.12,10-15.42-.59-30.87-.34-46.31-.09-5.25.08-7.83-1.51-7.17-7a29.3,29.3,0,0,0,0-3.38q-.51-113.12-1-226.23c0-13.11.81-26.23.92-39.34.3-36.45,23.3-60,59.92-60.12q96-.39,192,0c13.46,0,27-1.41,40.41,2.11,26.38,6.92,41.74,25,42.7,52.28.77,22.09,1.34,44.2,1.4,66.3.18,67.93-.13,135.86.29,203.79.06,9.54-2.72,12.18-12,11.67a396.1,396.1,0,0,0-41.78,0c-8.47.43-10.86-2.07-10.77-10.58C1629.13,589.83,1628.88,550.05,1628.88,510.26Z"/><path class="cls-3" d="M1824.22,473.92c0,51.9-.19,103.8.2,155.7.06,8.29-2,10.94-10.52,10.63-18.33-.68-36.71-.41-55.06-.1-6.31.11-9.31-1-9.3-8.4q.35-159.07,0-318.15c0-6.27,1.85-8.43,8.26-8.32,19.1.35,38.22.48,57.31,0,7.69-.21,9.24,2.59,9.21,9.62C1824.11,367.87,1824.22,420.89,1824.22,473.92Z"/><path class="cls-3" d="M3818.52,471.8c0,52.34-.19,104.68.19,157,.06,8.63-1.88,11.81-11.13,11.42-18.1-.75-36.26-.44-54.39-.1-6.36.12-8.44-1.87-8.43-8.31q.24-160.43,0-320.84c0-7.46,3.05-8.61,9.42-8.5,18.13.31,36.28.49,54.4-.07,8-.24,10.2,2.15,10.15,10.09C3818.36,365.6,3818.52,418.7,3818.52,471.8Z"/><path class="cls-3" d="M2719.44,300.84l-106.27,0v-.13h-79.89v.11h-25.72a6.36,6.36,0,0,0-1.07-.1h-77.63a5.92,5.92,0,0,0-5.91,5.91v51.58a5.92,5.92,0,0,0,5.91,5.91h100a4.36,4.36,0,0,1,4.36,4.36c0,95.91,0,259.85,0,260.7,0,1.2.22,5.47,2.06,8s5.28,2.82,7.51,3.08c2.07.24,9.53-.21,10.61-.27h49.38a23.7,23.7,0,0,0,4.44-.52c6.29-.59,5.89-8.55,5.89-8.55V368.44a4.37,4.37,0,0,1,4.37-4.37h101.9a4.36,4.36,0,0,0,4.36-4.37V305.2A4.36,4.36,0,0,0,2719.44,300.84Z"/><path class="cls-3" d="M3131.37,301.79c64.87,0,114.49,0,179.37,0H3316c-1,1.76-1.57,2.87-2.24,3.91a270.61,270.61,0,0,0-26.8,53.56c-1.16,3.17-2.65,4.08-5.91,4.08-53-.11-71.4-.08-124.38-.07h0c-15.17,0-27.62,10.37-29.09,25.61a126.56,126.56,0,0,0,.62,27.3c1.39,11.34,9.93,18.42,22.2,18.76,22.76.61,45.55.4,68.32,1.08a203.91,203.91,0,0,1,32.38,3.08c27.85,5.36,47.38,21.38,56.38,48.53,11.51,34.71,11.9,69.65-2.15,103.77-9.8,23.81-28.72,38.47-52.65,46.81a41.07,41.07,0,0,1-13.26,1.92c-44.26.14-88.53,0-132.79.16-5.31,0-8.53-3.49-12.13-6.11-18.67-13.6-31.88-31.46-40.15-53a14.5,14.5,0,0,1-.43-2.35h5.41c52.83,0,105.66-.08,158.48.09,7.27,0,12.36-2.71,16.58-8.42,6.6-8.94,10.55-18.65,10-29.89-.33-6.22-.46-12.5-1.5-18.62-1.76-10.43-8.15-17.31-18.44-19.68a98.28,98.28,0,0,0-20.2-2.58c-19.73-.34-39.48.17-59.21-.25-18.56-.38-36.58-3.35-53.16-12.7a61.23,61.23,0,0,1-25.18-26.84c-12-23.95-15.48-49.43-12-75.75,1.4-10.54,3.42-21.33,7.36-31.13,10.76-26.8,31.9-42.34,59-50.34,3.26-1,6.89-.88,10.36-.88"/><path class="cls-3" d="M1333.14,302.23c-1,1.75-1.56,2.86-2.24,3.91a270.74,270.74,0,0,0-26.77,53.49c-1.16,3.17-2.64,4.08-5.89,4.07q-79.38-.15-158.74-.07c-8.17,0-8.68.51-8.68,8.56v57.4c0,7.18.82,8,7.93,8h144.7c-7,22.77-5.18,45,1.51,67.37H1138.69c-7.11,0-7.86.76-7.86,8q0,28.92,0,57.84c0,7.2.83,8,7.87,8q79.8,0,159.6,0c2.51,0,4.21.17,5.28,3.05a257.44,257.44,0,0,0,29.16,56.14c.3.45.49,1,1,2-1.75.08-3.13.2-4.51.2-65.53,0-131,.09-196.57-.11a107.13,107.13,0,0,1-24.11-2.57c-26.06-6.15-39.78-24.3-45.59-49.3a78.83,78.83,0,0,1-1.91-17.66q-.19-99.17-.06-198.31a78.05,78.05,0,0,1,7.65-34.88c10.94-22.32,29.35-33.13,53.59-35,3.75-.28,7.53-.21,11.3-.21q97.2,0,194.4,0Z"/><path class="cls-3" d="M2751.42,472c0-36-.71-72,.2-108,1-38.1,23.75-59.39,61.67-59.45q98.8-.17,197.62-.24c10.05,0,12.26,3.63,7,12.27-7.82,12.83-15.23,25.82-20.79,39.83-3.28,8.29-9.81,11.21-18.85,11.15-45.92-.29-91.85-.17-137.78-.11-16.55,0-17.33,1-17.49,17.11-.12,12.73-.43,25.45-.82,38.18-.33,10.63,3.85,14.69,16.28,14.72,39.9.09,79.81,0,119.71,0,15,0,15.84.63,13.93,15-1.93,14.61-2.84,29.13,1.25,43.51,2,7-1.69,10.08-7.73,10.6-7.1.62-14.29.36-21.43.37-36.14,0-72.29.29-108.42-.17-10.06-.13-13.32,3.5-12.88,13.16.59,13.11.07,26.26.16,39.39.1,14.61,3,17.59,18.11,17.63,38.4.1,76.89,1.62,115.17-.53,25.39-1.42,43.11,3.49,49.94,30.36,1.6,6.3,6.44,11.78,9.84,17.61,7.6,13,6,15.78-9.62,15.81-21.45.05-42.91,0-64.37,0-42.54,0-85.08.3-127.62-.11-26.41-.26-47.75-9.93-58.5-35.88-3.47-8.37-4.57-17.31-4.55-26.41q.11-52.9,0-105.81Z"/><path class="cls-3" d="M2122.23,624.81c-21.66-38.58-42.95-77.37-64.88-115.8-4.87-8.53-2.58-12.09,5.47-16.18,23.66-12,36.85-32.08,42.7-57.6,3.51-15.27,2.45-30.67,1.88-45.94-2.08-55.23-35.92-86.22-90.82-85.64-44.39.47-88.79-.57-133.19-.8-8.12,0-11.18.93-10.52,4.87a19.92,19.92,0,0,0,1.92,5.16l20.09,54h10.71a33.88,33.88,0,0,0,5.79.36c30.86-.57,61.77.69,92.6-.45,28.67-1.06,34.68,14,34.08,35.74-.06,1.87-.29,3.73-.38,5.6-1,21.64-6.38,26.63-28.55,26.64q-41.22,0-82.45,0c-33.49,0-56.08,22-56.49,55.32-.28,22.51,0,45-.06,67.54q0,33.21,0,66.42c0,15.64.4,16,15.6,15.85q16.37-.12,32.75,0c14,.12,16.51-1.82,16.68-15.88.44-36.74,1.74-73.48-.7-110.2-.5-7.59,2.33-12.25,10.82-12,7.52.2,15.1.65,22.55,0,9.72-.88,15.2,3.36,19.56,11.66,20.73,39.48,41.91,78.72,62.77,118.13,3.16,6,7.38,8.82,14.29,8.7,16.18-.28,32.37,0,48.56-.1C2129,640.12,2129.86,638.4,2122.23,624.81Z"/><path class="cls-3" d="M3690.76,632.05c-3.19-10.21-6.63-20.36-10-30.51-7.86-23.68-15.39-47.48-23.18-71.18q-9.79-29.76-19.22-59.67c-1.77-5.59-2.62-11.53-5.43-16.79a17,17,0,0,1-1.19-2.77c-4.87-14.83-9.81-29.64-14.61-44.5q-15.91-49.28-31.65-98.61c-1-3.21-2.63-4.6-6-4.59q-39.2.12-78.38,0c-3.5,0-5,1.34-6,4.51q-7.16,23.2-14.61,46.33c-8.42,26-17,51.91-25.43,77.89-7.28,22.45-14.42,44.94-21.67,67.4q-12.33,38.19-24.76,76.35-8.93,27.55-17.83,55.1a16.87,16.87,0,0,0-.81,4.08c-.21,2.93.66,3,5.53,3q72.72,0,145.45,0h8.34l.27-67h-8.8c-.94-.1-2-.16-3.25-.19-1.06,0-2.13,0-3.19,0h-45.82c-6.77,0-7.46-.69-4.9-6.75,3.76-8.93,6.29-18.29,9.12-27.48,4.4-14.26,9.34-28.35,13.71-42.62,6.7-21.88,13.93-43.58,21-65.36,3.4-10.55,6.89-21.07,10.3-31.62.48-1.51.63-4,2.93-3.77,1.81.16,1.84,2.29,2.35,3.77,8.3,23.89,15.46,48.15,23.45,72.14,3.94,11.86,7.55,23.83,11.41,35.71q8.47,26.08,16.87,52.2c3.72,11.51,7.5,23,11.13,34.56s7.71,22.68,10.67,34.29a20.09,20.09,0,0,1,.42,2.56,15.92,15.92,0,0,0,1.2,4c3,7.67,3,7.51,11.3,7.7,18.82.43,37.57-1.78,56.39-1.14C3691.62,639.28,3692.52,637.73,3690.76,632.05Z"/><path class="cls-3" d="M2459.42,632c-3.2-10.26-6.66-20.46-10-30.66-7.91-23.8-15.47-47.71-23.3-71.53q-9.84-29.91-19.32-60c-1.78-5.61-2.63-11.59-5.46-16.87a17.44,17.44,0,0,1-1.18-2.78c-4.91-14.9-9.87-29.79-14.69-44.72q-16-49.51-31.8-99.09c-1-3.22-2.64-4.62-6.08-4.61q-39.37.12-78.76,0c-3.52,0-5.05,1.34-6,4.53q-7.19,23.32-14.68,46.55C2239.62,379,2231,405,2222.53,431.13c-7.32,22.56-14.49,45.17-21.78,67.74q-12.39,38.37-24.87,76.72-9,27.67-17.93,55.37a16.84,16.84,0,0,0-.81,4.1c-.21,2.94.67,3,5.55,3q73.09,0,146.17,0h8.38l.27-67.33h-8.84c-1-.1-2-.16-3.26-.19-1.07,0-2.15,0-3.22,0h-46c-6.8,0-7.49-.69-4.93-6.78,3.79-9,6.33-18.39,9.18-27.62,4.42-14.33,9.38-28.49,13.77-42.83,6.73-22,14-43.79,21-65.67,3.42-10.6,6.93-21.18,10.35-31.78.49-1.52.64-4,2.95-3.79,1.82.16,1.85,2.31,2.36,3.79,8.34,24,15.54,48.39,23.56,72.5,4,11.91,7.59,23.94,11.47,35.88,5.68,17.48,11.29,35,17,52.45,3.74,11.57,7.54,23.13,11.19,34.74s7.75,22.78,10.72,34.45a20.4,20.4,0,0,1,.42,2.58,16.11,16.11,0,0,0,1.2,4.05c3,7.71,3.05,7.55,11.36,7.74,18.91.43,37.75-1.79,56.67-1.14C2460.28,639.27,2461.19,637.71,2459.42,632Z"/></g></g></svg>