<svg xmlns="http://www.w3.org/2000/svg" viewBox="0 0 5818.44 1032.9"><defs><style>.cls-1{fill:none;}.cls-2{fill:#4e96b3;}.cls-3{fill:#4498b6;}</style></defs><title>Asset 13</title><g id="Layer_2" data-name="Layer 2"><g id="Layer_1-2" data-name="Layer 1"><path class="cls-1" d="M511.37,867.06c-9-31.24-36.18-42.91-61.25-56.51-39.61-21.48-39.75-21.21-66.46,15-1,1.4-2.45,2.53-3.33,4-8.38,14-1.62,52,10.57,54.45,31.46,6.3,62,17.37,86.86,18.54C511.75,903.25,518.94,893.35,511.37,867.06Z"/><path class="cls-1" d="M839.84,423.85c9.86-13.3,7.18-23.38-9.19-26.51-15.22-2.91-30.94-3.23-46.44-4.69-47.63-.44-47.62-.45-40,46.26.7,4.28,1.17,8.59,1.78,12.88.63,4.49,2.58,10.18,7.38,8.41C782.73,449.38,818.24,453,839.84,423.85Z"/><path class="cls-1" d="M575.11,886.4c-7.84-2.1-8.45,4.22-8.23,9.25.33,7.37-.45,17.05,9.9,17.66,6.26.38,9.89-6,11.4-13.83C586.84,893.19,582.19,888.31,575.11,886.4Z"/><path class="cls-1" d="M577.2,729.84c-5.54-.62-13.34-3.87-14.48,5.33-4.15,33.65-11.8,67.5,2.81,105.46a288,288,0,0,0,24.74-95.46C591.16,735,586.07,730.84,577.2,729.84Z"/><path class="cls-1" d="M667.85,370.43c12.47,2.17,17.43-1.24,10.32-15-16.69-32.31-33.22-64.7-49-97.44-5.42-11.23-12.46-14.1-22.44-7.71-9.76,6.26-28.31-.16-28.74,19.78C576.9,317.89,619.75,366.25,667.85,370.43Z"/><path class="cls-1" d="M586.29,190.32c-3.87,16.49-7.46,31.82-11.74,50.12C617.64,229.3,618.57,224.4,586.29,190.32Z"/><path class="cls-1" d="M595,705.36c2.77-16.26,5.34-32.55-2.52-48.23-5.36-10.69-14.58-14.6-25.85-13-14.06,2-6.49,13.35-8.41,20.1,1.27,12.58,2.71,24.59,3.63,36.64.85,11.12,9.07,11.16,16.85,11.62C585.12,712.86,593.16,715.88,595,705.36Z"/><path class="cls-1" d="M422.8,943.25H368.07C386.18,945.36,403.61,960.79,422.8,943.25Z"/><path class="cls-1" d="M410.07,761.57c7.16-12.07,7.54-25.21-.53-36.7s-15.11.52-21.84,3.33c-10.05,4.21-21.07,7.62-29,18.77,9.56,4.72,18.25,9.87,27.56,13.34C393.79,763.11,401.92,775.31,410.07,761.57Z"/><path class="cls-1" d="M336,871.27c26.16,7.89,26.16,7.89,21.2-17.59C348.43,860,339.78,862.64,336,871.27Z"/><path class="cls-1" d="M363,770c2.45,16.28,4.42,29.3,11.36,41.84C401.61,783.3,401.25,781.77,363,770Z"/><path class="cls-1" d="M389.64,894.66c-13.72-3.55-15.17,5.54-14.5,14.33s-15.66,22.47,2,25.6c34.3,6.07,68.81,4.32,104.09-15C449.09,905.34,418.76,902.21,389.64,894.66Z"/><path class="cls-1" d="M678.4,721.3c-2,8.32,5,9.89,10.86,10.74,9.15,1.35,18.42,1.82,31.47,3-8.43-13.71-16-20.09-26.36-22.48C686.8,710.82,680.31,713.38,678.4,721.3Z"/><path class="cls-1" d="M388.8,707.76c-15.19-9.07-30.82-5.1-48.61-6.42C347.2,737.36,347.92,737.45,388.8,707.76Z"/><path class="cls-1" d="M753.77,489.5c11.76,2.11,17-7.86,24.06-14.64-8.66,3.66-21.46-2.53-25.82,10.33C751.61,486.35,752.91,489.34,753.77,489.5Z"/><path class="cls-1" d="M782.66,743.83c11.37-2.89,4-13.15,6.61-21.94-2.84-14.38-5.53-30.67-9.36-46.69C775.82,658.09,769.13,642,755,630.42c-17.72-14.46-32.21-4.51-46.6,6.58-16.3,12.57-1.65,21.14,4.18,30.08,14.73,22.57,30.55,44.43,45.37,66.94C764.19,743.54,773,746.29,782.66,743.83Z"/><path class="cls-1" d="M626.55,756.84c4.8-8.61.91-11.69-7.17-14.54-9.44-3.33-10.06,2.64-11.17,8.6-2.91,15.58-5.63,31.18-8.43,46.78l3.72,1.43C611.17,785,618.74,770.86,626.55,756.84Z"/><path class="cls-1" d="M850.67,580.22c-7.07-39-14.21-78-21.82-119.73-21.37,16-40.64,30.45-60,44.83-4.39,3.27-7,6.68-6.69,12.89,1.66,30.15,42.18,72.69,73.08,77.4C848.91,597.69,852.92,592.64,850.67,580.22Z"/><path class="cls-1" d="M649.59,547.33c10.94,9.39,20.49-1.17,36.93-6.54-16.1-7.53-25.9-16.9-37.75-12.25C643.9,530.45,644.7,543.13,649.59,547.33Z"/><path class="cls-1" d="M726.49,536.54C725.72,554.84,742,560,755.12,568c-5.31-14,1.45-32-14.85-41C737.91,525.74,726.64,533,726.49,536.54Z"/><path class="cls-1" d="M734.94,582.91c-4.93-5.78-11-10.61-18.88-18-3.27,13.37-1.56,21.67,3.72,29.12,5.71,8,13.76,13,21.83,5.08S738.81,587.45,734.94,582.91Z"/><path class="cls-1" d="M625.35,520.56c-3.09-1.79-7.81-1.1-8.25,2.39-1,8,3,14.2,12.32,19.55C631.13,533.17,633.91,525.51,625.35,520.56Z"/><path class="cls-1" d="M705.16,454.05c-1.75-12.56-2-18.74-3.55-24.55-3.75-13.66.37-33.76-14.93-38.87-20.36-6.79-41.23.07-58.06,14.9a64.23,64.23,0,0,0-8.82,9.53c-15.14,20.17-13,29.31,9.62,39.41,16.77,7.5,34.37,11.67,52.75,13.48C698.15,469.51,708.61,467.13,705.16,454.05Z"/><path class="cls-1" d="M688.79,223.66c-11.75,3.21-23.06,8.16-34.91,10.81-12.24,2.75-13,7.89-7.66,18.12,16.61,31.62,32.28,63.74,48.9,95.35,3.47,6.6,7.6,15.56,16.83,14.39,11.1-1.41,11.58-12.27,12.35-20.42,2.69-28.61,4.37-57.32,6.08-81.11C730.69,210.58,741.52,209.25,688.79,223.66Z"/><path class="cls-1" d="M796.26,875.54c-4.38,7.52-10.44,13.42-5.85,22.64C805,893.31,807,886.47,796.26,875.54Z"/><path class="cls-1" d="M371,308.09c-16.52-14.16-36.14-21.82-56.76-27.87C330.37,295.36,349.06,305.39,371,308.09Z"/><path class="cls-1" d="M385.42,381.45c-18.79-3.69-37.8-9.23-60.13,7.91Z"/><path class="cls-1" d="M472.45,369.31c-16.58-13.26-31.73-24.12-50.27-32.06C424.72,371.67,433,377.12,472.45,369.31Z"/><path class="cls-1" d="M219.66,467.62c-6.23,5.46-3.72,10.19-.24,15.77,20.25,32.5,40.16,65.21,60.47,97.67,4.71,7.52,10.87,15.3,21.13,10.17C349.47,567,405.27,559.55,451.2,531.8c55-33.27,59.65-44.29,19.71-96.52-9.92-13-23.53-23.13-35.38-34.64-4.62-4.5-9.78-7.19-16.49-6.21-36.85,6.41-73.48,15.48-110.61,18.51C268.2,416.23,246.11,444.41,219.66,467.62Z"/><path class="cls-1" d="M440.58,324c7.73,9,18,12.15,29.12,14.82C455.22,324.12,455.22,324.12,440.58,324Z"/><path class="cls-1" d="M632.63,935.34c-10.25-9.55-21.41-10.3-33-5.56C610.73,931.78,620.33,940.34,632.63,935.34Z"/><path class="cls-1" d="M512.16,949.6c34,12.41,61,10.17,88.2-3C572.87,936.78,545.2,931.39,512.16,949.6Z"/><path class="cls-1" d="M125.85,248.05C114,244.61,108.7,257.32,104,266.11c-6.2,11.54-9.62,24.27-5.77,37.36,2.63,9,5.72,20.64,16.18,21.23,12.54.7,12-12.29,14-21,2.31-10,3.47-20.3,5-29.35C132.49,264.11,136.58,251.16,125.85,248.05Z"/><path class="cls-1" d="M969.15,531c-4,10.63,1.86,19,8.32,29.33.17-14.88,18.75-12.3,19.12-18.92C998.13,513.74,977.66,536.89,969.15,531Z"/><path class="cls-1" d="M931.35,424.14c4.77,27.1,16.21,53.12,25.76,79.26,3.11,8.52,12.09,9.88,20.07,8.25,9-1.84,9.27-9,8.13-13.79-3.22-29.54-5.74-56.37-9.26-83.06-1.24-9.39-1.09-27-14.3-21.35C949.65,398.66,928.43,407.53,931.35,424.14Z"/><path class="cls-1" d="M198,681c-3.07,2.84-7.82,5.71-5.89,10.45,3,7.42,10.62,5.7,15.91,4.54,31.25-6.79,62.89-10,99.45-10.77C273.88,653.26,228.24,653,198,681Z"/><path class="cls-1" d="M503,334c-.94,5-4.51,11.41.94,14,3.55,1.69,10.7-.4,14.34-3.23,22.44-17.42,26.35-42.42,28.64-71.64C520,287.56,507.82,308,503,334Z"/><path class="cls-1" d="M358.86,686c8.37,1.69,17.42,1.28,26,.33,35.78-3.94,63.7-19.29,79.68-57.16-25.94-1.25-48.86.66-71.88,3.64-14.67,1.9-29.53,2.44-42.93,9.53-14.08,7.44-19.94,20-17,34.89C335.78,692.9,349.87,684.12,358.86,686Z"/><path class="cls-1" d="M505.82,608.25c24.19,2.5,28.8-1.92,24.66-26.47-1.09-6.47-3.2-12.78-5.37-21.22C511,570.25,505,583.46,498,595.87,492.9,604.84,496.52,607.29,505.82,608.25Z"/><path class="cls-1" d="M251.74,707.46l80.2,28.44C317.79,697.76,297.54,691.49,251.74,707.46Z"/><path class="cls-1" d="M354.2,617.91q48.23-3,96.32-7.69c7.72-.76,19.19,3.39,22-8.64s-2.09-22.61-11.29-30.34c-10.77-9.07-23.11-10.16-36.84-6.28-37.7,10.68-74.4,23.91-113.07,40.32C326.6,615.59,340.14,618.78,354.2,617.91Z"/><path class="cls-1" d="M502.25,648.41c10.44-5.87,20.29-12.78,37.09-23.57H497.82c-9.7,0-13.89,5.44-14.88,14.54-.55,5-4.61,11.17.59,14.53C490.71,658.55,496.57,651.61,502.25,648.41Z"/><path class="cls-1" d="M554.39,606.11c27.93-11.52,24.58-25.59-7.06-51.1C546.38,573,550.47,589.34,554.39,606.11Z"/><path class="cls-1" d="M589.7,484.07c-.25-29.07-11.44-44.13-32.49-43-7.68.39-16.34,1.24-18,11.06-1.27,7.67,31.69,50.63,38.42,50.39C589.79,502.06,590.86,493.61,589.7,484.07Z"/><path class="cls-1" d="M590,565.87c-1.39-24.1-11.1-33.13-32.33-36.42C566.4,544.45,574.09,555.23,590,565.87Z"/><path class="cls-1" d="M532.22,653.6c-8.15-1.88-43.9,21.56-41.69,26.06,8.53,17.37,25.37,24.74,42.58,25.45,18.32.76,4.24-16.11,10.16-23.45C537.54,672.53,549,657.47,532.22,653.6Z"/><path class="cls-1" d="M529.59,722.71c-35.52-4.19-67.11,2.94-92.38,30.27-13.42,14.52-22.37,26.64,5.22,36,15.4,5.24,29,15.4,44.09,22,29.57,12.88,48.64,2.42,54.23-29.31,1.5-8.47,1.14-17.27,1.82-29.11C534.52,746.05,555.08,725.72,529.59,722.71Z"/><path class="cls-1" d="M646.76,702.85c-.86-18.72-10.28-34.18-23.37-52.74-5.87,19.91-7.57,36.13-9.19,52.49-1.45,14.6,6.93,18.39,18.1,19.47C646.69,723.47,647.19,712.08,646.76,702.85Z"/><path class="cls-1" d="M583.48,854.49c-1.09,1.34-2.91,3.15-2.65,4.36,4.45,20.29,22.59,23.43,37.72,24.66,14.43,1.17,39.24,14.9,42.35-11.31,4.65-39.33,1-79.36-9.71-119.84C629.32,787.39,609.3,822.85,583.48,854.49Z"/><path class="cls-1" d="M622.17,961.07c-13,1-26,1.81-39,2.92-49.33,4.24-98,12.09-151.69,27.39,49.67,17.62,93.46,34.3,141.91,29.5,26.94-2.67,51.68-8.52,65.5-35,3.9-7.46,11.79-15.94,5.68-23.7C639.78,956.1,629.86,960.46,622.17,961.07Z"/><path class="cls-1" d="M651.48,594.28c15.59-8.81,23.7-15.17,30.6-29.57C667.81,571.66,660.89,579.22,651.48,594.28Z"/><path class="cls-1" d="M762.21,864.56A191,191,0,0,0,683,902.46C678.61,906,676,911.7,680.65,916c3.45,3.17,9.22,4.61,14.14,5.18,5.55.65,7-3.06,5.67-8.39-1.28-4.94-3.05-11.5,2.89-13.68,6.76-2.48,12.18,3.58,14.56,8.55,8.63,18,21,12.49,34.86,8,19.54-6.26,21.06-23.24,26.3-38.63C783.26,864.76,776.56,863.75,762.21,864.56Z"/><path class="cls-1" d="M679.84,820.6c0,15.62,0,31.24,0,46.86,0,6.16-.59,12.09,9.19,11.65,24.74-1.11,72.06-39.89,77.4-64.21,6-27.39-7.43-49.29-32.9-48.9-18.62.28-42.26-17-53.45-1.34-9,12.64-1.83,36.86-1.83,56Z"/><path class="cls-1" d="M381.52,971.13c17.74,9.06,34.67,17.6,54.87.26C415.28,959.94,401.37,959.94,381.52,971.13Z"/><path class="cls-1" d="M352.67,801.22c-1.93-8.42-5.41-16.52-7-25-3.34-17.79-9.39-22.58-27.31-12.15-41.58,24.2-84.51,46.08-126.91,68.89,3.62,3.58,6.92,7.56,10.91,10.65,27.2,21.12,60.32,17.28,91.53,21.21C337,870.25,362.23,842.77,352.67,801.22Z"/><path class="cls-1" d="M191.23,833l-.27.24h0l.49-.26-.08-.09Z"/><path class="cls-1" d="M340.54,970.08C353.6,994,370.27,990.14,395,985.85,374.22,976.75,361.33,967.94,340.54,970.08Z"/><path class="cls-1" d="M358.17,899.76c2.11-24.88-22.67-10.75-30.53-19.3-16.38-.29-42.43,17.51-39.41,26.76,7.54,23.1,29.89,22,47.88,23.88C357.9,933.4,357.08,912.69,358.17,899.76Z"/><path class="cls-1" d="M767.12,938.35l36.68-30C783.88,907.39,773.36,917.06,767.12,938.35Z"/><path class="cls-1" d="M229.89,901.91c14.24,13.28,30,15.89,52.16,19.2C264.59,904.61,250,898.64,229.89,901.91Z"/><path class="cls-1" d="M991.83,641.45c5.66-13.72,13.67-27.14,7.1-45.59C983.25,611.79,986.11,626.54,991.83,641.45Z"/><path class="cls-1" d="M973.54,677.41c12.23-15.88,8.63-27.24,6-43.2C970.63,648.73,970.27,659.78,973.54,677.41Z"/><path class="cls-1" d="M950.39,728c14.34-7.49,24.15-17.5,21.72-34.49Z"/><path class="cls-1" d="M817.51,748.6c14.72.59,27.15-4.43,37.15-15.13,7.2-7.7,2.31-14.55-2.6-20.67-14-17.46-28.34-34.66-47.21-57.64-4.54,30.62-1.15,53.53,1.19,76.33C806.75,738.36,805.82,748.13,817.51,748.6Z"/><path class="cls-1" d="M861.11,697.51l5.37-1.1c-2.5-22-4.58-44.14-7.81-66.07-.85-5.8.42-15.87-9.92-15.09-11.49.87-21.25,6.52-29,15.4-5.5,6.33-1.34,10.85,2.38,15.71Q841.69,671.88,861.11,697.51Z"/><path class="cls-1" d="M920.22,785.74c12.37-6.77,20.55-16.91,29-31.62C927.46,758.18,924,772.12,920.22,785.74Z"/><path class="cls-1" d="M860.4,771.91c-21.64-1.84-36.56-12.88-50.47-.3-3.86,3.49,3.58,8.29,7.43,11.6C833.21,796.83,843.34,785.41,860.4,771.91Z"/><path class="cls-1" d="M851.88,826.93c-9.1-3.65-17-9.08-23.51,3.75-7.56,14.8-13,29.54-7.17,47.66,18-5.13,26.46-18.85,34.35-33.14C859.44,838.14,863.5,831.59,851.88,826.93Z"/><path class="cls-1" d="M864.26,788.26c-5.73-.35-10.7,5.57-12.14,11.28-2.06,8.2,6.26,8.27,10.6,11.13,7.85.58,8.09-4.86,8-10S869,788.55,864.26,788.26Z"/><path class="cls-1" d="M891.13,784.22c-7.36-3.61-8.47,2.33-8.78,7.45-.29,4.72-2,11.05,4.28,12.84,5.93,1.71,8.56-3.77,11.21-8.27C899.29,790.27,895.6,786.42,891.13,784.22Z"/><path class="cls-1" d="M973,598.47c-2.11-9.79-5-13.14-15.68-8.33-22.31,10.1-46.19,15.37-70.44,18.63-11.39,1.53-17.91,6.34-15.24,19.06,7.26,26.67,2.54,55.89,16.55,81.27,7.95,14.4,15.72,23,29.51,3.77,16.77-23.36,34.86-45.79,47.58-71.73C971.79,627.85,976.33,613.93,973,598.47Z"/><path class="cls-1" d="M740.74,337.88c-3.41,28.51,5.13,39.41,33.84,37.09,14.56-1.17,29.45,1.86,44.19,3l0-1.37c13.06,0,26.2.93,39.15-.19,29.25-2.53,50.33-17.22,62.84-44.2,3.64-7.86,4.78-14.38-1.27-21.55-27.48-32.59-54-66.17-89.16-91.18-18.53-13.18-39.39-17-61.94-15.76-15.15.81-21.26,6.6-21.67,22.17C745.79,263.26,745.18,300.83,740.74,337.88Z"/><path class="cls-1" d="M794.69,160.88c-6.08-12-14.65-20-32.72-22.89C772.06,152.45,783.43,156.56,794.69,160.88Z"/><path class="cls-1" d="M752.36,148.36V190.2C774.2,175.58,770,164,752.36,148.36Z"/><path class="cls-1" d="M745.7,87.14c3-.34,6.89-4,4.16-7.76-8.5-11.56-21.6-13.27-34.62-14.53-1.32-.13-2.81,1.52-6.66,3.76C718.6,80.84,729.54,88.93,745.7,87.14Z"/><path class="cls-1" d="M645.63,57.21c28.58,17.3,54.69,38.17,83.41,55.34C713.79,74.92,681.19,63.81,645.63,57.21Z"/><path class="cls-1" d="M929.57,370.12c6.42,6.92,18.8,6.18,23.17-1.24,9.75-16.59-6.64-23.41-17.17-35.77C931.31,347.12,917.22,356.8,929.57,370.12Z"/><path class="cls-1" d="M875.53,592.54c5-.59,7.6-.63,10.11-1.24,17.67-4.26,35.49-8,52.94-13.13,28-8.15,31.79-19.33,17.26-44.18-5.5-9.43-17.71-7.68-23-15.83-9.39-14.6,18-5.68,12.33-18.57-1-2.34-1.05-5.1-1.87-7.56-6.07-18.06-12.82-35.91-18.14-54.19-3.81-13.1-10-13.16-21-8a540.92,540.92,0,0,1-50.52,20.5c-9.58,3.39-15.25,7.39-12.08,18.59,10.15,35.93,15.65,72.78,21.6,109.54C864.54,586.32,866.73,594.32,875.53,592.54Z"/><path class="cls-1" d="M911.68,403.51c-14.57,1.57-26.14,7.69-35.06,18.09C890.19,418.69,902.91,414.44,911.68,403.51Z"/><path class="cls-1" d="M854,202.1c23.49,27.68,47.41,55,74.5,86.25-9.43-42-33.88-70.88-52.64-102.61-6.54-11.06-16.84-6.89-25.12-1.65C838.44,191.86,849.83,197.21,854,202.1Z"/><path class="cls-1" d="M593.47,41c-15.05-10.88-29.13-16.42-47.6-23.11C563.66,43,563.66,43,593.47,41Z"/><path class="cls-1" d="M879.43,243.71c-6.51-10.54-18.22-21.33-32.71-29.78Z"/><path class="cls-1" d="M106.09,670.67c0,10.36-3.42,25.16,13.74,25.45,13.49.23,23.17-4.83,26.7-21.59,7.36-34.93-.35-68.63-5.28-102.95C122.37,602.58,106.24,634,106.09,670.67Z"/><path class="cls-1" d="M172.24,498.35c20.79-25.92,19.82-36-4.38-59.72-11.58-11.38-17.15-8.79-19.92,6.37-4.59,25.05,3.25,49.44,1.83,81.59C160.5,513.11,166.34,505.71,172.24,498.35Z"/><path class="cls-1" d="M198.53,652.52a343.48,343.48,0,0,1,51.93-34.71c15.11-8.18,17.4-18.14,10.51-31.87-17.15-34.12-38.16-65.82-59.94-97.49-48,45.86-59.6,96.68-35.85,154.17C171.94,659,181,666.66,198.53,652.52Z"/><path class="cls-1" d="M578.45,137.08c7.46-9.82,7.46-21.19,25.41-27.84-16.27,39.9-3.45,70.11,17.4,99.31,7.31,10.23,13,14.24,25.24,10.36,20.72-6.6,41.91-11.65,62.75-17.86,9.87-2.94,26.64.8,25.12-16-1.81-20,14.54-42.63-9.46-60.07-33.83-24.59-67.84-48.79-103.75-70.3-11.14-6.67-22.24-7.2-33.74-4.67-3,8.64,10.43,9.21,7,17.75a27,27,0,0,1-19.57-6.4c-9.23-7.63-18-10.29-27.32-.45-9.16,9.65-5.57,19.07.39,28.44C557.59,104.56,567.31,119.69,578.45,137.08Z"/><path class="cls-1" d="M191.37,832.88h-.06l-.35.36.27-.24Z"/><path class="cls-1" d="M317,748.48A463.82,463.82,0,0,0,208.81,714c-23.87-4.5-38.6,10.35-40,35-.94,16.48-.81,33.15-3.43,49.37-3.49,21.58,3.76,33.18,25.93,34.53C226.45,796.59,275.06,780,317,748.48Z"/><path class="cls-1" d="M219.81,446.47c14.4-10.67,14.35-32,32.44-37.84,23.27-7.47,40.45-23.52,56.77-40.41,22.77-23.56,22.38-47.75-3.95-66.58-40.4-28.88-83.86-52.72-130.72-70.21-14.32-5.35-18.71,1-22.49,12.13-6.51,19.26-7.68,39.17-7.66,52.58-.81,60.43,12,95.94,48.09,146.84C201.65,456.18,206.24,456.51,219.81,446.47Z"/><path class="cls-1" d="M435,55.17c10.28-4.43,21.54-6.63,31.69-11.3,9.05-4.16,22.88-9.24,18.34-21C480,10,465.35,11.18,453.2,14.17c-7.85,1.93-13.11,7.89-18.21,14a49.66,49.66,0,0,1-9.51,7.67c-12-14.17-8.46.12-9.35,3.71C413.82,57.06,419.66,61.77,435,55.17Z"/><path class="cls-1" d="M261.29,235.32c47,10.09,88.43,35.42,130.14,58.84,31.45,17.65,47.26,9,50.77-28.32,1.14-12,.71-24.18-2.59-36.22-13.07-47.72-30.17-94.38-38.81-143.24-2.88-16.32-12.1-8.32-18.92-6.17-48.24,15.2-94.6,34.72-137.75,61.44-28.31,17.53-54.22,37.55-73.82,67.8,5.76,2.57,8.88,4,12,5.36C207.56,226,234.54,229.58,261.29,235.32Z"/><path class="cls-1" d="M431.46,65.83C423.9,68,416.44,69.14,419,81c9.78,45.91,16.9,92.58,37.81,135.28,15,30.62,36.25,42.67,66.43,40.71,22.16-1.45,34-7.71,25.12-33.67-6.69-19.57-8.64-40.75-12.75-61.2-1.69-8.4-5-17,4.16-24.74,15.56,14.49,11.34,37.55,24.29,55.44,12-23.58,5.84-42-8.21-59.65-6.47-8.12-11-17.72-16.73-26.48C512.92,66.36,477.29,52.87,431.46,65.83Z"/><path class="cls-2" d="M132.77,153.76l0,.11c9.39-25.12,27.93-44.65,42.11-66.94-22.28,13.49-36.95,33-47.74,55.76h0C131.85,145,131.57,149.74,132.77,153.76Z"/><path class="cls-2" d="M235.8,51.33c23.74-3.89,48.38-3.59,70.59-14.7C282,37.54,257.4,37.36,235.8,51.33Z"/><path class="cls-2" d="M42.72,775.34a19,19,0,0,0-3.91-.38s0,.06,0,.08c1.16,22.17,15,37.66,24.4,55.47l6.12-3.1L42.77,775.35Z"/><path class="cls-2" d="M1019.48,488.35c-1-58.33-30.11-109.93-36.85-166.69l0,0c-6.8-23-16.08-44.89-30.63-64.22v.1l0-.1c-33.5-30.45-52.5-72-79.3-109.18-18.67,30.14-37.1,32.85-59.38,10.93C801.55,147.59,790,135.67,779.49,123c-7-8.44-16.56-17.78-12.66-29.75s18.12,0,30-8.75c-65.83-27-133-39.18-191.63-73.7,7.06,13.51,23.93,12.58,31.31,25.45-10.2,9.44-19.85,5.59-28.64-.66C590.77,23.42,564.85,25,555,1.7c-38.8,4.33-77.59-5.88-116.46.4-29.61,4.79-39.37,13.32-40.22,44.22-.42,15.36-6.37,20.77-20,24.83a554.89,554.89,0,0,0-119.66,51.31c-20.33,11.73-40.38,24-61.09,35-6.09,3.23-15.83,12.3-19.55-3.56l0-.11c-1.2-4-.93-8.79-5.6-11.07h-.05c-5,9.16-10.39,18.13-14.93,27.51-9.4,19.46-19.72,35-46.11,33.23-14.32-1-28.8,6.91-37.64,26.38,18-9.83,33.15-13.05,51.63-7.67-11,17-21.78,30.34-36.72,39.7-5.33,3.35-11.75,9.61-17.46-.29-2.91-5.06-5.57-12.7-13.26-7.94-7.51,4.63-9.43,12.58-5.1,20.63,7.34,13.65,4.18,27.08-.18,40.45C46.94,332,40.86,349.22,35,366.47c-.11.26-.2.5-.29.75C5.81,429-4.76,493.83,1.94,561.62,3,496,16.42,432.87,39.85,371.73l0,0c5.13-9,9.45-18.65,15.55-27,17.3-23.61,31.94-23.38,48.44.72,10.84,15.84,19.35,32.82,21.7,52.4q7,58.1,14.68,116.1c2.48,18.67-1.44,35-9.9,52.3C98.13,631.88,84,702,84,775L84,775V775a18.89,18.89,0,0,1,3.9.38c1.68-7.05-2.36-15.05,2.86-21.39,8-.24,5.42,11.46,13.36,12.16.47-42,3.22-47,29.54-51.94-16.4,32.18-24.77,64.65-14.56,102.38,18.39-26.1,11.37-59.15,37-82.4,8.88,27.92,5,53,4.81,77.72-6.22,17.11.34,28.59,16,35.77a50.8,50.8,0,0,1,19.26,15.87l1.1,0c2.62,0,5.31-.46,7.83,0,15.13,2.69,34.27,10.32,30.53,24.64-4,15.15-22.68,3.15-34.71,1.24-10.2-1.62-20.05-5.4-30.05-8.23-1.5-5.52-12.46-7.75-5.63-16.18h.41a10.93,10.93,0,0,1-.4-2.32c-5.35-.66-10.65-1.25-9.1,7-6.1,14.75,5.94,22.8,13.32,30.93C204.42,939.05,250,963,293.84,989.25v0c26.12,14.07,52.61,26.9,83.51,26.15-.91-9.46-16.56-7.55-14-19.12,33.53-3.49,66.23-2.83,96.77,12.9,15.73,8.11,38.25,2.64,47.48,23.7,60.12-5.44,129.17,10.31,159-67,3.19-8.25,10.36-9.13,17.4-7,8.14,2.5,17.59,5.62,20.42,14.14,4.56,13.74,4.34,15.5,15.08,9.92,35-18.15,71.43-34,100.68-61.54.14-.39.3-.77.46-1.16-.67.38-1.33.76-2,1.16-4.8-13.53,2.54-20.8,13-27.56,9.38-6.06,8.45,5.89,13.63,6.58v0c.51,0,1,0,1.53,0,18-18.77,37.3-36.51,53.86-56.5C986.11,740.88,1021.74,621.09,1019.48,488.35Zm-886.14-214c-1.48,9.05-2.64,19.33-5,29.35-2,8.67-1.47,21.66-14,21-10.46-.59-13.55-12.27-16.18-21.23-3.85-13.09-.43-25.82,5.77-37.36,4.73-8.79,10-21.5,21.88-18.06C136.58,251.16,132.49,264.11,133.34,274.39Zm863.25,267c-.37,6.62-19,4-19.12,18.92-6.46-10.36-12.33-18.7-8.32-29.33C977.66,536.89,998.13,513.74,996.59,541.36ZM976.05,414.8c3.52,26.69,6,53.52,9.26,83.06,1.14,4.74.86,11.95-8.13,13.79-8,1.63-17,.27-20.07-8.25-9.55-26.14-21-52.16-25.76-79.26-2.92-16.61,18.3-25.48,30.4-30.69C975,387.76,974.81,405.41,976.05,414.8ZM600.36,946.57c-27.16,13.2-54.21,15.44-88.2,3C545.2,931.39,572.87,936.78,600.36,946.57Zm-.73-16.79c11.59-4.74,22.75-4,33,5.56C620.33,940.34,610.73,931.78,599.63,929.78ZM385.42,381.45l-60.13,7.91C347.62,372.22,366.63,377.76,385.42,381.45ZM314.27,280.22c20.62,6,40.24,13.71,56.76,27.87C349.06,305.39,330.37,295.36,314.27,280.22ZM419,394.43c6.71-1,11.87,1.71,16.49,6.21,11.85,11.51,25.46,21.66,35.38,34.64,39.94,52.23,35.33,63.25-19.71,96.52C405.27,559.55,349.47,567,301,591.23c-10.26,5.13-16.42-2.65-21.13-10.17-20.31-32.46-40.22-65.17-60.47-97.67-3.48-5.58-6-10.31.24-15.77,26.45-23.21,48.54-51.39,88.77-54.68C345.56,409.91,382.19,400.84,419,394.43Zm53.41-25.12c-39.45,7.81-47.73,2.36-50.27-32.06C440.72,345.19,455.87,356.05,472.45,369.31ZM440.58,324c14.64.08,14.64.08,29.12,14.82C458.6,336.19,448.31,333,440.58,324ZM557.65,529.45c21.23,3.29,30.94,12.32,32.33,36.42C574.09,555.23,566.4,544.45,557.65,529.45Zm-3.26,76.66c-3.92-16.77-8-33.14-7.06-51.1C579,580.52,582.32,594.59,554.39,606.11Zm23.29-103.63c-6.73.24-39.69-42.72-38.42-50.39,1.61-9.82,10.27-10.67,18-11.06,21-1.09,32.24,14,32.49,43C590.86,493.61,589.79,502.06,577.68,502.48ZM533.11,705.11c-17.21-.71-34.05-8.08-42.58-25.45-2.21-4.5,33.54-27.94,41.69-26.06,16.82,3.87,5.32,18.93,11,28.06C537.35,689,551.43,705.87,533.11,705.11Zm9.46,47.43c-.68,11.84-.32,20.64-1.82,29.11-5.59,31.73-24.66,42.19-54.23,29.31-15-6.55-28.69-16.71-44.09-22-27.59-9.39-18.64-21.51-5.22-36,25.27-27.33,56.86-34.46,92.38-30.27C555.08,725.72,534.52,746.05,542.57,752.54ZM482.94,639.38c1-9.1,5.18-14.53,14.88-14.54h41.52c-16.8,10.79-26.65,17.7-37.09,23.57-5.68,3.2-11.54,10.14-18.72,5.5C478.33,650.55,482.39,644.39,482.94,639.38Zm35.33-294.59c-3.64,2.83-10.79,4.92-14.34,3.23-5.45-2.61-1.88-9-.94-14,4.83-26,17-46.44,43.92-60.85C544.62,302.37,540.71,327.37,518.27,344.79Zm6.84,215.77c2.17,8.44,4.28,14.75,5.37,21.22,4.14,24.55-.47,29-24.66,26.47-9.3-1-12.92-3.41-7.86-12.38C505,583.46,511,570.25,525.11,560.56ZM307.46,685.23c-36.56.78-68.2,4-99.45,10.77-5.29,1.16-12.89,2.88-15.91-4.54-1.93-4.74,2.82-7.61,5.89-10.45C228.24,653,273.88,653.26,307.46,685.23Zm24.48,50.67-80.2-28.44C297.54,691.49,317.79,697.76,331.94,735.9ZM311.3,605.28C350,588.87,386.67,575.64,424.37,565c13.73-3.88,26.07-2.79,36.84,6.28,9.2,7.73,14.05,18.37,11.29,30.34s-14.26,7.88-22,8.64q-48.07,4.77-96.32,7.69C340.14,618.78,326.6,615.59,311.3,605.28Zm38.44,37c13.4-7.09,28.26-7.63,42.93-9.53,23-3,45.94-4.89,71.88-3.64-16,37.87-43.9,53.22-79.68,57.16-8.59,1-17.64,1.36-26-.33-9-1.83-23.08,6.95-26.15-8.77C329.8,662.27,335.66,649.73,349.74,642.29Zm39.06,65.47c-40.88,29.69-41.6,29.6-48.61-6.42C358,702.66,373.61,698.69,388.8,707.76ZM358.72,747c7.91-11.15,18.93-14.56,29-18.77,6.73-2.81,13.82-14.75,21.84-3.33s7.69,24.63.53,36.7c-8.15,13.74-16.28,1.54-23.79-1.26C377,756.84,368.28,751.69,358.72,747ZM336,871.27c3.83-8.63,12.48-11.29,21.2-17.59C362.11,879.16,362.11,879.16,336,871.27Zm38.42-59.42c-6.94-12.54-8.91-25.56-11.36-41.84C401.25,781.77,401.61,783.3,374.37,811.85Zm2.73,122.74c-17.62-3.13-1.29-16.83-2-25.6s.78-17.88,14.5-14.33c29.12,7.55,59.45,10.68,91.55,25C445.91,938.91,411.4,940.66,377.1,934.59Zm45.7,8.66c-19.19,17.54-36.62,2.11-54.73,0Zm55-40.72c-24.87-1.17-55.4-12.24-86.86-18.54-12.19-2.45-18.95-40.44-10.57-54.45.88-1.47,2.3-2.6,3.33-4,26.71-36.2,26.85-36.47,66.46-15,25.07,13.6,52.26,25.27,61.25,56.51C518.94,893.35,511.75,903.25,477.76,902.53Zm99,10.78c-10.35-.61-9.57-10.29-9.9-17.66-.22-5,.39-11.35,8.23-9.25,7.08,1.91,11.73,6.79,13.07,13.08C586.67,907.32,583,913.69,576.78,913.31Zm-11.25-72.68c-14.61-38-7-71.81-2.81-105.46,1.14-9.2,8.94-5.95,14.48-5.33,8.87,1,14,5.2,13.07,15.33A288,288,0,0,1,565.53,840.63Zm13.12-128.16c-7.78-.46-16-.5-16.85-11.62-.92-12.05-2.36-24.06-3.63-36.64,1.92-6.75-5.65-18.13,8.41-20.1,11.27-1.58,20.49,2.33,25.85,13,7.86,15.68,5.29,32,2.52,48.23C593.16,715.88,585.12,712.86,578.65,712.47ZM578,270.06c.43-19.94,19-13.52,28.74-19.78,10-6.39,17-3.52,22.44,7.71,15.82,32.74,32.35,65.13,49,97.44,7.11,13.76,2.15,17.17-10.32,15C619.75,366.25,576.9,317.89,578,270.06Zm-3.4-29.62c4.28-18.3,7.87-33.63,11.74-50.12C618.57,224.4,617.64,229.3,574.55,240.44ZM753.39,460.2c-4.8,1.77-6.75-3.92-7.38-8.41-.61-4.29-1.08-8.6-1.78-12.88-7.64-46.71-7.65-46.7,40-46.26,15.5,1.46,31.22,1.78,46.44,4.69,16.37,3.13,19.05,13.21,9.19,26.51C818.24,453,782.73,449.38,753.39,460.2Zm24.44,14.66c-7.07,6.78-12.3,16.75-24.06,14.64-.86-.16-2.16-3.15-1.76-4.31C756.37,472.33,769.17,478.52,777.83,474.86ZM755.12,568c-13.16-8-29.4-13.18-28.63-31.48.15-3.58,11.42-10.8,13.78-9.49C756.57,536.05,749.81,554.06,755.12,568Zm-13.51,31c-8.07,7.88-16.12,3-21.83-5.08-5.28-7.45-7-15.75-3.72-29.12,7.9,7.44,14,12.27,18.88,18C738.81,587.45,749.66,591.21,741.61,599.06ZM730.38,260.8c-1.71,23.79-3.39,52.5-6.08,81.11-.77,8.15-1.25,19-12.35,20.42-9.23,1.17-13.36-7.79-16.83-14.39-16.62-31.61-32.29-63.73-48.9-95.35-5.37-10.23-4.58-15.37,7.66-18.12,11.85-2.65,23.16-7.6,34.91-10.81C741.52,209.25,730.69,210.58,730.38,260.8Zm-101,193.67c-22.58-10.1-24.76-19.24-9.62-39.41a64.23,64.23,0,0,1,8.82-9.53c16.83-14.83,37.7-21.69,58.06-14.9,15.3,5.11,11.18,25.21,14.93,38.87,1.59,5.81,1.8,12,3.55,24.55,3.45,13.08-7,15.46-23,13.9C663.79,466.14,646.19,462,629.42,454.47Zm0,88C620.13,537.15,616.1,531,617.1,523c.44-3.49,5.16-4.18,8.25-2.39C633.91,525.51,631.13,533.17,629.42,542.5ZM608.21,750.9c1.11-6,1.73-11.93,11.17-8.6,8.08,2.85,12,5.93,7.17,14.54-7.81,14-15.38,28.17-23,42.27l-3.72-1.43C602.58,782.08,605.3,766.48,608.21,750.9Zm6-48.3c1.62-16.36,3.32-32.58,9.19-52.49,13.09,18.56,22.51,34,23.37,52.74.43,9.23-.07,20.62-14.46,19.22C621.13,721,612.75,717.2,614.2,702.6Zm34.57-174.06c11.85-4.65,21.65,4.72,37.75,12.25-16.44,5.37-26,15.93-36.93,6.54C644.7,543.13,643.9,530.45,648.77,528.54Zm45.6,184c10.37,2.39,17.93,8.77,26.36,22.48-13.05-1.18-22.32-1.65-31.47-3-5.83-.85-12.87-2.42-10.86-10.74C680.31,713.38,686.8,710.82,694.37,712.56Zm18.19-45.48c-5.83-8.94-20.48-17.51-4.18-30.08,14.39-11.09,28.88-21,46.6-6.58,14.15,11.56,20.84,27.67,24.93,44.78,3.83,16,6.52,32.31,9.36,46.69-2.58,8.79,4.76,19.05-6.61,21.94-9.68,2.46-18.47-.29-24.73-9.81C743.11,711.51,727.29,689.65,712.56,667.08Zm83.7,208.46c10.7,10.93,8.77,17.77-5.85,22.64C785.82,889,791.88,883.06,796.26,875.54ZM762.18,518.21c-.34-6.21,2.3-9.62,6.69-12.89,19.34-14.38,38.61-28.84,60-44.83,7.61,41.74,14.75,80.73,21.82,119.73,2.25,12.42-1.76,17.47-15.41,15.39C804.36,590.9,763.84,548.36,762.18,518.21Zm57.6,112.44c7.72-8.88,17.48-14.53,29-15.4,10.34-.78,9.07,9.29,9.92,15.09,3.23,21.93,5.31,44,7.81,66.07l-5.37,1.1q-19.47-25.59-39-51.15C818.44,641.5,814.28,637,819.78,630.65Zm43.48-52.2c-6-36.76-11.45-73.61-21.6-109.54-3.17-11.2,2.5-15.2,12.08-18.59a540.92,540.92,0,0,0,50.52-20.5c10.91-5.14,17.14-5.08,21,8,5.32,18.28,12.07,36.13,18.14,54.19.82,2.46.84,5.22,1.87,7.56,5.7,12.89-21.72,4-12.33,18.57,5.24,8.15,17.45,6.4,23,15.83,14.53,24.85,10.78,36-17.26,44.18-17.45,5.08-35.27,8.87-52.94,13.13-2.51.61-5.16.65-10.11,1.24C866.73,594.32,864.54,586.32,863.26,578.45ZM876.62,421.6c8.92-10.4,20.49-16.52,35.06-18.09C902.91,414.44,890.19,418.69,876.62,421.6Zm76.12-52.72c-4.37,7.42-16.75,8.16-23.17,1.24-12.35-13.32,1.74-23,6-37C946.1,345.47,962.49,352.29,952.74,368.88Zm-102-184.79c8.28-5.24,18.58-9.41,25.12,1.65,18.76,31.73,43.21,60.59,52.64,102.61-27.09-31.26-51-58.57-74.5-86.25C849.83,197.21,838.44,191.86,850.71,184.09Zm28.72,59.62-32.71-29.78C861.21,222.38,872.92,233.17,879.43,243.71Zm-84.74-82.83c-11.26-4.32-22.63-8.43-32.72-22.89C780,140.84,788.61,148.88,794.69,160.88Zm-42.33-12.52c17.65,15.62,21.84,27.22,0,41.84Zm16.07,55.35c22.55-1.21,43.41,2.58,61.94,15.76,35.2,25,61.68,58.59,89.16,91.18,6.05,7.17,4.91,13.69,1.27,21.55-12.51,27-33.59,41.67-62.84,44.2-13,1.12-26.09.19-39.15.19l0,1.37c-14.74-1.13-29.63-4.16-44.19-3-28.71,2.32-37.25-8.58-33.84-37.09,4.44-37.05,5-74.62,6-112C747.17,210.31,753.28,204.52,768.43,203.71ZM715.24,64.85c13,1.26,26.12,3,34.62,14.53,2.73,3.72-1.11,7.42-4.16,7.76-16.16,1.79-27.1-6.3-37.12-18.53C712.43,66.37,713.92,64.72,715.24,64.85Zm13.8,47.7c-28.72-17.17-54.83-38-83.41-55.34C681.19,63.81,713.79,74.92,729,112.55ZM593.47,41c-29.81,2-29.81,2-47.6-23.11C564.34,24.54,578.42,30.08,593.47,41ZM547.54,61c9.33-9.84,18.09-7.18,27.32.45a27,27,0,0,0,19.57,6.4c3.42-8.54-10-9.11-7-17.75,11.5-2.53,22.6-2,33.74,4.67,35.91,21.51,69.92,45.71,103.75,70.3,24,17.44,7.65,40.06,9.46,60.07,1.52,16.75-15.25,13-25.12,16-20.84,6.21-42,11.26-62.75,17.86-12.19,3.88-17.93-.13-25.24-10.36-20.85-29.2-33.67-59.41-17.4-99.31-18,6.65-18,18-25.41,27.84-11.14-17.39-20.86-32.52-30.52-47.68C542,80,538.38,70.61,547.54,61Zm-8.45,45.72c5.69,8.76,10.26,18.36,16.73,26.48,14,17.62,20.16,36.07,8.21,59.65-12.95-17.89-8.73-40.95-24.29-55.44-9.17,7.74-5.85,16.34-4.16,24.74,4.11,20.45,6.06,41.63,12.75,61.2,8.86,26-3,32.22-25.12,33.67-30.18,2-51.44-10.09-66.43-40.71C435.87,173.57,428.75,126.9,419,81c-2.53-11.85,4.93-13,12.49-15.16C477.29,52.87,512.92,66.36,539.09,106.68Zm-123-67.17c.89-3.59-2.68-17.88,9.35-3.71A49.66,49.66,0,0,0,435,28.13c5.1-6.07,10.36-12,18.21-14C465.35,11.18,480,10,485,22.85c4.54,11.78-9.29,16.86-18.34,21-10.15,4.67-21.41,6.87-31.69,11.3C419.66,61.77,413.82,57.06,416.13,39.51Zm-172,102.14c43.15-26.72,89.51-46.24,137.75-61.44,6.82-2.15,16-10.15,18.92,6.17,8.64,48.86,25.74,95.52,38.81,143.24,3.3,12,3.73,24.17,2.59,36.22-3.51,37.33-19.32,46-50.77,28.32-41.71-23.42-83.09-48.75-130.14-58.84-26.75-5.74-53.73-9.37-79-20.51-3.12-1.38-6.24-2.79-12-5.36C189.91,179.2,215.82,159.18,244.13,141.65ZM144.2,296.14c0-13.41,1.15-33.32,7.66-52.58,3.78-11.17,8.17-17.48,22.49-12.13,46.86,17.49,90.32,41.33,130.72,70.21,26.33,18.83,26.72,43,3.95,66.58-16.32,16.89-33.5,32.94-56.77,40.41-18.09,5.81-18,27.17-32.44,37.84-13.57,10-18.16,9.71-27.52-3.49C156.22,392.08,143.39,356.57,144.2,296.14Zm2.33,378.39c-3.53,16.76-13.21,21.82-26.7,21.59-17.16-.29-13.78-15.09-13.74-25.45.15-36.67,16.28-68.09,35.16-99.09C146.18,605.9,153.89,639.6,146.53,674.53ZM147.94,445c2.77-15.16,8.34-17.75,19.92-6.37,24.2,23.77,25.17,33.8,4.38,59.72-5.9,7.36-11.74,14.76-22.47,28.24C151.19,494.44,143.35,470.05,147.94,445ZM201,488.45c21.78,31.67,42.79,63.37,59.94,97.49,6.89,13.73,4.6,23.69-10.51,31.87a343.48,343.48,0,0,0-51.93,34.71c-17.53,14.14-26.59,6.44-33.35-9.9C141.43,585.13,153,534.31,201,488.45Zm1.33,355.17c-4-3.09-7.29-7.07-10.91-10.65l-.49.26h0l.35-.36c-22.17-1.35-29.42-13-25.93-34.53,2.62-16.22,2.49-32.89,3.43-49.37,1.4-24.61,16.13-39.46,40-35A463.82,463.82,0,0,1,317,748.48c-41.95,31.47-90.56,48.11-125.7,84.39h.06l.08.09c42.4-22.81,85.33-44.69,126.91-68.89,17.92-10.43,24-5.64,27.31,12.15,1.59,8.47,5.07,16.57,7,25,9.56,41.55-15.7,69-58.78,63.61C262.68,860.9,229.56,864.74,202.36,843.62Zm27.53,58.29c20.07-3.27,34.7,2.7,52.16,19.2C259.89,917.8,244.13,915.19,229.89,901.91ZM336.11,931.1c-18-1.91-40.34-.78-47.88-23.88-3-9.25,23-27.05,39.41-26.76,7.86,8.55,32.64-5.58,30.53,19.3C357.08,912.69,357.9,933.4,336.11,931.1Zm4.43,39c20.79-2.14,33.68,6.67,54.45,15.77C370.27,990.14,353.6,994,340.54,970.08Zm41,1c19.85-11.19,33.76-11.19,54.87.26C416.19,988.73,399.26,980.19,381.52,971.13ZM638.9,985.89c-13.82,26.47-38.56,32.32-65.5,35-48.45,4.8-92.24-11.88-141.91-29.5,53.69-15.3,102.36-23.15,151.69-27.39,13-1.11,26-1.88,39-2.92,7.69-.61,17.61-5,22.41,1.12C650.69,970,642.8,978.43,638.9,985.89Zm22-113.69c-3.11,26.21-27.92,12.48-42.35,11.31-15.13-1.23-33.27-4.37-37.72-24.66-.26-1.21,1.56-3,2.65-4.36,25.82-31.64,45.84-67.1,67.71-102.13C661.92,792.84,665.55,832.87,660.9,872.2Zm-9.42-277.92c9.41-15.06,16.33-22.62,30.6-29.57C675.18,579.11,667.07,585.47,651.48,594.28ZM680.1,764.66c11.19-15.65,34.83,1.62,53.45,1.34,25.47-.39,38.91,21.51,32.9,48.9-5.34,24.32-52.66,63.1-77.4,64.21-9.78.44-9.16-5.49-9.19-11.65-.06-15.62,0-31.24,0-46.86h-1.57C678.27,801.52,671.07,777.3,680.1,764.66Zm72.67,151c-13.88,4.44-26.23,10-34.86-8-2.38-5-7.8-11-14.56-8.55-5.94,2.18-4.17,8.74-2.89,13.68,1.37,5.33-.12,9-5.67,8.39-4.92-.57-10.69-2-14.14-5.18-4.61-4.25-2-10,2.32-13.49a191,191,0,0,1,79.24-37.9c14.35-.81,21,.2,16.86,12.47C773.83,892.42,772.31,909.4,752.77,915.66Zm14.35,22.69c6.24-21.29,16.76-31,36.68-30Zm37.73-283.19c18.87,23,33.21,40.18,47.21,57.64,4.91,6.12,9.8,13,2.6,20.67-10,10.7-22.43,15.72-37.15,15.13-11.69-.47-10.76-10.24-11.47-17.11C803.7,708.69,800.31,685.78,804.85,655.16Zm5.08,116.45c13.91-12.58,28.83-1.54,50.47.3-17.06,13.5-27.19,24.92-43,11.3C813.51,779.9,806.07,775.1,809.93,771.61Zm45.62,73.59c-7.89,14.29-16.33,28-34.35,33.14-5.87-18.12-.39-32.86,7.17-47.66,6.56-12.83,14.41-7.4,23.51-3.75C863.5,831.59,859.44,838.14,855.55,845.2Zm7.17-34.53c-4.34-2.86-12.66-2.93-10.6-11.13,1.44-5.71,6.41-11.63,12.14-11.28,4.72.29,6.46,7.19,6.51,12.42S870.57,811.25,862.72,810.67Zm35.12-14.43c-2.65,4.5-5.28,10-11.21,8.27-6.23-1.79-4.57-8.12-4.28-12.84.31-5.12,1.42-11.06,8.78-7.45C895.6,786.42,899.29,790.27,897.84,796.24Zm-9.65-87.14c-14-25.38-9.29-54.6-16.55-81.27-2.67-12.72,3.85-17.53,15.24-19.06,24.25-3.26,48.13-8.53,70.44-18.63,10.63-4.81,13.57-1.46,15.68,8.33,3.33,15.46-1.21,29.38-7.72,42.67-12.72,25.94-30.81,48.37-47.58,71.73C903.91,732.08,896.14,723.5,888.19,709.1Zm32,76.64c3.81-13.62,7.24-27.56,29-31.62C940.77,768.83,932.59,779,920.22,785.74ZM950.39,728l21.72-34.49C974.54,710.54,964.73,720.55,950.39,728Zm23.15-50.63c-3.27-17.63-2.91-28.68,6-43.2C982.17,650.17,985.77,661.53,973.54,677.41Zm18.29-36c-5.72-14.91-8.58-29.66,7.1-45.59C1005.5,614.31,997.49,627.73,991.83,641.45Z"/><path class="cls-2" d="M191.23,833l-.27.24h0Z"/><path class="cls-2" d="M191.37,832.88l-.14.11Z"/><path class="cls-3" d="M2171.56,582.72c0-65,.13-130-.06-195-.08-28.91-2-30.58-31-30.71-19.44-.08-38.88-.13-58.32,0-22.63.18-26.1,3.5-26.13,26.29q-.15,158.42,0,316.84c0,27.5-.71,55,.3,82.49.5,13.62-4.47,16.83-17.19,16.39-25.68-.88-51.47-1.23-77.11.09-16.57.86-22-3.23-21.88-21,.87-126.88.47-253.76.46-380.64,0-4.37.11-8.75,0-13.12-.73-24.25-3.49-27.13-27.28-27.3-20.7-.16-41.42-.63-62.08.23-24,1-28.23,5.45-28.25,29.53,0,71.25.43,142.49.56,213.74.11,60.62-.36,121.25.33,181.87.15,13.26-3.75,17.15-16.86,16.65-25.68-1-51.42-.56-77.12-.15-8.75.14-13-2.52-11.95-11.64a45.81,45.81,0,0,0,0-5.62q-.84-188.39-1.59-376.77c-.07-21.83,1.36-43.67,1.53-65.51.5-60.71,38.82-99.88,99.8-100.12q159.9-.65,319.81,0c22.43.08,44.92-2.34,67.3,3.53,43.93,11.51,69.52,41.67,71.1,87.06,1.29,36.79,2.25,73.61,2.35,110.41.29,113.13-.23,226.26.48,339.39.1,15.89-4.53,20.28-19.94,19.43a656.47,656.47,0,0,0-69.58,0c-14.1.72-18.09-3.46-17.93-17.62C2172,715.23,2171.57,649,2171.56,582.72Z"/><path class="cls-3" d="M2496.88,522.19c0,86.44-.32,172.88.32,259.31.11,13.8-3.25,18.22-17.51,17.69-30.53-1.12-61.13-.67-91.7-.16-10.51.18-15.51-1.65-15.48-14q.55-264.9.06-529.82c0-10.46,3.07-14.05,13.76-13.86,31.81.58,63.65.8,95.45-.09,12.79-.35,15.38,4.32,15.33,16C2496.69,345.58,2496.88,433.89,2496.88,522.19Z"/><path class="cls-3" d="M5818.13,518.66c0,87.17-.31,174.34.31,261.51.1,14.36-3.14,19.66-18.53,19-30.15-1.25-60.39-.74-90.58-.17-10.59.2-14.06-3.11-14-13.84q.41-267.15-.05-534.31c0-12.43,5.09-14.33,15.69-14.15,30.19.51,60.42.81,90.59-.12,13.25-.41,17,3.57,16.9,16.79C5817.86,341.81,5818.13,430.23,5818.13,518.66Z"/><path class="cls-3" d="M3987.74,234l-177-.06v-.22H3677.72v.18h-42.83a9.61,9.61,0,0,0-1.79-.17H3503.83a9.85,9.85,0,0,0-9.85,9.85v85.89a9.85,9.85,0,0,0,9.85,9.85h166.61a7.25,7.25,0,0,1,7.26,7.25c0,159.74,0,432.76,0,434.17.09,2,.37,9.11,3.44,13.3s8.78,4.7,12.5,5.14c3.45.4,15.88-.35,17.66-.46h82.24a39.26,39.26,0,0,0,7.4-.87c10.47-1,9.81-14.24,9.81-14.24v-437a7.26,7.26,0,0,1,7.27-7.27h169.69A7.27,7.27,0,0,0,3995,332V241.22A7.26,7.26,0,0,0,3987.74,234Z"/><path class="cls-3" d="M4673.76,235.53c108,0,190.68,0,298.72,0h8.73c-1.67,2.93-2.61,4.78-3.73,6.52a450.83,450.83,0,0,0-44.64,89.2c-1.93,5.28-4.4,6.79-9.83,6.78-88.22-.16-118.92-.12-207.14-.11h0c-25.27,0-46,17.26-48.45,42.64a211.52,211.52,0,0,0,1,45.47c2.3,18.88,16.52,30.68,37,31.23,37.91,1,75.87.67,113.78,1.8,18,.54,36.26,1.73,53.92,5.13C4919.5,473.1,4952,499.78,4967,545c19.17,57.8,19.82,116-3.57,172.82-16.33,39.66-47.84,64.07-87.69,78-6.91,2.41-14.7,3.17-22.08,3.2-73.72.22-147.44,0-221.15.27-8.85,0-14.21-5.82-20.2-10.19-31.09-22.65-53.1-52.39-66.86-88.26a23.64,23.64,0,0,1-.73-3.92h9c88,0,176-.13,263.93.15,12.11,0,20.59-4.51,27.61-14,11-14.89,17.56-31.06,16.6-49.78-.54-10.35-.76-20.82-2.49-31-2.94-17.37-13.57-28.82-30.71-32.78a163.81,163.81,0,0,0-33.65-4.29c-32.86-.57-65.75.27-98.6-.41-30.91-.65-60.92-5.59-88.53-21.15-18.85-10.63-32.46-25.73-41.94-44.7-19.93-39.89-25.78-82.33-20-126.15,2.32-17.56,5.69-35.54,12.24-51.86,17.92-44.63,53.13-70.5,98.28-83.83,5.43-1.6,11.48-1.46,17.25-1.47"/><path class="cls-3" d="M1679.05,236.26c-1.67,2.93-2.61,4.78-3.73,6.51a450.64,450.64,0,0,0-44.59,89.1c-1.93,5.28-4.39,6.78-9.82,6.77q-132.17-.24-264.35-.11c-13.6,0-14.45.84-14.45,14.25v95.6c0,11.95,1.37,13.37,13.2,13.37h241c-11.67,37.91-8.62,74.88,2.53,112.2H1355.2c-11.83,0-13.08,1.27-13.09,13.39q0,48.15,0,96.32c0,12,1.39,13.4,13.12,13.4q132.9,0,265.8-.06c4.16,0,7,.3,8.79,5.09a429.36,429.36,0,0,0,48.55,93.5,32.43,32.43,0,0,1,1.64,3.26c-2.91.13-5.21.32-7.52.32-109.12,0-218.24.16-327.36-.17a178.42,178.42,0,0,1-40.14-4.29c-43.4-10.23-66.26-40.46-75.94-82.11a132,132,0,0,1-3.17-29.41q-.33-165.12-.11-330.25c0-20.25,3.76-39.73,12.76-58.09,18.2-37.16,48.86-55.17,89.24-58.23,6.24-.48,12.54-.36,18.82-.36q161.87,0,323.73,0Z"/><path class="cls-3" d="M4041,518.93c0-60-1.18-120,.33-179.92,1.59-63.46,39.55-98.91,102.71-99q164.55-.27,329.1-.4c16.74,0,20.43,6,11.66,20.44-13,21.36-25.37,43-34.62,66.33-5.47,13.81-16.34,18.67-31.39,18.57-76.48-.48-153-.29-229.46-.18-27.55,0-28.86,1.67-29.12,28.48-.21,21.2-.72,42.4-1.38,63.59-.54,17.7,6.43,24.47,27.12,24.52,66.45.14,132.91,0,199.37.06,25.05,0,26.37,1,23.2,25-3.23,24.34-4.74,48.52,2.08,72.46,3.34,11.72-2.82,16.79-12.88,17.66-11.82,1-23.79.6-35.7.61-60.18,0-120.38.49-180.55-.29-16.76-.21-22.19,5.84-21.46,21.93,1,21.82.13,43.73.28,65.6.17,24.33,5.05,29.28,30.16,29.35,63.95.18,128.05,2.7,191.8-.87,42.29-2.37,71.8,5.81,83.17,50.56,2.66,10.48,10.73,19.62,16.39,29.33,12.65,21.68,9.92,26.27-16,26.33q-53.6.11-107.21,0c-70.84,0-141.69.5-212.53-.19-44-.42-79.52-16.53-97.42-59.74-5.78-13.94-7.61-28.83-7.58-44q.18-88.1.05-176.21Z"/><path class="cls-3" d="M2993.17,773.48c-36.07-64.25-71.53-128.84-108.05-192.84-8.1-14.2-4.29-20.14,9.11-26.95,39.4-20,61.37-53.43,71.12-95.93,5.84-25.44,4.08-51.08,3.12-76.5-3.46-92-59.82-143.6-151.24-142.63-73.93.79-147.88-.94-221.82-1.33-13.52-.07-18.61,1.55-17.52,8.11a33.66,33.66,0,0,0,3.19,8.59l33.47,89.93h17.83a56.1,56.1,0,0,0,9.64.6c51.4-.95,102.87,1.15,154.22-.75C2844,342,2854,367,2853,403.3c-.09,3.12-.48,6.22-.63,9.33-1.75,36-10.61,44.34-47.54,44.36q-68.66,0-137.31,0c-55.77.07-93.4,36.68-94.08,92.13-.46,37.49-.09,75-.09,112.49q0,55.3,0,110.61c0,26,.66,26.61,26,26.4q27.28-.23,54.55,0c23.4.2,27.5-3,27.78-26.45.74-61.17,2.89-122.37-1.17-183.51-.83-12.65,3.89-20.41,18-20,12.52.33,25.14,1.08,37.56,0,16.17-1.46,25.31,5.59,32.57,19.42,34.51,65.75,69.79,131.1,104.53,196.73,5.26,9.93,12.28,14.69,23.8,14.49,27-.47,53.91-.08,80.86-.17C3004.42,799,3005.88,796.12,2993.17,773.48Z"/><path class="cls-3" d="M5605.35,785.55c-5.3-17-11-33.91-16.64-50.81-13.09-39.45-25.63-79.07-38.61-118.55q-16.31-49.56-32-99.37c-2.95-9.31-4.36-19.21-9.05-28a28.75,28.75,0,0,1-2-4.61c-8.13-24.7-16.35-49.38-24.34-74.12q-26.51-82.06-52.71-164.21c-1.7-5.35-4.38-7.67-10.07-7.65q-65.27.21-130.52,0c-5.84,0-8.37,2.23-10,7.51q-11.91,38.65-24.33,77.16c-14,43.27-28.31,86.45-42.35,129.71-12.13,37.39-24,74.85-36.09,112.25q-20.54,63.6-41.22,127.16-14.88,45.87-29.71,91.76a28.59,28.59,0,0,0-1.35,6.79c-.34,4.88,1.11,4.95,9.21,4.95q121.11.06,242.23,0h13.9l.45-111.58h-14.66c-1.57-.18-3.36-.28-5.41-.33-1.77,0-3.54,0-5.32,0h-76.31c-11.27,0-12.41-1.15-8.16-11.23,6.27-14.88,10.48-30.48,15.2-45.78,7.33-23.75,15.55-47.21,22.83-71,11.15-36.42,23.2-72.58,34.89-108.84,5.66-17.57,11.48-35.09,17.14-52.67.81-2.51,1.06-6.61,4.89-6.27,3,.26,3.07,3.82,3.92,6.27,13.81,39.8,25.75,80.19,39,120.16,6.57,19.74,12.59,39.68,19,59.47q14.11,43.44,28.09,86.92c6.2,19.17,12.49,38.33,18.54,57.56,6,19,12.84,37.77,17.76,57.11a30.76,30.76,0,0,1,.7,4.26,26.93,26.93,0,0,0,2,6.72c5,12.77,5.06,12.51,18.83,12.82,31.33.72,62.56-2.95,93.9-1.89C5606.79,797.58,5608.29,795,5605.35,785.55Z"/><path class="cls-3" d="M3554.71,785.48c-5.33-17.1-11.08-34.08-16.72-51.06-13.16-39.63-25.76-79.45-38.8-119.12q-16.38-49.81-32.17-99.86c-3-9.35-4.37-19.3-9.09-28.1a28.62,28.62,0,0,1-2-4.63c-8.17-24.82-16.43-49.61-24.46-74.48q-26.62-82.46-53-165c-1.71-5.38-4.4-7.71-10.12-7.69q-65.58.21-131.16,0c-5.87,0-8.42,2.25-10.05,7.55q-12,38.83-24.45,77.53c-14.08,43.48-28.45,86.87-42.56,130.35-12.18,37.57-24.13,75.21-36.26,112.8q-20.64,63.91-41.43,127.77-14.94,46.11-29.85,92.22a28.85,28.85,0,0,0-1.36,6.82c-.33,4.9,1.12,5,9.26,5q121.71,0,243.41,0l1,0h13l.45-112.13h-14.73c-1.58-.17-3.38-.27-5.43-.33-1.78,0-3.57,0-5.35,0H3216.2c-11.33,0-12.48-1.15-8.21-11.28,6.31-15,10.54-30.63,15.28-46,7.36-23.87,15.63-47.45,22.94-71.33,11.21-36.6,23.31-72.93,35.06-109.37,5.69-17.66,11.54-35.27,17.23-52.93.81-2.52,1.06-6.64,4.91-6.3,3,.26,3.08,3.84,3.94,6.31,13.88,40,25.87,80.58,39.23,120.73,6.6,19.85,12.65,39.88,19.1,59.77q14.18,43.65,28.23,87.34c6.23,19.27,12.55,38.53,18.63,57.85,6,19.11,12.9,37.95,17.85,57.38a31.18,31.18,0,0,1,.7,4.29,27.3,27.3,0,0,0,2,6.75c5.06,12.83,5.08,12.56,18.92,12.88,31.48.72,62.87-3,94.36-1.9C3556.16,797.57,3557.67,795,3554.71,785.48Z"/></g></g></svg>