<svg xmlns="http://www.w3.org/2000/svg" viewBox="0 0 3130.14 1072.36"><defs><style>.cls-1{fill:#fff;}</style></defs><title>esco_white</title><g id="Layer_2" data-name="Layer 2"><g id="Layer_1-2" data-name="Layer 1"><path class="cls-1" d="M1695,256.2c-1.67,2.94-2.62,4.8-3.74,6.55a452.73,452.73,0,0,0-44.81,89.52c-1.94,5.31-4.41,6.83-9.86,6.82q-132.83-.25-265.64-.12c-13.68,0-14.53.84-14.53,14.32v96.07c0,12,1.38,13.43,13.27,13.43q116.44,0,232.89,0h9.26c-11.74,38.09-8.67,75.24,2.53,112.74H1369.58c-11.89,0-13.15,1.28-13.15,13.45q0,48.4,0,96.8c0,12.06,1.4,13.47,13.19,13.47q133.55,0,267.09-.06c4.19,0,7,.29,8.84,5.11a431.26,431.26,0,0,0,48.78,93.95,30.78,30.78,0,0,1,1.65,3.28c-2.92.13-5.24.32-7.55.32-109.65,0-219.31.17-329-.17a179,179,0,0,1-40.34-4.31c-43.62-10.28-66.59-40.66-76.31-82.51a132.62,132.62,0,0,1-3.19-29.55q-.31-165.93-.11-331.86c0-20.35,3.78-39.93,12.82-58.38,18.3-37.35,49.11-55.44,89.68-58.52,6.28-.48,12.61-.36,18.91-.36q162.66,0,325.32,0Z"/><path class="cls-1" d="M1829.26,256.22c108.44,0,191.39,0,299.83,0h8.77c-1.68,2.94-2.62,4.8-3.75,6.55a452.15,452.15,0,0,0-44.8,89.52c-1.94,5.31-4.42,6.83-9.87,6.82-88.55-.17-119.36-.12-207.91-.12h0c-25.37,0-46.17,17.32-48.63,42.8a211.83,211.83,0,0,0,1,45.64c2.32,18.95,16.59,30.79,37.1,31.35,38.06,1,76.15.67,114.2,1.8,18.09.54,36.4,1.74,54.12,5.15,46.56,9,79.21,35.75,94.25,81.13,19.24,58,19.89,116.42-3.58,173.45-16.39,39.81-48,64.31-88,78.25-6.93,2.42-14.75,3.19-22.16,3.21-74,.23-148,0-222,.27-8.87,0-14.25-5.83-20.27-10.22-31.2-22.74-53.29-52.58-67.11-88.59a23.9,23.9,0,0,1-.72-3.93h9c88.3,0,176.61-.13,264.91.15,12.15,0,20.66-4.53,27.71-14.07,11-15,17.63-31.18,16.66-50-.54-10.39-.76-20.89-2.49-31.11-3-17.44-13.63-28.94-30.83-32.91a163.68,163.68,0,0,0-33.77-4.3c-33-.58-66,.27-99-.42-31-.65-61.15-5.6-88.86-21.23-18.92-10.66-32.59-25.82-42.1-44.86-20-40-25.87-82.63-20.06-126.62,2.32-17.62,5.71-35.67,12.29-52.05,18-44.8,53.32-70.77,98.64-84.14,5.44-1.61,11.52-1.47,17.31-1.48"/><path class="cls-1" d="M2623.4,538.79c0-55.61-.34-111.23.15-166.84.24-28.2,7.38-54.59,25-77.45,16.19-21,37.91-32.2,63.63-36.12a168.55,168.55,0,0,1,25.42-1.64q141.29-.09,282.56.16c24.35.06,47.43,5.39,67.2,20.53,22.48,17.22,34.76,40.78,39.67,68.17a198.37,198.37,0,0,1,2.95,34.51q.32,161.51.07,323a141.35,141.35,0,0,1-10,53.26c-15.81,39.25-50.42,63.7-92.83,63.89-93.48.44-186.95.28-280.43.23a270,270,0,0,1-29-1.44c-46.64-5-79.62-34.3-89.89-80.55a183.46,183.46,0,0,1-4.34-37.87C2623.12,646.71,2623.39,592.75,2623.4,538.79Zm113.27-.9q0,84.5,0,169c0,10.34,1.54,11.93,12,12q127.44.42,254.88.77c11.29,0,13.31-2,13.31-13.09q0-167.92,0-335.86c0-10.78-1.47-12.28-12.34-12.32q-127.06-.42-254.13-.77c-11.79,0-13.69,1.87-13.69,13.43Q2736.66,454.47,2736.67,537.89Z"/><path class="cls-1" d="M2612,256.2c-8.13,14.41-16.2,27.2-22.78,40.73-8.66,17.83-16.52,36.08-23.93,54.48-2.22,5.5-4.86,6.84-10.29,6.83q-127.85-.21-255.67-.11c-16.85,0-17.05.22-17.05,17.06V704c0,13.51,1.09,14.61,14.41,14.61q128.9,0,257.8-.14c6,0,8.37,2,10.57,7.4,6.58,16.19,13.4,32.34,21.28,47.92s17.15,30.47,26.18,46.3c-1.8.16-3.73.49-5.66.49-108.66,0-217.32.24-326-.28-14.21-.06-29-2-42.49-6.41-38.63-12.74-58.44-42.39-66.48-80.7a168,168,0,0,1-3.08-33.83c-.22-107.47-.09-214.95-.15-322.43,0-28.31,5.62-55,22.09-78.6,18.38-26.35,44.58-38.57,75.79-41.44,6.35-.58,12.77-.65,19.16-.65q158.73-.06,317.46,0Z"/><path class="cls-1" d="M864.7,214.87h-32c-24,0-48.09.2-72.12-.17A32.14,32.14,0,0,1,746.28,211q-198.61-108.42-397,.09c-3.06,1.67-6.56,3.6-9.87,3.63-35.39.26-70.78.16-108.17.16,2.77-3,4.26-5,6.05-6.6,57.16-51.38,123.13-86.12,197.58-105.08A35.58,35.58,0,0,0,450,94.68c31.18-30,62-60.37,92.93-90.61,1.28-1.25,2.65-2.39,4.53-4.07,1.91,1.52,3.84,2.79,5.46,4.37,31,30.14,61.91,60.43,93.17,90.34a36,36,0,0,0,15.17,8.49c74.27,19.35,140.45,53.71,197.46,105.33C860.37,210,861.81,211.8,864.7,214.87Z"/><path class="cls-1" d="M863.72,859.49c-9.27,7.91-18.32,16.11-27.87,23.67-52.3,41.45-111.06,69.75-175.7,86.16a32.11,32.11,0,0,0-13.58,7.8c-31.42,30.17-62.54,60.64-93.78,91-1.45,1.42-3.1,2.64-5,4.24-2.09-1.78-3.95-3.2-5.62-4.83-30.73-30-61.33-60.19-92.31-90a35.58,35.58,0,0,0-15.19-8.45c-74.13-18.93-139.89-53.44-196.87-104.57-1.57-1.41-3.11-2.83-4.57-4.34-.33-.34-.27-1.07-.62-2.75h15.93c28.85,0,57.7-.17,86.55.17a32,32,0,0,1,14.32,3.76c132.4,72,264.67,72.39,397-.22,3-1.68,6.57-3.52,9.89-3.55,35.42-.25,70.84-.16,106.25-.16Z"/><path class="cls-1" d="M0,537.65c17.36-18.21,34.09-36.21,51.34-53.7,14.75-15,30.27-29.19,45.05-44.14a29.7,29.7,0,0,0,7.4-12.79c19-73.33,55.13-137.17,106.45-192.62,2-2.11,4.16-4,7.77-7.43v30.29c0,24,.19,48.08-.17,72.11a29,29,0,0,1-3.69,13.39q-109.92,193.5.09,386.85c1.71,3,3.58,6.53,3.6,9.82.27,34.55.17,69.09.17,105.41-2.9-2.46-4.93-3.88-6.58-5.64C159.67,783.72,123.28,719.71,104,646.12a32.94,32.94,0,0,0-8.34-14.23c-30-29.87-60.42-59.38-90.68-89C2.85,540.82.91,538.61,0,537.65Z"/><path class="cls-1" d="M879.77,231.23c5,5.41,10.12,10.71,15,16.25,46.74,53.59,79.86,114.4,97.39,183.53,1,4.05,3.83,8.12,6.86,11.11q45.16,44.67,90.77,88.92c2.34,2.28,5.23,4,7.87,6l1.2,3.93c-3.09,1.86-6.66,3.22-9.18,5.67q-45.27,43.92-90.14,88.26a31.07,31.07,0,0,0-7.76,13.56c-19.25,73.25-55.45,137-106.83,192.39-1.72,1.85-3.75,3.41-6.83,6.18-.28-3.21-.54-4.86-.54-6.5,0-32.45-.11-64.9.12-97.34a20.61,20.61,0,0,1,3-10c37.89-62.43,56.53-130,54.89-203.1-1.47-65.64-19.58-126.48-53.05-182.93a36.9,36.9,0,0,1-4.8-17.56c-.46-32.38-.22-64.78-.22-97.17Z"/><path class="cls-1" d="M242.75,543.11c1.94-95.1,36.77-170.86,105.63-229.63,112.62-96.13,277.77-98.79,393.94-6.56,80.36,63.81,119.15,148.27,113.15,250.58C847.75,689,753.43,799,624.73,829.2c-98,23-188.16,4.45-267.62-57.73C282,712.66,245.23,633.94,242.75,543.11ZM549.82,295.89c-6.33,15.78-11.55,29.86-17.57,43.59-20.86,47.6-54.67,85.83-89.08,123.81-16.26,17.94-32.57,36.58-44.8,57.29-36.74,62.25-33.91,168.5,71.75,209,54,20.68,109,20.17,162.76-1.41,46.16-18.55,77.24-51.58,86-101.93,7.88-45.39-1.47-87.59-29.76-124.23-16.68-21.59-35.36-41.67-53.6-62-34.63-38.61-63.79-80.52-80.63-130.11C553.46,305.71,551.89,301.61,549.82,295.89Z"/><path class="cls-1" d="M626.91,699.23c-13.64,3.65-27.08,8.52-40.95,10.7-39.19,6.16-77.24,2.49-112.91-16.54-27.74-14.8-46.16-37.17-53.82-67.69-8.5-33.93-2.79-66.14,13.69-96.66.21-.39,1-.43,2.9-1.15-.69,6.41-1.23,12.24-1.94,18-8.59,70.18,26.18,124.43,93.66,144.69,29.37,8.82,59.6,10.74,90.1,6.73,2.83-.38,5.67-.73,8.5-1.1C626.39,697.24,626.65,698.24,626.91,699.23Z"/></g></g></svg>