<svg xmlns="http://www.w3.org/2000/svg" viewBox="0 0 3132.36 1075.61"><defs><style>.cls-1{fill:#4498b6;}</style></defs><title>Asset 13</title><g id="Layer_2" data-name="Layer 2"><g id="Layer_1-2" data-name="Layer 1"><path class="cls-1" d="M11.67,606.51V461.94l-.89-1.89a8.59,8.59,0,0,1-2.61-.14l-.08,186c.19,0,.39-.06.59-.09Z"/><path class="cls-1" d="M366,1046.9,216.38,967.28,198,960.35a9.55,9.55,0,0,1-.71.84L364,1049.87A8,8,0,0,1,366,1046.9Z"/><path class="cls-1" d="M522.78,1067.3l-143.53-15.69a8.16,8.16,0,0,1-.32,3.57l156.35,17.09a7.89,7.89,0,0,1,0-1.37Z"/><path class="cls-1" d="M187.68,948.8,85.82,819.62,83.16,818a8,8,0,0,1-2.26,1.12L185,951.19A8,8,0,0,1,187.68,948.8Z"/><path class="cls-1" d="M75,801l-60.42-141a8,8,0,0,1-3.29,1.4L73.09,805.69a8.2,8.2,0,0,1,2.24-1.47Z"/><path class="cls-1" d="M314.58,57.17l24.88-19.11c-.08-.22-.17-.44-.23-.66L182.94,135.87a10.65,10.65,0,0,1,1.69,3.17Z"/><path class="cls-1" d="M85.09,260.26l88.57-111.39a10.89,10.89,0,0,1-2.4-1.37c-.19-.25-.32-.5-.49-.76L68.68,275.15c.32.1.65.24,1,.38Z"/><path class="cls-1" d="M56.48,314.12l5.22-24.73c-.24-.14-.47-.29-.7-.45L9.87,444.23a8.82,8.82,0,0,1,3.52.77Z"/><path class="cls-1" d="M504.86,11.49l1.82-1a8.11,8.11,0,0,1-.37-2.27c0-.19.05-.37.06-.55L354.18,32a8.66,8.66,0,0,1,.58,3.54Z"/><path class="cls-1" d="M522.12,7.07a6.85,6.85,0,0,1,.12,1.11,7.8,7.8,0,0,1-.25,1.87l1.48.74"/><path class="cls-1" d="M536.08,540.83a15,15,0,0,1-3.38,1.74"/><path class="cls-1" d="M395.71,335.52,297.4,213.65a9.67,9.67,0,0,1-2.82,2.21l98.3,121.83A11.11,11.11,0,0,1,395.71,335.52Z"/><path class="cls-1" d="M215.35,145.79a7.8,7.8,0,0,1-2.51,2.57l68.29,55.17a9.94,9.94,0,0,1,1.94-3Z"/><path class="cls-1" d="M200.82,139.88h-16a8.17,8.17,0,0,1,0,3.58h16A8.17,8.17,0,0,1,200.82,139.88Z"/><path class="cls-1" d="M416.45,354a12.17,12.17,0,0,1-3.27,1.88L518,520a14.92,14.92,0,0,1,3.24-2Z"/><path class="cls-1" d="M344.58,900.77v106.31a8.16,8.16,0,0,1,3.58,0V900.77a9,9,0,0,1-3.58,0Z"/><path class="cls-1" d="M21.11,473.58l-6.94-14.73a8.16,8.16,0,0,1-2.5,1.06v2l6.25,13.25A7.78,7.78,0,0,1,21.11,473.58Z"/><path class="cls-1" d="M349.55,1022.11l17,24.31a8,8,0,0,1,3.35-1.47l-17.52-25A8,8,0,0,1,349.55,1022.11Z"/><path class="cls-1" d="M130.87,525.91a9.67,9.67,0,0,1-3.36,1.22l73.23,182.28A9.86,9.86,0,0,1,204,708Z"/><path class="cls-1" d="M30.79,482.59a7.85,7.85,0,0,1-1.34,3.32l86.8,30.95a9.48,9.48,0,0,1,.91-3.48Z"/><path class="cls-1" d="M210.17,726.34,338.75,885.21a9.66,9.66,0,0,1,2.7-2.35L213.09,724.26A9.78,9.78,0,0,1,210.17,726.34Z"/><path class="cls-1" d="M77.55,287.62l-3.86-2.12a8,8,0,0,1-2,3l4.09,2.24,42.39,23.86a7.92,7.92,0,0,1,1.64-3.18Z"/><path class="cls-1" d="M517.72,851.15,415.08,731.83a11.37,11.37,0,0,1-2.54,2.5L515,853.48A9.94,9.94,0,0,1,517.72,851.15Z"/><path class="cls-1" d="M133.43,319.08a7.8,7.8,0,0,1-1.87,3.05l85.55,48.16a9.68,9.68,0,0,1,1.81-3.09Z"/><path class="cls-1" d="M176.67,883l11.17,65.72a7.86,7.86,0,0,1,3.48-.91L180.2,882.38A8.09,8.09,0,0,1,176.67,883Z"/><path class="cls-1" d="M17.39,656.18a7.89,7.89,0,0,1-1.86,3.06l43.09,26.6a7.84,7.84,0,0,1,1.6-3.21Z"/><path class="cls-1" d="M521.69,869.23l10.69,114.88a8.09,8.09,0,0,1,3.6,0L525.26,868.89a9.42,9.42,0,0,1-2.67.38C522.29,869.27,522,869.26,521.69,869.23Z"/><path class="cls-1" d="M304.09,547.07a11.28,11.28,0,0,1-2.76,2.34l98.19,166.47a11.07,11.07,0,0,1,3.2-1.56Z"/><path class="cls-1" d="M25.76,473.84l1-1.66L65.1,290.61c-.27,0-.54-.12-.82-.18l-7.8,23.69L22.9,473.38A8.59,8.59,0,0,1,25.76,473.84Z"/><path class="cls-1" d="M12.25,646,23.82,493.83l-1-4.59a8.84,8.84,0,0,1-2.18-.32l-9,117.59v39.4C11.86,646,12.05,646,12.25,646Z"/><path class="cls-1" d="M78.86,803.6,67.55,695.5v0a8.35,8.35,0,0,1-3.62-.26L75,801l1.24,2.88A7.88,7.88,0,0,1,78.86,803.6Z"/><path class="cls-1" d="M171.67,869.26,85.52,815.2A7.9,7.9,0,0,1,84,817.27l1.85,2.35,83.86,52.62A8,8,0,0,1,171.67,869.26Z"/><path class="cls-1" d="M339.4,1011l-2.49-2.06L199.36,957a7.41,7.41,0,0,1-.24,1.06l17.26,9.19,122.19,46.14A7.7,7.7,0,0,1,339.4,1011Z"/><path class="cls-1" d="M537.45,1001.45a7.47,7.47,0,0,1-3.53.69l6.68,67.67"/><path class="cls-1" d="M231.68,381.63a9.7,9.7,0,0,1-3.29,1.42l62.33,146.47a11.13,11.13,0,0,1,3.46-1Z"/><path class="cls-1" d="M536.25,1067.47l-180.93-52.29-1,.12a7.87,7.87,0,0,1-.84,3.07l169.3,48.93,12.91,1.42A7.81,7.81,0,0,1,536.25,1067.47Z"/><path class="cls-1" d="M297,200.39,404.45,75.76a12.09,12.09,0,0,1-1.14-.73,11.08,11.08,0,0,1-1.21-2l-108,125.35A9.84,9.84,0,0,1,297,200.39Z"/><path class="cls-1" d="M219.24,380.3l-88.9,128.59a9.91,9.91,0,0,1,2.83,2.19l89-128.7A9.86,9.86,0,0,1,219.24,380.3Z"/><path class="cls-1" d="M196.72,715,74.3,687.88a7.91,7.91,0,0,1-.92,3.46l123.05,27.21a8.77,8.77,0,0,1-.06-1A9.67,9.67,0,0,1,196.72,715Z"/><path class="cls-1" d="M287.15,216.48a9.61,9.61,0,0,1-3.18-1.72L227.83,364a9.79,9.79,0,0,1,3.32,1.2Z"/><path class="cls-1" d="M515.93,180a9.67,9.67,0,0,1-3.06,1.86"/><path class="cls-1" d="M69.48,680.3l55.19-153.12a9.55,9.55,0,0,1-3.35-1.08L67.64,674.85l1.15,5.2C69,680.12,69.25,680.22,69.48,680.3Z"/><path class="cls-1" d="M412.67,76.31l88.72,91.06a9.78,9.78,0,0,1,2.48-2.53L415.44,74A7.8,7.8,0,0,1,412.67,76.31Z"/><path class="cls-1" d="M403,64.15,354.39,37.38a7.91,7.91,0,0,1-1.8,3.1L401.4,67.35A8,8,0,0,1,403,64.15Z"/><path class="cls-1" d="M72.09,276.91a9.06,9.06,0,0,1,.49.77l129-127.75,1.13-2.43a10.6,10.6,0,0,1-1.35-2.37L85.09,260.26,71.93,276.81Z"/><path class="cls-1" d="M417.09,723.13a11,11,0,0,1,.19,2,11.73,11.73,0,0,1-.12,1.57"/><path class="cls-1" d="M394.88,723.07l-179.07-5.56h0a9.79,9.79,0,0,1-.66,3.52l179.64,5.61a12.63,12.63,0,0,1-.11-1.51A10.84,10.84,0,0,1,394.88,723.07Z"/><path class="cls-1" d="M214.4,135.84a13.23,13.23,0,0,1,.72,1.13l2.56-.92,123.71-95c-.14-.09-.27-.16-.4-.26s-.09-.15-.15-.22L314.58,57.17,213.14,135A12.71,12.71,0,0,1,214.4,135.84Z"/><path class="cls-1" d="M415,63.36a10.83,10.83,0,0,1,1.52,2.76l92-52.55a7.88,7.88,0,0,1-1.54-2.4l-2.05.32L414.56,63.1C414.7,63.2,414.84,63.26,415,63.36Z"/><path class="cls-1" d="M523.47,10.79l-1.66-.15a8.07,8.07,0,0,1-1.44,2.6"/><path class="cls-1" d="M541.54,527.25a12.32,12.32,0,0,1,.34,2.87c0,.24,0,.47,0,.71"/><path class="cls-1" d="M499.74,172.79c0-.12,0-.23,0-.34L299.23,203.87a9.86,9.86,0,0,1,.61,3.36c0,.06,0,.11,0,.17L500.29,176A9.69,9.69,0,0,1,499.74,172.79Z"/><path class="cls-1" d="M519.15,172.2c0,.19,0,.39,0,.59a9.65,9.65,0,0,1-.47,3"/><path class="cls-1" d="M306.81,539.75a10.55,10.55,0,0,1-.06,1.13l206.33-9.34a13.37,13.37,0,0,1-.08-1.42,11.91,11.91,0,0,1,.21-2.17l-206.69,9.38A10.21,10.21,0,0,1,306.81,539.75Z"/><path class="cls-1" d="M284.58,536.86l-148.94-19a9.81,9.81,0,0,1-.76,3.52l149.34,19c0-.21,0-.43,0-.65A11.07,11.07,0,0,1,284.58,536.86Z"/><path class="cls-1" d="M282.71,213.51a9.67,9.67,0,0,1-1.72-3L131.84,310.78a10.62,10.62,0,0,1,1.65,3.2Z"/><path class="cls-1" d="M127.72,508V324.25a8.17,8.17,0,0,1-3.58,0V508a9.51,9.51,0,0,1,3.58,0Z"/><path class="cls-1" d="M355.48,894.6a9.66,9.66,0,0,1-1.84,3.07l173,91.82a7.91,7.91,0,0,1,1.8-3.1Z"/><path class="cls-1" d="M540.19,986.23a10.48,10.48,0,0,1,1.62,3.22"/><path class="cls-1" d="M512.87,859.55v0L355.63,888.27a9.65,9.65,0,0,1,.46,3c0,.2,0,.4,0,.61L513.52,863A9.78,9.78,0,0,1,512.87,859.55Z"/><path class="cls-1" d="M532.28,859c0,.2,0,.4,0,.6a9.6,9.6,0,0,1-.46,3"/><path class="cls-1" d="M348.15,881.68a9.68,9.68,0,0,1,3.34,1.29l53.42-146.58a11.39,11.39,0,0,1-3.46-.9Z"/><path class="cls-1" d="M287.32,547.55,209.6,708.46a9.87,9.87,0,0,1,3.06,1.91l77.57-160.62A11.22,11.22,0,0,1,287.32,547.55Z"/><path class="cls-1" d="M206.79,727.2c-.23,0-.46,0-.7,0a9.77,9.77,0,0,1-2.82-.42l-26.55,140.3a8.62,8.62,0,0,1,3.52.63Z"/><path class="cls-1" d="M418.76,714.81a12.18,12.18,0,0,1,3.24,2l99-174.7a14.16,14.16,0,0,1-3.2-2Z"/><path class="cls-1" d="M336.91,889l-152-15.28a8.06,8.06,0,0,1-.23,3.58l152.06,15.28a10.71,10.71,0,0,1-.11-1.39A9.8,9.8,0,0,1,336.91,889Z"/><path class="cls-1" d="M514.9,164.73a9.7,9.7,0,0,1,2.54,2.53"/><path class="cls-1" d="M393.63,354,296.92,528.55a11.17,11.17,0,0,1,3.51,1.05l96.23-173.71A11.31,11.31,0,0,1,393.63,354Z"/><path class="cls-1" d="M531.17,517.2a14.7,14.7,0,0,1,3.59,1.39"/><path class="cls-1" d="M505.64,181.73a9.76,9.76,0,0,1-2.94-2l-97.79,155.1a11.16,11.16,0,0,1,3.13,1.74Z"/><path class="cls-1" d="M412,342.7a11.09,11.09,0,0,1,.36,2.78c0,.26,0,.52,0,.78"/><path class="cls-1" d="M131,310.2l74.86-161a10.56,10.56,0,0,1-2.36-1.17l-1.93,1.91L127.75,308.78A10.12,10.12,0,0,1,131,310.2Z"/><path class="cls-1" d="M390.11,348.26a11.09,11.09,0,0,1-.36-2.78c0-.27,0-.52,0-.78L235.3,370.05a9.79,9.79,0,0,1,.67,3.52Z"/><path class="cls-1" d="M416.75,66.88a8.26,8.26,0,0,1,.22,3.57"/><path class="cls-1" d="M65.89,679.69l1.75-4.84L26.31,488.53a8,8,0,0,1-2.13.62l-.36,4.68,41.25,186A7.37,7.37,0,0,1,65.89,679.69Z"/><path class="cls-1" d="M28.79,475.48s.05.09.09.13L123.54,324.1a10.47,10.47,0,0,1-3.2-1.61L26.8,472.18l-.41,1.93A10.66,10.66,0,0,1,28.79,475.48Z"/><path class="cls-1" d="M216.39,140.32,402.08,73a9,9,0,0,1-.86-3.41L217.68,136.05l-2.15,1.65A9.14,9.14,0,0,1,216.39,140.32Z"/><path class="cls-1" d="M526.76,850.78a9.74,9.74,0,0,1,2.89,2.11"/><path class="cls-1" d="M341.76,1008.33,184.31,878.41a7.81,7.81,0,0,1-2.22,2.81L336.91,1009l3,1.15A8.49,8.49,0,0,1,341.76,1008.33Z"/><path class="cls-1" d="M174.8,867.46,70.92,694.16a7.9,7.9,0,0,1-3.37,1.32v0L171.69,869.24A8,8,0,0,1,174.8,867.46Z"/><path class="cls-1" d="M526.31,991.07l-172.58,20.7a8.61,8.61,0,0,1,.57,3.12l1,.29L526.73,994.6A8.4,8.4,0,0,1,526.31,991.07Z"/><path class="cls-1" d="M542.05,990.55a7.9,7.9,0,0,1-.22,3.54"/><path class="cls-1" d="M514.28,16.14a7.89,7.89,0,0,0,6.09-2.9l-6-3-5.88,3.36A7.92,7.92,0,0,0,514.28,16.14Z"/><path class="cls-1" d="M514.22,6.14l.55.28,7.35.65a7.92,7.92,0,0,0-15.75.56l7.3-1.17Z"/><path class="cls-1" d="M514.34,10l7.47.66c.06-.2.13-.39.18-.59l-6.91-3.47-.31-.16-.34,0-.22,0-.54.09-7,4c.08.24.13.49.23.72Z"/><path class="cls-1" d="M351.76,892.62l3.72,2a9.76,9.76,0,0,0,.58-2.76Z"/><path class="cls-1" d="M341.45,882.86l4.32,5.34,2.38-6.52a9.43,9.43,0,0,0-1.78-.17A9.55,9.55,0,0,0,341.45,882.86Z"/><path class="cls-1" d="M336.76,892.62a9.71,9.71,0,0,0,7.82,8.15v-7.36Z"/><path class="cls-1" d="M348.16,900.77a9.69,9.69,0,0,0,5.48-3.1l-5.48-2.91Z"/><path class="cls-1" d="M351.49,883l-2.37,6.49,6.51-1.19A9.77,9.77,0,0,0,351.49,883Z"/><path class="cls-1" d="M336.91,889l5.37.54-3.53-4.37A9.67,9.67,0,0,0,336.91,889Z"/><polygon class="cls-1" points="345.85 893.53 348.16 894.76 348.16 892.1 347.58 893.71 345.85 893.53"/><polygon class="cls-1" points="345.77 888.2 345.17 889.87 342.28 889.58 343.08 890.57 347.1 889.83 345.77 888.2"/><polygon class="cls-1" points="344.58 893.41 345.85 893.53 344.58 892.86 344.58 893.41"/><polygon class="cls-1" points="343.08 890.57 340.98 890.95 344.58 892.86 344.58 892.42 343.08 890.57"/><polygon class="cls-1" points="348.16 891.15 348.16 892.1 349.13 889.46 347.1 889.83 348.16 891.15"/><path class="cls-1" d="M207.56,723.11l-.77,4.09a9.57,9.57,0,0,0,3.38-.86Z"/><path class="cls-1" d="M212.66,710.37l-3.35,6.93,6.5.21A9.66,9.66,0,0,0,212.66,710.37Z"/><path class="cls-1" d="M210.37,720.89l2.72,3.37a9.64,9.64,0,0,0,2.06-3.22Z"/><path class="cls-1" d="M196.43,718.55a9.72,9.72,0,0,0,6.84,8.27l1.23-6.49Z"/><path class="cls-1" d="M196.72,715l6.87,1.51-2.85-7.08A9.79,9.79,0,0,0,196.72,715Z"/><path class="cls-1" d="M206.09,707.8A10,10,0,0,0,204,708l2.63,6.53,2.93-6.09A9.73,9.73,0,0,0,206.09,707.8Z"/><polygon class="cls-1" points="205.52 716.92 203.59 716.5 204.7 719.26 204.9 718.2 205.52 716.92"/><polygon class="cls-1" points="208.23 719.54 207.99 720.82 210.37 720.89 208.62 718.73 208.23 719.54"/><polygon class="cls-1" points="205.52 716.92 206.9 717.23 207.75 717.25 206.67 714.55 205.52 716.92"/><polygon class="cls-1" points="206.46 720.77 205.49 720.55 207.56 723.11 207.99 720.82 206.46 720.77"/><polygon class="cls-1" points="204.7 719.26 204.5 720.33 205.49 720.55 204.96 719.89 204.7 719.26"/><polygon class="cls-1" points="207.75 717.25 208.08 718.06 208.62 718.73 209.31 717.3 207.75 717.25"/><path class="cls-1" d="M127.51,527.13,126,523.44l-1.35,3.74a10.52,10.52,0,0,0,1.26.09A10.31,10.31,0,0,0,127.51,527.13Z"/><path class="cls-1" d="M124.14,508a9.75,9.75,0,0,0-7,5.38l7,2.49Z"/><path class="cls-1" d="M127.72,508v4.67l2.62-3.78A9.77,9.77,0,0,0,127.72,508Z"/><path class="cls-1" d="M135.65,517.55a9.66,9.66,0,0,0-2.48-6.47L129.08,517l6.56.83C135.64,517.74,135.65,517.65,135.65,517.55Z"/><path class="cls-1" d="M116.25,516.86c0,.23,0,.46,0,.69a9.71,9.71,0,0,0,5.11,8.55l2.37-6.59Z"/><path class="cls-1" d="M134.88,521.36l-6.15-.79,2.14,5.34A9.75,9.75,0,0,0,134.88,521.36Z"/><polygon class="cls-1" points="123.69 519.51 124.14 519.67 124.14 518.27 123.69 519.51"/><polygon class="cls-1" points="124.66 520.05 126.02 523.44 127.13 520.37 124.66 520.05"/><polygon class="cls-1" points="125.24 516.26 124.14 515.87 124.14 518.27 124.46 517.39 125.24 516.26"/><polygon class="cls-1" points="127.54 519.24 127.13 520.37 128.73 520.57 127.95 518.64 127.54 519.24"/><polygon class="cls-1" points="127.95 518.64 129.08 517 127.72 516.83 127.72 512.67 125.24 516.26 127.29 516.99 127.95 518.64"/><polygon class="cls-1" points="124.14 519.67 124.14 519.99 124.66 520.05 124.57 519.83 124.14 519.67"/><path class="cls-1" d="M236,373.57h0l-7.21,1.18,2.92,6.88A9.7,9.7,0,0,0,236,373.57Z"/><path class="cls-1" d="M227.83,364a10.31,10.31,0,0,0-1.58-.14,9.68,9.68,0,0,0-7.33,3.35l6.35,3.57Z"/><path class="cls-1" d="M222.15,382.38a9.69,9.69,0,0,0,4.1.91,10.1,10.1,0,0,0,2.14-.24l-2.55-6Z"/><path class="cls-1" d="M231.15,365.19l-2.23,5.91,6.38-1.05A9.74,9.74,0,0,0,231.15,365.19Z"/><path class="cls-1" d="M217.11,370.29a9.67,9.67,0,0,0,2.13,10l4.38-6.35Z"/><polygon class="cls-1" points="226.51 375.12 225.93 371.59 226.54 371.49 225.27 370.77 224.62 372.52 223.62 373.95 224.81 374.62 225.84 377.05 227.25 375 226.51 375.12"/><polygon class="cls-1" points="227.69 374.37 227.25 375 228.76 374.75 228.11 373.24 227.69 374.37"/><polygon class="cls-1" points="228.11 373.24 228.92 371.1 226.54 371.49 227.63 372.1 228.11 373.24"/><path class="cls-1" d="M293.2,535.36l-2.48-5.84a11.3,11.3,0,0,0-6.14,7.34l7.44,1Z"/><path class="cls-1" d="M300.62,541.18l3.47,5.89a11.22,11.22,0,0,0,2.64-6.19Z"/><path class="cls-1" d="M295.49,528.45a11.22,11.22,0,0,0-1.31.09l1.19,2.81,1.55-2.8A11.19,11.19,0,0,0,295.49,528.45Z"/><path class="cls-1" d="M306.52,537.33a11.31,11.31,0,0,0-6.09-7.73l-3.22,5.81,1.37,2.31Z"/><path class="cls-1" d="M284.22,540.4a11.24,11.24,0,0,0,3.1,7.15l3.07-6.36Z"/><path class="cls-1" d="M294.21,541.49l-4,8.26a11.19,11.19,0,0,0,11.1-.34l-4.74-8Z"/><polygon class="cls-1" points="295.98 537.85 295.32 539.21 296.59 541.38 300.62 541.18 298.58 537.72 295.98 537.85"/><polygon class="cls-1" points="294.55 537.92 295.98 537.85 296.73 536.29 297.21 535.41 296.81 534.72 295.37 531.35 293.55 534.64 293.2 535.36 293.62 536.33 294.55 537.92"/><polygon class="cls-1" points="294.55 537.92 293.3 537.98 292.02 537.82 290.39 541.19 293.16 541.54 294.21 541.49 295.32 539.21 294.55 537.92"/><path class="cls-1" d="M404.91,334.87a11.24,11.24,0,0,0-9.2.65l4.93,6.11Z"/><path class="cls-1" d="M405.38,355.92l-4.51-7.62-4.21,7.59a11.25,11.25,0,0,0,4.39.89A11.37,11.37,0,0,0,405.38,355.92Z"/><path class="cls-1" d="M393.63,354l3.84-6.94-7.36,1.21A11.29,11.29,0,0,0,393.63,354Z"/><path class="cls-1" d="M392.88,337.69a11.17,11.17,0,0,0-3.09,7l7.72-1.27Z"/><path class="cls-1" d="M408,336.61l-4,6.25,7.9-.16A11.26,11.26,0,0,0,408,336.61Z"/><path class="cls-1" d="M412.31,346.26l-8.41.17,4.51,7.61A11.25,11.25,0,0,0,412.31,346.26Z"/><polygon class="cls-1" points="400.85 346.49 399.89 346.65 400.87 348.3 401.88 346.47 400.85 346.49"/><polygon class="cls-1" points="401.67 342.91 400.64 341.63 399.74 343.06 400.53 342.94 401.67 342.91"/><polygon class="cls-1" points="402.9 344.75 402.33 345.66 401.88 346.47 403.9 346.43 402.9 344.75"/><polygon class="cls-1" points="399.74 343.06 397.51 343.43 398.68 344.87 399.25 343.84 399.74 343.06"/><polygon class="cls-1" points="402.9 344.75 404.1 342.86 401.67 342.91 402.21 343.58 402.9 344.75"/><polygon class="cls-1" points="399.28 345.62 398.68 344.87 397.47 347.05 399.89 346.65 399.28 345.62"/><path class="cls-1" d="M404.91,736.39c.36,0,.71.05,1.07.05a11.19,11.19,0,0,0,6.56-2.11l-4.83-5.61Z"/><path class="cls-1" d="M417.09,723.13a11.25,11.25,0,0,0-3.53-6.36l-3.46,6.59Z"/><path class="cls-1" d="M401.45,735.49l3.11-8.54-9.77-.3A11.34,11.34,0,0,0,401.45,735.49Z"/><path class="cls-1" d="M415.08,731.83a11.26,11.26,0,0,0,2.08-5.12l-6.31.2Z"/><path class="cls-1" d="M402.72,714.32l4.28,7.26,3.56-6.77a11.3,11.3,0,0,0-7.84-.49Z"/><path class="cls-1" d="M394.88,723.07l9,.28-4.4-7.47A11.27,11.27,0,0,0,394.88,723.07Z"/><polygon class="cls-1" points="405.13 725.39 405.4 724.63 406.04 723.42 403.92 723.35 405.13 725.39"/><polygon class="cls-1" points="408.67 726.08 408.34 727 410.85 726.91 409.22 725.03 408.67 726.08"/><polygon class="cls-1" points="406.04 723.42 407.14 723.45 408.09 723.42 407 721.58 406.04 723.42"/><polygon class="cls-1" points="406.24 727.01 407.71 728.72 408.34 727 407.14 727.04 406.24 727.01"/><polygon class="cls-1" points="405.13 725.39 404.56 726.96 406.24 727.01 405.73 726.41 405.13 725.39"/><polygon class="cls-1" points="408.63 724.34 409.22 725.03 410.1 723.36 408.09 723.42 408.63 724.34"/><path class="cls-1" d="M531.17,517.2a15.19,15.19,0,0,0-9.92.84l4.82,7.54Z"/><path class="cls-1" d="M513.21,528l9.61-.44L518,520A13.12,13.12,0,0,0,513.21,528Z"/><path class="cls-1" d="M536.08,540.83a13.16,13.16,0,0,0,5.77-10l-12.31.09Z"/><path class="cls-1" d="M534.76,518.59l-5.33,8.75,12.11-.09A13.51,13.51,0,0,0,534.76,518.59Z"/><path class="cls-1" d="M517.77,540l5.06-8.94-9.75.45A13,13,0,0,0,517.77,540Z"/><path class="cls-1" d="M521,542.07a15.26,15.26,0,0,0,6.47,1.43,15.43,15.43,0,0,0,5.26-.93l-6.46-9.79Z"/><polygon class="cls-1" points="527.79 530.03 527.28 530.94 529.54 530.92 528.35 529.12 527.79 530.03"/><polygon class="cls-1" points="523.9 529.21 524.4 528.32 524.95 527.41 522.82 527.51 523.9 529.21"/><polygon class="cls-1" points="524.95 527.41 526.02 527.37 527.21 527.36 526.07 525.58 524.95 527.41"/><polygon class="cls-1" points="525.06 530.99 526.24 532.78 527.28 530.94 526.13 530.95 525.06 530.99"/><polygon class="cls-1" points="527.77 528.24 528.35 529.12 529.43 527.34 527.21 527.36 527.77 528.24"/><polygon class="cls-1" points="523.9 529.21 522.83 531.09 525.06 530.99 524.46 530.09 523.9 529.21"/><path class="cls-1" d="M294.06,198.35a9.7,9.7,0,0,0-11,2.19l5.36,4.33Z"/><path class="cls-1" d="M294.58,215.86l-3.38-4.19-1.72-1.39-2.33,6.2a9.65,9.65,0,0,0,7.43-.62Z"/><path class="cls-1" d="M297.4,213.65a9.65,9.65,0,0,0,2.43-6.25l-6.94,1.08,1,.79Z"/><path class="cls-1" d="M297,200.39l-3.8,4.42,6-.94A9.75,9.75,0,0,0,297,200.39Z"/><path class="cls-1" d="M284,214.76,285,212l-2.32,1.56A9.92,9.92,0,0,0,284,214.76Z"/><path class="cls-1" d="M281.13,203.53a9.69,9.69,0,0,0-.73,3.7,9.52,9.52,0,0,0,.59,3.31l4.81-3.23Z"/><polygon class="cls-1" points="289.14 205.45 288.43 204.88 287.32 206.16 287.12 206.4 287.11 206.43 288.4 205.56 289.14 205.45"/><polygon class="cls-1" points="289.35 209.04 288.58 209.55 289.48 210.28 289.99 208.94 289.35 209.04"/><polygon class="cls-1" points="285.81 207.31 286.55 207.91 287.11 206.43 285.81 207.31"/><polygon class="cls-1" points="291.22 207.13 290.25 208.26 289.99 208.94 292.89 208.48 291.22 207.13"/><polygon class="cls-1" points="293.22 204.81 289.14 205.45 291.22 207.13 293.22 204.81"/><polygon class="cls-1" points="286.55 207.91 285.03 211.94 288.58 209.55 286.55 207.91"/><path class="cls-1" d="M517.44,167.26l-4.34,4.2,6,.74A9.58,9.58,0,0,0,517.44,167.26Z"/><path class="cls-1" d="M518.71,175.75l-6-.72,3.21,5A9.69,9.69,0,0,0,518.71,175.75Z"/><path class="cls-1" d="M505.46,171.55l-4.07-4.18a9.64,9.64,0,0,0-1.64,5.08Z"/><path class="cls-1" d="M502.7,179.77l2.91-4.61-5.32.83A9.69,9.69,0,0,0,502.7,179.77Z"/><path class="cls-1" d="M514.9,164.73a9.73,9.73,0,0,0-11,.11l5.3,5.44Z"/><path class="cls-1" d="M512.87,181.88l-3.7-5.75-3.53,5.6a9.65,9.65,0,0,0,7.23.15Z"/><polygon class="cls-1" points="507.91 171.5 508.32 171.11 505.46 171.56 506.93 173.06 507.91 171.5"/><polygon class="cls-1" points="511.46 173.06 510.56 173.93 510.07 174.7 512.72 175.03 511.46 173.06"/><polygon class="cls-1" points="509.38 171.01 509.94 171.08 509.17 170.28 508.32 171.11 509.13 170.98 509.38 171.01"/><polygon class="cls-1" points="510.07 174.7 509.19 174.6 508.28 174.74 509.17 176.13 510.07 174.7"/><polygon class="cls-1" points="507.75 173.91 506.93 173.06 505.61 175.16 508.28 174.74 507.75 173.91"/><polygon class="cls-1" points="511.46 173.06 513.1 171.46 509.94 171.08 510.67 171.82 511.46 173.06"/><path class="cls-1" d="M532.28,859a9.61,9.61,0,0,0-2.63-6.06l-3.83,5.26Z"/><path class="cls-1" d="M525.26,868.89a9.75,9.75,0,0,0,6.59-6.38l-7.27-.9Z"/><path class="cls-1" d="M521.69,869.23l-.7-7.56L513.52,863A9.75,9.75,0,0,0,521.69,869.23Z"/><path class="cls-1" d="M515,853.48a9.67,9.67,0,0,0-2.14,6l6.33-1.16Z"/><path class="cls-1" d="M517.72,851.15l4.75,5.52,4.29-5.89a9.64,9.64,0,0,0-9,.37Z"/><polygon class="cls-1" points="521.14 858.5 521.57 857.92 519.2 858.35 520.86 860.29 520.99 861.67 522.64 861.37 524.58 861.61 524.44 860.06 524.04 860.61 521.14 858.5"/><polygon class="cls-1" points="522.54 857.74 522.81 857.78 523.5 857.86 522.47 856.67 521.57 857.92 522.54 857.74"/><polygon class="cls-1" points="524.37 859.39 524.44 860.06 525.83 858.15 523.5 857.86 524.32 858.82 524.37 859.39"/><path class="cls-1" d="M540.6,1063.83a8,8,0,0,0-4.35,3.64l4.87,1.41Z"/><path class="cls-1" d="M535.69,1068.72a7.91,7.91,0,0,0-.46,2.18"/><path class="cls-1" d="M537.45,999.11a8,8,0,0,0,4.38-5l-4.93-.32Z"/><path class="cls-1" d="M540.31,990.43l1.74.12a9.05,9.05,0,0,0-.24-1.1Z"/><path class="cls-1" d="M528.44,986.39l4.37,2.32-.43-4.6A7.89,7.89,0,0,0,528.44,986.39Z"/><path class="cls-1" d="M536,984.11l.42,4.61,3.79-2.49-.14-.22A10.25,10.25,0,0,0,536,984.11Z"/><path class="cls-1" d="M526.64,989.49a7.52,7.52,0,0,0-.33,1.58l2.7-.32Z"/><path class="cls-1" d="M526.73,994.6a10.79,10.79,0,0,0,1.65,3.08,9.63,9.63,0,0,0,5.54,2.08l-.62-6Z"/><polygon class="cls-1" points="535.38 993.67 534.78 993.63 534.51 993.66 534.99 993.92 535.38 993.67"/><polygon class="cls-1" points="532.81 988.71 532.95 990.27 534.68 990.07 536.54 990.19 536.4 988.72 534.8 989.77 532.81 988.71"/><polygon class="cls-1" points="536.9 993.77 536.79 992.74 535.38 993.67 536.9 993.77"/><polygon class="cls-1" points="534.51 993.66 533.22 992.98 533.3 993.81 534.51 993.66"/><polygon class="cls-1" points="536.68 991.68 536.79 992.74 540.31 990.43 536.54 990.19 536.68 991.68"/><polygon class="cls-1" points="533.22 992.98 533.12 992.03 532.95 990.27 529.01 990.75 533.22 992.98"/><path class="cls-1" d="M366,1046.9l1.44.77-.87-1.25C366.38,1046.57,366.2,1046.73,366,1046.9Z"/><path class="cls-1" d="M369.93,1045l4.28,6.11,5,.55a10.09,10.09,0,0,0-2.05-4.69A9.14,9.14,0,0,0,369.93,1045Z"/><path class="cls-1" d="M372.37,1054.34l-8.39-4.47a8.83,8.83,0,0,0,1.56,8.72c5.68,4.32,11.81,1.48,13.39-3.41l-6.26-.68Z"/><polygon class="cls-1" points="367.45 1047.67 371.74 1053.78 374.68 1051.73 374.21 1051.06 373.75 1051.01 367.45 1047.67"/><path class="cls-1" d="M348.16,1007.09v5.35l5.57-.67a6.19,6.19,0,0,0-5.57-4.68Z"/><path class="cls-1" d="M352.41,1020a7.77,7.77,0,0,0,1.07-1.59l-2.73-.78Z"/><path class="cls-1" d="M344.58,1007.08a7.89,7.89,0,0,0-2.82,1.25l2.82,2.33Z"/><polygon class="cls-1" points="345.04 1015.68 345.22 1015.93 345.45 1016.02 345.23 1015.84 345.04 1015.68"/><polygon class="cls-1" points="350.75 1017.59 349.56 1015.88 346.22 1016.28 350.75 1017.59"/><polygon class="cls-1" points="345.45 1016.02 345.82 1016.32 346.22 1016.28 345.88 1016.18 345.45 1016.02"/><polygon class="cls-1" points="346.92 1012.59 344.58 1010.66 344.58 1011.87 347.01 1012.78 348.16 1013.12 348.16 1012.44 346.92 1012.59"/><path class="cls-1" d="M348.16,1013.12v.77l1.4,2,4.76-.58c0-.13,0-.27,0-.41Z"/><path class="cls-1" d="M344.58,1015v-3.15l-4.62-1.75a10.57,10.57,0,0,0-.56.91l5.64,4.65Z"/><path class="cls-1" d="M197.37,949.89a9.42,9.42,0,0,0-6.05-2.1l1.13,6.63,6.91,2.61A9.14,9.14,0,0,0,197.37,949.89Z"/><path class="cls-1" d="M189.26,957l-.09-.56L185,951.19c-1.88,2.71-2.12,6.64.71,10.37,4.34,3.3,9,2.41,11.6-.37l-7.19-3.83Z"/><path class="cls-1" d="M187.68,948.8l.23.3-.07-.4Z"/><path class="cls-1" d="M192,954.32l-4.12-5.22,1.26,7.38.28.36.23.29.44.23,7.9,3a8.18,8.18,0,0,0,1.1-2.26Z"/><path class="cls-1" d="M171.69,869.24l0,0,.05,0Z"/><path class="cls-1" d="M175,876.36l.14-.72-5.43-3.4a8.83,8.83,0,0,0,1.58,8.66,9.72,9.72,0,0,0,5.41,2.08l-1.11-6.56Z"/><path class="cls-1" d="M182.78,877.15l1.53,1.26a7.56,7.56,0,0,0,.39-1.07Z"/><path class="cls-1" d="M176.72,867.12a8,8,0,0,0-1.92.34l1.41,2.36Z"/><path class="cls-1" d="M180.24,867.75l-1,5.44,5.72.57a10.11,10.11,0,0,0-2-4.53A10.51,10.51,0,0,0,180.24,867.75Z"/><path class="cls-1" d="M180.2,882.38a7.93,7.93,0,0,0,1.89-1.16l-2.42-2Z"/><polygon class="cls-1" points="175.56 875.7 175.21 875.11 175.11 875.64 175.46 875.87 175.56 876.42 176.37 876.5 175.72 875.96 175.56 875.7"/><polygon class="cls-1" points="178.41 873.49 178.47 873.59 178.75 873.82 178.72 873.68 178.41 873.49"/><polygon class="cls-1" points="171.72 869.29 175.21 875.11 175.82 871.86 171.72 869.29"/><polygon class="cls-1" points="176.37 876.5 179.67 879.22 179.25 876.79 176.37 876.5"/><polygon class="cls-1" points="179.25 876.79 182.78 877.15 178.75 873.82 179.25 876.79"/><polygon class="cls-1" points="175.82 871.86 178.41 873.49 176.21 869.82 175.82 871.86"/><path class="cls-1" d="M84.32,805.68a9.67,9.67,0,0,0-5.46-2.08l.83,7.95,5.83,3.65C86.91,812.55,86.88,809,84.32,805.68Z"/><path class="cls-1" d="M76.31,813.65l-.06-.59-3.16-7.37c-2.83,2.63-3.76,7.28-.43,11.66a8.88,8.88,0,0,0,8.24,1.72l-4-5Z"/><path class="cls-1" d="M79.56,811.67l-3.33-7.76a8.67,8.67,0,0,0-.9.31l.89,8.56,0,.28.11.24.58.75,6.22,3.9a8.83,8.83,0,0,0,.81-.68Z"/><path class="cls-1" d="M15.53,659.24l-1.78-1.1.82,1.91A7.48,7.48,0,0,0,15.53,659.24Z"/><path class="cls-1" d="M8,654.59l.08-1v-7.69c-5.28,1.22-8.55,7.66-4,13.58a9.16,9.16,0,0,0,7.23,2l-2.83-6.59Z"/><path class="cls-1" d="M15.71,647.81A10.35,10.35,0,0,0,12.25,646l-.51,6.65,5.65,3.49A8.86,8.86,0,0,0,15.71,647.81Z"/><path class="cls-1" d="M11.67,645.91a8.43,8.43,0,0,0-3-.11l-.59,7.78V654l.36.85,5.3,3.28-2.08-4.87Z"/><path class="cls-1" d="M72.19,681.81a10.84,10.84,0,0,0-2.71-1.51l-.39,1.08L70.33,687l4,.88A9.45,9.45,0,0,0,72.19,681.81Z"/><path class="cls-1" d="M73.38,691.34l-4.78-1.06,2.32,3.88A7.87,7.87,0,0,0,73.38,691.34Z"/><path class="cls-1" d="M65.07,679.82a7.9,7.9,0,0,0-4.85,2.81L64,685l1.38-3.81Z"/><path class="cls-1" d="M62.55,689l.2-.55-4.13-2.56a9.07,9.07,0,0,0,1.91,7.63,10.37,10.37,0,0,0,3.39,1.75l-.64-6.11Z"/><polygon class="cls-1" points="66.46 686.72 66.67 687.06 66.66 686.99 66.56 686.54 63.99 684.96 62.75 688.4 63.24 688.7 63.28 689.11 63.79 689.22 63.39 688.56 66.46 686.72"/><path class="cls-1" d="M66.56,686.54l.06,0,0,.41,0,.09,1,1.68,2.9-.65L70.33,687l-3-.67,1.79-5-.3-1.33a8.68,8.68,0,0,0-2.9-.36l-.52,1.46Z"/><polygon class="cls-1" points="66.97 689.92 63.79 689.22 67.54 695.48 67.55 695.48 66.97 689.92"/><polygon class="cls-1" points="67.69 688.76 67.08 688.89 66.68 687.08 66.67 687.06 66.97 689.92 68.6 690.28 67.69 688.76"/><path class="cls-1" d="M9.87,444.23c-6.25,0-10.82,7.2-5.82,13.76a10,10,0,0,0,4.12,1.92V449.39Z"/><path class="cls-1" d="M11.67,453.54l-.17-.36-3.24,1.53,2.52,5.34c.3,0,.6-.08.89-.14Z"/><path class="cls-1" d="M22.9,473.38a8.18,8.18,0,0,0-1.79.2l1.21,2.56Z"/><path class="cls-1" d="M30.79,482.59a9.13,9.13,0,0,0-1.91-7l-3.22,5.15Z"/><path class="cls-1" d="M29.45,485.91l-4-1.44.9,4.06A7.91,7.91,0,0,0,29.45,485.91Z"/><path class="cls-1" d="M17.92,475.19c-3.11,2.57-4.25,7.41-.79,11.95a10.51,10.51,0,0,0,3.49,1.78l.52-6.88Z"/><polygon class="cls-1" points="22.32 476.14 21.3 480.98 23.18 477.97 22.32 476.14"/><polygon class="cls-1" points="21.14 482.04 21.26 482.29 21.16 481.82 21.14 482.04"/><polygon class="cls-1" points="24.87 482.02 25.66 480.76 25.04 480.54 24.71 482.07 24.55 484.17 25.41 484.47 24.87 482.02"/><polygon class="cls-1" points="21.3 480.98 21.06 481.37 21.16 481.82 21.18 481.56 21.3 480.98"/><path class="cls-1" d="M24.26,480.26l.78.28,1.35-6.43-.63-.27L23.18,478Z"/><path class="cls-1" d="M24.18,489.15l.37-5-2.89-1-.4-.85,1.54,6.95A10.43,10.43,0,0,0,24.18,489.15Z"/><path class="cls-1" d="M71.72,288.51l-5.54-3-1.08,5.14A8,8,0,0,0,71.72,288.51Z"/><path class="cls-1" d="M63.67,280l.8.43,4.21-5.29c-7.39-2.18-13.88,6-8.26,13.42.2.15.39.24.58.37l2.2-6.67Z"/><path class="cls-1" d="M73.69,285.5a8.61,8.61,0,0,0-1.11-7.82l-4.69,4.64Z"/><path class="cls-1" d="M66.49,283.71l-.3.3-2.52-2.54,1-.94-.15-.09-.94,1.19-.2.25-.13.39-1.5,7.12a9.76,9.76,0,0,0,2.58,1Z"/><path class="cls-1" d="M71.93,276.81a10.61,10.61,0,0,0-2.27-1.28l-5,5,3,1.66Z"/><polygon class="cls-1" points="67.65 282.19 66.53 283.6 66.49 283.71 67.89 282.32 67.65 282.19"/><path class="cls-1" d="M131.84,310.78a1,1,0,0,1-.08-.11c-.24-.18-.49-.31-.73-.47l-.77,1.64Z"/><path class="cls-1" d="M133.49,314l-4.15,2.79,4.09,2.31A8.13,8.13,0,0,0,133.49,314Z"/><path class="cls-1" d="M124.14,323.13l-.6,1c.2.06.4.09.6.13Z"/><path class="cls-1" d="M131.56,322.13,127.72,320v4.28A7.92,7.92,0,0,0,131.56,322.13Z"/><path class="cls-1" d="M118.2,314.61a9.08,9.08,0,0,0,1.9,7.73l.24.15,3.08-4.94Z"/><path class="cls-1" d="M127.75,308.78a7.94,7.94,0,0,0-7.91,2.65l5.3,3Z"/><polygon class="cls-1" points="129.34 316.77 128.25 316.16 127.56 317.67 126.53 319.3 127.72 319.97 127.72 317.86 129.34 316.77"/><polygon class="cls-1" points="124.54 315.69 124.14 315.96 124.14 316.4 124.41 315.96 124.54 315.69"/><polygon class="cls-1" points="125.14 314.41 124.54 315.69 125.85 314.81 125.14 314.41"/><polygon class="cls-1" points="123.42 317.55 124.14 317.95 124.14 316.4 123.42 317.55"/><polygon class="cls-1" points="124.14 317.95 124.14 323.13 126.53 319.3 124.14 317.95"/><polygon class="cls-1" points="130.26 311.84 125.85 314.81 128.25 316.16 130.26 311.84"/><path class="cls-1" d="M184.63,139l-1.34.84h1.53A8.45,8.45,0,0,0,184.63,139Z"/><path class="cls-1" d="M184.84,143.46H178l-4.3,5.41A8,8,0,0,0,184.84,143.46Z"/><polygon class="cls-1" points="183.29 139.88 177.09 139.88 177.09 143.46 177.96 143.46 178.3 143.03 183.29 139.88"/><path class="cls-1" d="M213.14,135c-5.54-3.2-11.19-.05-12.32,4.85h6Z"/><path class="cls-1" d="M215.35,145.79a8,8,0,0,0,1-5.47l-5.38,2Z"/><path class="cls-1" d="M200.84,143.46a9.26,9.26,0,0,0,.54,1.67l1.68-1.67Z"/><path class="cls-1" d="M212.84,148.36l-4.77-3.85-2.18,4.68A8,8,0,0,0,212.84,148.36Z"/><polygon class="cls-1" points="206.83 139.88 206.59 140.07 207.1 139.88 206.83 139.88"/><polygon class="cls-1" points="203.06 143.46 204.6 143.46 205.92 140.63 203.06 143.46"/><polygon class="cls-1" points="208.72 143.1 211.01 142.28 210.31 141.71 208.5 143.09 207.52 144.06 208.07 144.51 208.72 143.1"/><polygon class="cls-1" points="206.59 140.07 206.1 140.24 205.92 140.63 206.15 140.4 206.59 140.07"/><path class="cls-1" d="M208.05,139.88l.49.4,1.77,1.43,5.22-4c-.12-.25-.26-.48-.41-.73l-8,2.91Z"/><path class="cls-1" d="M203.53,148l4-4-.74-.6h-2.17l-1.88,4h0A9.05,9.05,0,0,0,203.53,148Z"/><path class="cls-1" d="M352.59,40.48l-6-3.33-5.15,4C345.61,44.06,350,43.18,352.59,40.48Z"/><path class="cls-1" d="M354.76,35.49l-3,.47,2.59,1.42A7.37,7.37,0,0,0,354.76,35.49Z"/><path class="cls-1" d="M347,36.72,351.8,36l-5.1-2.81-1,.15-.39.25-5.88,4.51a11.08,11.08,0,0,0,1.38,2.56Z"/><path class="cls-1" d="M402.15,72.94l-.07,0,0,0Z"/><path class="cls-1" d="M415.44,74A7.9,7.9,0,0,0,417,70.45l-4.86.14Z"/><path class="cls-1" d="M416.75,66.88a6.81,6.81,0,0,0-.26-.76l-1.4.8Z"/><path class="cls-1" d="M414.56,63.1c-4.43-3.1-9.05-2-11.54,1.05L408,66.87Z"/><path class="cls-1" d="M412.67,76.31l-4.61-4.74-3.61,4.19A8.43,8.43,0,0,0,412.67,76.31Z"/><path class="cls-1" d="M401.4,67.35a8.47,8.47,0,0,0-.18,2.21l2.54-.92Z"/><polygon class="cls-1" points="402.15 72.94 408.32 70.7 412.11 70.59 410.88 69.33 415.09 66.92 407.93 67.13 403.76 68.64 405.18 69.43 402.15 72.94"/><path class="cls-1" d="M982.52,751.62c-26,50.59-26.46,51.55-44,77.62l-2,3c22-32.27,45.69-78.23,56.74-105.09l-10.69,24.52"/><path class="cls-1" d="M905.48,873.85c-37.55,42.69-38.27,43.51-61.69,64.49l-2.68,2.36c29.28-25.89,63.45-64.67,80.74-88l-16.37,21.16"/><path class="cls-1" d="M1029,608.89c-12,55.58-12.21,56.64-22.44,86.37l-1.18,3.37c12.94-36.88,23.88-87.39,27.6-116.2l-4,26.46"/><path class="cls-1" d="M848.37,114.91c10,10.81,10.15,11,14.9,17.54l.53.75a179.75,179.75,0,0,0-20.43-23.11l5,4.82"/><path class="cls-1" d="M743.32,37.58c9.89,4.53,10.08,4.62,15.18,7.7l.58.36a133.73,133.73,0,0,0-20.55-9.92l4.79,1.86"/><path class="cls-1" d="M931.41,219.36c11.48,16.36,11.7,16.67,16.93,26.31l.59,1.1a245.39,245.39,0,0,0-23.4-34.8l5.88,7.39"/><path class="cls-1" d="M1008.88,367.17c5.65,13.59,5.76,13.85,8,21.61l.25.88a180.69,180.69,0,0,0-11.29-28.73l3,6.24"/><path class="cls-1" d="M565.26,4c56.85-.16,57.94-.16,89.17,3.48l3.55.44c-38.8-4.77-90.48-4.67-119.42-2.16L565.26,4"/><path class="cls-1" d="M855.5,872.91a148.78,148.78,0,0,0,18.2-20.86c4-5.81,15.46-24.44-4.44-20.4-37.56,11.9-87.27,69-85.54,81.43,1.56,11.12,42.47-11.78,71.78-40.17"/><path class="cls-1" d="M954.08,751a100.72,100.72,0,0,0,8.73-15.6c1.8-4.25,6.82-17.79-4.39-13.41-20.78,11.15-44.62,53.83-42.51,62.09,1.89,7.39,23.65-11.47,38.17-33.08"/><path class="cls-1" d="M1012,634.58a76.81,76.81,0,0,0,3.53-10c.72-2.74,2.7-11.49-2-9-8.68,6.68-18.32,34-17.33,39.49.87,4.92,9.89-6.8,15.81-20.55"/><path class="cls-1" d="M706.15,989.53a131.82,131.82,0,0,0,19.06-15.28c4.38-4.43,17.27-18.84-.57-18.47-34.37,4.42-86.46,46.26-86.94,57.37-.44,9.93,38.58-3.54,68.45-23.62"/><path class="cls-1" d="M815.91,762.17c7-23.1,3.17-61.91-27.17-75.88-46.91-14.68-72.69,58.36-45.38,95.92,21.5,29.59,60.83,18.73,72.55-20"/><path class="cls-1" d="M1029.14,441.46,1023,405.19c-.71-3.22-.71-3.22-1.8-3.84-.06.38-.14.89-.21,1.27-1,13.68,7.39,143.66,12.07,147.9.15-.94.28-2.2.35-3.15l.55-13c.94-32.48.83-33.61-4.8-92.86"/><path class="cls-1" d="M774.08,988c18.75-12.07,39.46-27.67,40.61-33.38l-.37-.52c-1.34-.17-1.87,0-4.59.9-19.11,8.3-101.14,64.5-102.59,68.66,5.18-1.42,36.24-15.9,66.94-35.66"/><path class="cls-1" d="M763,552.62C761.76,526.69,742.26,491,702.92,493c-51,8.37-60.91,75.1-26.9,106.46,36.74,33.89,89.61,5.44,87-46.82"/><path class="cls-1" d="M864,453.09c-4.94-20.6-23.38-48.87-48.9-47.22-35.58,7.58-26.78,70,4.6,90.69,28,18.44,53.21-6.35,44.3-43.47"/><path class="cls-1" d="M924.42,637.29c3-21.54-3.21-54.82-26.42-61.36-34.24-4-48.82,59.31-28.42,89.38,18.17,26.79,49.43,10.81,54.84-28"/><path class="cls-1" d="M936.29,365.08c-9.22-21-26.86-41.48-39.29-38-19.39,11.23,8.19,75,30.53,84.16,16.88,6.92,21.46-17.25,8.76-46.19"/><path class="cls-1" d="M987.49,298.32c-12.42-24-30.37-46.15-37.27-41-9.14,15.14,32.77,92.37,47.32,96.36,10.77,2.94,5.7-25-10-55.38"/><path class="cls-1" d="M656.71,1043.9c15-5.51,31-12.89,31.22-15.72-.78-.5-1.42-.42-4.36.16-15.12,3.9-78.52,30.53-79.13,30.79,8.28-2,19.25-4.9,27.48-7.1,4.56-1.36,14.06-4.18,24.79-8.13"/><path class="cls-1" d="M680.21,403.48c-1-21.19-18.1-51.06-52.94-51.09-43.89,4.67-53.07,58.73-24.14,85.77,30.81,28.8,79.08,7.09,77.08-34.68"/><path class="cls-1" d="M564.49,270.83c-9-15.74-32.56-32.34-56.48-19.95-28.28,19.18-13.27,63.5,17.24,73.74,32.49,10.9,57.07-22.78,39.24-53.79"/><path class="cls-1" d="M653.11,197.19c-10-12.3-31.05-24.32-46.72-12.55-17.63,17.64,2.52,53,27.65,59.3,26.77,6.74,38.72-22.53,19.07-46.75"/><path class="cls-1" d="M795.27,304.48c-5.77-17.7-26.21-42.08-53.6-40.84-1,.17-2.45.34-3.48.57C708.34,271,709.6,321.44,748,341.44c30.67,16,57.59-5.11,47.23-37"/><path class="cls-1" d="M864.05,223.11c-7.86-13.63-26.37-32.86-41.11-30.85a12.24,12.24,0,0,0-3.2,1.47c-13.48,10.18,9.41,58.12,36,64.14,16.16,3.66,20.35-13.88,8.31-34.76"/><path class="cls-1" d="M899,167.27c-13.39-15.32-30.7-29.93-34.16-26.41-2.66,10.73,47,63.45,54.12,62.94,5.68-.41-4.2-18.5-20-36.53"/><path class="cls-1" d="M553.74,1074.08a25.62,25.62,0,0,0,8.43-3.06c1.19-.84,6.41-5.15-7.79-8.28-19.07-3.15-37.81,2.48-40.7,6.73-4.14,6.08,25.42,7.7,40.06,4.61"/><path class="cls-1" d="M558.37,991.47c5.08-8.48-.4-18-18.12-18.54-21.24.81-31,13.23-28.71,21.77,4.06,14.93,37.32,12.64,46.83-3.23"/><path class="cls-1" d="M555.78,867.58c2.8-12-5.5-29.75-32.73-31.7-29,.29-41.07,20.68-31.8,37.36C505,897.92,549.6,894,555.78,867.58"/><path class="cls-1" d="M442.74,726.72c1.86-14.3-6.43-35.53-30.7-38-29.74.12-41.31,32.49-26.12,52.72,17.5,23.3,53.08,14.07,56.82-14.75"/><path class="cls-1" d="M559.76,531.43c1.7-15.44-7.41-38.15-33-40.29-32.81.72-44.95,39.22-26.31,60.5,19.9,22.74,55.93,10.46,59.3-20.21"/><path class="cls-1" d="M136.85,318.16c.07-5.18-3.53-12.66-11.71-13.08-10.46.62-13.34,13.64-6.84,20.54,7,7.42,18.43,2.82,18.55-7.46"/><path class="cls-1" d="M722.56,147.89C715,138,697.72,124.33,684.8,126.54a11,11,0,0,0-2.75,1.25c-11.65,8.45,10.39,43.84,34.26,47.08,14.87,2,18-11.6,6.25-27"/><path class="cls-1" d="M772.07,104.7c-9-8.62-26-20.22-34.25-19.56a3.81,3.81,0,0,0-1.49.75c-5.13,5.55,27.49,39.65,43.11,39.57,7.63,0,4.18-9.73-7.37-20.76"/><path class="cls-1" d="M808.38,75.94c-17.47-12.22-37.13-22.14-39-19.67.93,6,61.21,48.77,67.89,48.18,4.6-.41-8.61-14.31-28.94-28.52"/><path class="cls-1" d="M390.81,1054.23c-.25-6.6-7.57-16.69-23.09-18.5a38.5,38.5,0,0,0-4,0c-13.43,1.16-16.65,12.93-6.15,22.49,12.93,11.76,33.75,9.26,33.26-4"/><path class="cls-1" d="M359.2,891.71c-.12-6.78-6.33-17.2-19.72-19.15-.54,0-1.26-.1-1.79-.1-13.76-.11-18,13.86-7.46,24.5,11.35,11.46,29.23,8.21,29-5.25"/><path class="cls-1" d="M227.29,727.3a23.9,23.9,0,0,0-20.43-24.7c-.61,0-1.42-.12-2-.12-16.65-.05-23,19.94-10.68,33.43,12.1,13.21,31.92,8.06,33.14-8.61"/><path class="cls-1" d="M313.84,546.91c1.36-8.51-2.85-21.46-16.42-23.58-17.87-.81-24.89,19.79-15.16,32.56s29,7.39,31.58-9"/><path class="cls-1" d="M424.55,351.6c2.06-10.89-2.69-27.26-19.72-29.55-22.24-.47-32.82,26.41-21.52,42,12.08,16.73,37.13,9.13,41.24-12.49"/><path class="cls-1" d="M138.84,517.58c1-7.72-2.8-19.11-14.32-20.28-15.09.25-21.44,19.44-13.3,30.15,8.64,11.38,25.68,5.29,27.62-9.87"/><path class="cls-1" d="M522.78,172.55c-1.24-7.65-8.16-18.38-19.71-18.28-.45.06-1.05.11-1.49.19-13.57,2.58-14.11,24.77-.81,33,11.65,7.18,24.19-1.31,22-14.88"/><path class="cls-1" d="M418.3,63.6c-3.65-3.59-11.54-6.58-17.63-2-.22.2-.52.47-.72.68C393.74,69,402.14,81,412.43,80.13c9-.74,12.35-10.17,5.87-16.53"/><path class="cls-1" d="M669.28,48.49C664.64,42.6,652.45,33.87,641,33.84a17,17,0,0,0-2.62.4c-11.49,3.33.94,23.7,20.76,27.56,12.28,2.39,17.28-4.2,10.1-13.31"/><path class="cls-1" d="M596.08,88.13c-6-7.59-21.66-18.86-36.37-18.93a20.42,20.42,0,0,0-3.37.52c-14.81,4.26,1.16,30.54,26.71,35.55,15.81,3.1,22.27-5.39,13-17.14"/><path class="cls-1" d="M700.86,20c-9.29-3.33-21.82-6.77-23.46-6.06.22.29,40.39,16.94,43,15.28-.88-1.55-9.65-5.69-19.53-9.22"/><path class="cls-1" d="M218.58,725.77c-1.38-1.42-6.64-4.61-14.08-5.44-1.09-.07-4-.25-4.85.8-2,2.46,9.9,6.92,16.83,7,2.77,0,3.55-.85,2.1-2.34"/><path class="cls-1" d="M193.84,882.94c-1.66-5.93-9.08-15.31-20.38-17.6a12.27,12.27,0,0,0-5.26.21c-9.21,2.78-3.72,17.49,9.17,24.59,10.62,5.86,19.09,2.16,16.47-7.2"/><path class="cls-1" d="M208.38,960.91c-1.66-5.93-9.08-15.31-20.37-17.6a12.31,12.31,0,0,0-5.27.21c-9.2,2.78-3.72,17.49,9.17,24.59,10.63,5.86,19.1,2.16,16.47-7.2"/><path class="cls-1" d="M201.26,795.18c-.33-4.08-3.78-10.49-10.42-12a11.17,11.17,0,0,0-1.73-.11c-7.26.38-7.25,10.79,0,16.62,6.12,4.92,12.69,2.47,12.13-4.51"/><path class="cls-1" d="M356.69,1011.65c-2.52-4.43-9.79-9.86-18.09-8.08a14.41,14.41,0,0,0-2,.78c-8,4.25-2.5,16,8.77,18.77,9.5,2.33,15.64-3.89,11.33-11.47"/><path class="cls-1" d="M300.21,210c2.28-5.18,2.13-13.43-5.34-15.56-10.09-1.58-18,10.83-14.71,19.1,3.47,8.6,15.65,6.44,20-3.54"/><path class="cls-1" d="M76.37,297.23c5.94-9.08,10.78-24.62,2.92-30.77-11.41-5.84-28.7,15.21-29.65,31.7-1,17.15,15.26,16.58,26.73-.93"/><path class="cls-1" d="M16.57,452.94c.23-4.55-2.25-10.71-8.48-10.17-8,1.72-10.46,13.33-5.57,18.59,5.07,5.47,13.61.36,14.05-8.42"/><path class="cls-1" d="M31.73,483.12c.57-4.81-1.63-11.51-8.27-11.38-8.64,1.25-12,13.39-7.22,19.31,5,6.16,14.41,1.34,15.49-7.93"/><path class="cls-1" d="M18.72,652.28c-.34-4.62-3.62-10.52-9.84-9.19C1,645.83,0,657.86,5.6,662.55c5.82,4.88,13.79-1.36,13.12-10.27"/><path class="cls-1" d="M74.69,690.71c1.56-4.61.8-11.66-5.76-12.92-8.76-.58-14.62,10.66-11.14,17.49,3.63,7.1,13.9,4.32,16.9-4.57"/><path class="cls-1" d="M86.49,806.37c-2.15-4.36-7.68-8.81-13.21-5.06-6.6,5.79-2.8,17.88,4.5,20.24,7.58,2.46,12.87-6.77,8.71-15.18"/><path class="cls-1" d="M352.06,43.43c3.81-2.49,7.34-8.12,3.24-12.84C349.19,25.09,338.37,30,337,37c-1.44,7.32,7.72,11.22,15.08,6.42"/><path class="cls-1" d="M185,146.16c2.68-3.68,4-10.2-1.53-13.16-7.67-3-16,5.43-14.85,12.51,1.26,7.35,11.2,7.75,16.38.65"/><path class="cls-1" d="M216.85,146.74c2.61-4.46,3.32-12-3.24-14.68-9-2.47-17.5,8-15.33,15.84,2.27,8.16,13.55,7.46,18.57-1.16"/><path class="cls-1" d="M517.93,15.77c4.22-1.69,8.79-6.51,5.71-11.95-4.91-6.6-16.48-4-19.23,2.67-2.86,6.9,5.35,12.53,13.52,9.28"/><path class="cls-1" d="M237.17,375.94c2.16-6.9,1-17.27-8.42-18.71-12.66-.31-21.24,16.7-16.26,26.61,5.25,10.42,20.47,5.55,24.68-7.9"/><path class="cls-1" d="M413.77,67.87c.27-1.85-.38-4.57-2.69-4.83-3.18.09-4.49,5.07-2.66,7.51s4.84.77,5.35-2.68"/><path class="cls-1" d="M211.05,963.65c-1.28-1.84-4.5-4.82-7.67-5.68a2.19,2.19,0,0,0-1.51.08c-2,1.35,4.77,8.09,8.65,8.59,1.68.22,1.9-1,.53-3"/><path class="cls-1" d="M695.22,654.52l-3.44-5.06c-3.78-5.57,2-16.11,13-23.54l63.57-43.17c10.95-7.43,22.89-8.94,26.67-3.38l3.44,5.07"/><path class="cls-1" d="M623.92,661.36c-1.38-27.91-22.37-66.28-64.72-64.19-54.86,9-65.56,80.83-29,114.59,39.55,36.48,96.45,5.86,93.67-50.4"/><path class="cls-1" d="M542.16,775.12l-3.44-5.31c-3.78-5.84,3.72-17.42,16.75-25.85l75.67-49c13-8.44,26.67-10.54,30.45-4.7l3.44,5.31"/><path class="cls-1" d="M915.07,441.46l-2.44-3.21c-2.68-3.54,0-10.1,6.06-14.66l35-26.48c6-4.56,13.07-5.39,15.75-1.86l2.43,3.21"/><path class="cls-1" d="M821,538.81l-3.07-4.23c-3.37-4.66.44-13.18,8.53-19.05l46.94-34.06c8.08-5.86,17.38-6.84,20.75-2.19l3.07,4.24"/><path class="cls-1" d="M626.36,270.25l-2.15-4.14c-2.36-4.55,1.57-11.28,8.79-15l41.89-21.77c7.22-3.75,15-3.1,17.35,1.45l2.15,4.14"/><path class="cls-1" d="M514,359.6l-2.32-4.44c-2.56-4.88,3.55-13.12,13.65-18.4l58.61-30.67c10.09-5.28,20.35-5.6,22.9-.72l2.32,4.44"/><path class="cls-1" d="M652.36,74.5l-1-2.29c-1.06-2.52,1.44-6,5.59-7.71l24-10.08c4.14-1.74,8.36-1.1,9.42,1.42l1,2.29"/><path class="cls-1" d="M757.1,376.83l-2.51-3.73c-2.76-4.12,1-11.46,8.34-16.41L805.72,328c7.37-5,15.58-5.62,18.34-1.51l2.51,3.74"/><path class="cls-1" d="M845.9,278.53l-1.77-2.89c-2-3.19.52-8.25,5.52-11.3l29-17.77c5-3.06,10.63-3,12.58.23l1.77,2.89"/><path class="cls-1" d="M705,197.28l-1.91-3.59c-2.11-3.95.47-9.42,5.74-12.23l30.62-16.3c5.27-2.81,11.25-1.88,13.35,2.07l1.91,3.59"/><path class="cls-1" d="M877.51,712.34,875,709.47c-2.79-3.16,1-11.05,8.46-17.63l43.29-38.19c7.46-6.58,15.77-9.35,18.55-6.19l2.53,2.87"/><path class="cls-1" d="M757.83,841.42l-3.43-4.33c-3.77-4.76,1.48-15.2,11.73-23.32l59.53-47.15c10.25-8.12,21.62-10.85,25.39-6.08l3.43,4.33"/><path class="cls-1" d="M676.74,886.69c8.26-24.5,3.75-65.68-32.13-80.5-55.47-15.58-86,61.92-53.67,101.77,25.44,31.39,71.94,19.86,85.8-21.27"/><path class="cls-1" d="M604.85,972l-4.24-5.14c-4.65-5.64,2.13-17.17,15.15-25.75l75.6-49.79c13-8.57,27.35-10.95,32-5.3l4.23,5.14"/><path class="cls-1" d="M575.07,121.73,574,119.05c-1.2-2.94,1.87-7,6.85-9l28.89-11.7c5-2,10-1.26,11.17,1.69l1.08,2.68"/><path class="cls-1" d="M769,140.36l-1.35-2.46c-1.48-2.7.21-6.47,3.77-8.42l20.65-11.31c3.56-2,7.64-1.34,9.12,1.36l1.35,2.46"/><path class="cls-1" d="M966.24,594.55l-2.11-2.31c-2.33-2.53-.28-8.2,4.58-12.66l28.21-25.87c4.86-4.46,10.68-6,13-3.48l2.11,2.3"/><path class="cls-1" d="M996.1,524.38c-.69-23-9.23-48.5-21.82-49.6-21.75,3.67-20,73.36-3.06,89.89,12.82,12.49,25.84-8.6,24.88-40.29"/><path class="cls-1" d="M613.61,491.77,610.78,487c-3.1-5.3,3.29-15.32,14.28-22.39l63.82-41c11-7.07,22.41-8.51,25.52-3.22l2.82,4.82"/><path class="cls-1" d="M1691.23,263.58c-1.67,2.93-2.61,4.78-3.73,6.52a451.48,451.48,0,0,0-44.69,89.29c-1.93,5.29-4.4,6.8-9.84,6.79q-132.45-.26-264.91-.12c-13.64,0-14.48.84-14.49,14.28q0,47.91,0,95.81c0,12,1.36,13.4,13.22,13.4h241.49c-11.7,38-8.64,75,2.53,112.44H1366.7c-11.87,0-13.12,1.28-13.12,13.42q0,48.27,0,96.53c0,12,1.38,13.43,13.14,13.43q133.18,0,266.37-.06c4.17,0,7,.3,8.81,5.1a430.07,430.07,0,0,0,48.65,93.7,33.56,33.56,0,0,1,1.65,3.27c-2.92.13-5.23.32-7.54.32-109.35,0-218.7.16-328.06-.17a178.64,178.64,0,0,1-40.23-4.3c-43.49-10.26-66.4-40.55-76.1-82.28a132.64,132.64,0,0,1-3.17-29.48q-.33-165.47-.11-331c0-20.29,3.76-39.82,12.78-58.22,18.24-37.24,49-55.29,89.43-58.36,6.26-.47,12.57-.36,18.86-.36q162.21,0,324.43,0Z"/><path class="cls-1" d="M1822.57,261.49c108.44,0,191.4,0,299.84,0h8.76c-1.68,2.94-2.62,4.8-3.74,6.55a451.65,451.65,0,0,0-44.81,89.52c-1.94,5.31-4.42,6.83-9.87,6.81-88.54-.16-119.36-.12-207.9-.11h0c-25.38,0-46.18,17.32-48.64,42.8a212.47,212.47,0,0,0,1,45.64c2.32,18.94,16.59,30.79,37.1,31.34,38.06,1,76.15.68,114.2,1.81,18.09.54,36.4,1.74,54.13,5.15,46.55,9,79.2,35.74,94.25,81.12,19.23,58,19.89,116.43-3.59,173.46-16.39,39.81-48,64.31-88,78.25-6.93,2.42-14.75,3.19-22.16,3.21-74,.23-148,.05-222,.27-8.88,0-14.26-5.84-20.28-10.22-31.2-22.74-53.29-52.58-67.1-88.59a23.72,23.72,0,0,1-.73-3.94h9.05c88.31,0,176.61-.13,264.91.16,12.15,0,20.66-4.53,27.71-14.07,11-15,17.63-31.18,16.66-50-.54-10.39-.76-20.89-2.49-31.12-3-17.43-13.63-28.93-30.83-32.9a163.68,163.68,0,0,0-33.77-4.3c-33-.58-66,.27-99-.42-31-.65-61.15-5.61-88.86-21.23-18.92-10.66-32.59-25.82-42.1-44.87-20-40-25.87-82.62-20.06-126.61,2.33-17.62,5.71-35.67,12.29-52,18-44.8,53.32-70.77,98.64-84.15,5.45-1.6,11.53-1.47,17.31-1.47"/><path class="cls-1" d="M2590.49,793c-35.85-63.85-71.09-128-107.37-191.64-8.06-14.12-4.27-20,9.05-26.78,39.15-19.92,61-53.1,70.67-95.34,5.8-25.27,4.06-50.76,3.11-76-3.44-91.41-59.45-142.7-150.31-141.74-73.46.78-146.95-.94-220.43-1.32-13.44-.07-18.5,1.54-17.42,8.06a33.68,33.68,0,0,0,3.18,8.53l33.25,89.38H2232a56.38,56.38,0,0,0,9.58.59c51.07-.95,102.23,1.14,153.25-.74,47.46-1.76,57.41,23.11,56.4,59.14-.08,3.1-.47,6.18-.62,9.28-1.74,35.82-10.55,44.06-47.24,44.08q-68.24,0-136.46,0c-55.43.08-92.82,36.46-93.5,91.57-.46,37.25-.08,74.52-.09,111.78q0,55,0,109.92c0,25.89.66,26.45,25.81,26.24q27.09-.22,54.2,0c23.26.19,27.33-3,27.61-26.29.73-60.79,2.88-121.61-1.16-182.37-.83-12.57,3.86-20.28,17.91-19.91,12.45.32,25,1.07,37.33-.05,16.07-1.45,25.15,5.56,32.36,19.3,34.3,65.34,69.36,130.28,103.89,195.5,5.23,9.88,12.21,14.61,23.65,14.41,26.78-.46,53.57-.08,80.36-.17C2601.67,818.38,2603.13,815.54,2590.49,793Z"/><path class="cls-1" d="M3131,804.53c-5.27-16.9-11-33.69-16.53-50.49-13-39.19-25.47-78.57-38.37-117.79q-16.2-49.26-31.81-98.75c-2.93-9.25-4.33-19.08-9-27.78a29.31,29.31,0,0,1-2-4.58c-8.08-24.55-16.24-49.06-24.18-73.65q-26.34-81.54-52.38-163.18c-1.69-5.31-4.35-7.61-10-7.6q-64.85.21-129.7,0c-5.79,0-8.32,2.21-9.93,7.46q-11.84,38.4-24.18,76.67c-13.92,43-28.13,85.9-42.08,128.89-12,37.15-23.86,74.38-35.86,111.54q-20.41,63.21-41,126.35-14.78,45.58-29.52,91.19a28.27,28.27,0,0,0-1.35,6.75c-.33,4.85,1.11,4.91,9.16,4.92q120.35,0,240.7,0l1,0h12.85l.44-110.88h-14.56c-1.56-.17-3.34-.27-5.37-.32-1.77,0-3.53,0-5.29,0h-75.83c-11.2,0-12.33-1.14-8.11-11.16,6.23-14.79,10.41-30.28,15.1-45.49,7.29-23.6,15.46-46.91,22.69-70.53C2837,539.87,2849,504,2860.62,467.92c5.63-17.46,11.42-34.88,17-52.34.81-2.5,1.05-6.56,4.86-6.23,3,.26,3.05,3.79,3.9,6.23,13.72,39.55,25.58,79.69,38.79,119.4,6.53,19.62,12.5,39.43,18.89,59.09q14,43.17,27.91,86.37c6.16,19.06,12.41,38.1,18.42,57.21,6,18.89,12.77,37.52,17.66,56.74a31.87,31.87,0,0,1,.69,4.23,26.21,26.21,0,0,0,2,6.68c5,12.69,5,12.43,18.7,12.74,31.14.72,62.17-2.93,93.32-1.88C3132.45,816.49,3134,813.92,3131,804.53Z"/></g></g></svg>