<svg xmlns="http://www.w3.org/2000/svg" viewBox="0 0 1828.67 1874.98"><defs><style>.cls-1{fill:#484848;}.cls-2{fill:#cb5827;}</style></defs><title>Asset 10</title><g id="Layer_2" data-name="Layer 2"><g id="Layer_1-2" data-name="Layer 1"><path class="cls-1" d="M688.75,203l394.3-150a148.68,148.68,0,0,1,60.66-9.68c44.76,2.28,86.8,24.94,114.8,62.28a50.3,50.3,0,0,0-10.66,2.77L723.56,307.79l40.13-74.29L688.75,203Z"/><path class="cls-1" d="M1271.54.21c57.79,3,110.9,39.55,131.53,96.76l173.1,480-27.1,69.46-65.49-37-173.09-480C1290,72.66,1242.94,32.37,1187.53,18h0c30.22-10.6,50.31-19.46,84-17.75"/><path class="cls-2" d="M19.87,655.44C8.24,621.68-1.7,598.94.24,560.79c3.32-65.14,44-125,107.51-148.33L640.61,217l77,30.49-41.1,73.84L143.7,516.79C80.79,539.87,36,592.86,19.87,655.44Z"/><path class="cls-1" d="M1160,1675.92l-380.5,135.8a152.23,152.23,0,0,1-169.61-47.89,50.8,50.8,0,0,0,10.29-2.51l505.63-180.45-38.38,67.33,72.57,27.72Z"/><path class="cls-1" d="M662.15,1857.14l-28.39,9.47a162.93,162.93,0,0,1-59.45,8.18c-60.52-2.94-116.31-39.37-138.2-96.28L252.5,1301l28-69.08,68.73,36.8,183.63,477.49.13.36c21.38,55.23,70,96,129.13,110.55Z"/><path class="cls-2" d="M1828.46,1337.66c-3.21,66.15-42.37,110.6-97.32,130.39l-499.24,179.8L1159.5,1620l38.32-67.72,499.24-179.79a183.84,183.84,0,0,0,115.72-127.22c12.24,34.33,17,65.19,15.68,92.39Z"/><path class="cls-2" d="M634.63,705.15c90.72-.37,160.11-.63,250.82-1l7.33,0c-1.39,2.46-2.17,4-3.11,5.48a378.9,378.9,0,0,0-37.19,75c-1.6,4.45-3.67,5.72-8.23,5.73-74.07.15-99.85.29-173.92.58h0c-21.22.08-38.57,14.64-40.54,36a177.27,177.27,0,0,0,1,38.17c2,15.85,14,25.71,31.14,26.11,31.84.74,63.7.31,95.54,1.14,15.13.39,30.45,1.34,45.29,4.13,39,7.34,66.37,29.64,79.11,67.56,16.28,48.47,17,97.33-2.44,145.11-13.58,33.35-40,53.95-73.37,65.74a57.56,57.56,0,0,1-18.54,2.76c-61.89.43-123.79.52-185.68.95-7.43.05-12-4.84-17-8.49-26.18-18.92-44.75-43.81-56.43-73.89a19.59,19.59,0,0,1-.62-3.29l7.57,0c73.87-.28,147.74-.68,221.61-.73,10.16,0,17.27-3.85,23.13-11.86,9.18-12.54,14.65-26.14,13.78-41.85-.49-8.69-.71-17.48-2.19-26-2.53-14.58-11.49-24.16-25.89-27.43a137.51,137.51,0,0,0-28.27-3.49c-27.59-.37-55.2.44-82.79,0-26-.44-51.17-4.49-74.41-17.47C564.5,955.17,553,942.53,545,926.63c-16.86-33.43-21.91-69-17.19-105.86,1.89-14.74,4.67-29.85,10.11-43.58,14.9-37.53,44.38-59.37,82.24-70.71,4.56-1.36,9.64-1.26,14.48-1.29"/><path class="cls-2" d="M498.14,704.3c-1.39,2.47-2.17,4-3.1,5.49a377.79,377.79,0,0,0-37.17,75c-1.6,4.44-3.67,5.72-8.23,5.73q-111,.21-222.06.76c-11.43,0-12.14.75-12.09,12q.15,40.15.31,80.31c0,10,1.19,11.22,11.13,11.19q97.35-.36,194.68-.75l7.74,0c-9.68,31.89-7,62.93,2.49,94.24l-7.52,0L227.21,989c-10,0-11,1.12-11,11.29q.15,40.45.32,80.92c0,10.08,1.2,11.25,11.06,11.21q111.64-.42,223.28-.91c3.5,0,5.88.22,7.4,4.24a360.4,360.4,0,0,0,41.09,78.39,27.76,27.76,0,0,1,1.39,2.73c-2.45.12-4.38.29-6.32.3-91.66.36-183.33.84-275,.92a150.31,150.31,0,0,1-33.74-3.47c-36.49-8.46-55.79-33.78-64.06-68.73a110.73,110.73,0,0,1-2.75-24.7q-.83-138.71-1.17-277.42c-.06-17,3-33.39,10.52-48.84,15.18-31.28,40.87-46.5,74.78-49.21,5.24-.42,10.54-.34,15.81-.36q136-.55,272-1.07Z"/><path class="cls-2" d="M1357.39,703.21l-147.89.53v-.19l-111.2.43v.16l-35.79.12a9.2,9.2,0,0,0-1.5-.13l-108,.42a8.22,8.22,0,0,0-8.2,8.26l.28,71.78a8.22,8.22,0,0,0,8.26,8.19l44-.17,64-.25,31.2-.12a6.06,6.06,0,0,1,6.09,6c.5,133.49,1.36,361.65,1.42,362.83.09,1.67.35,7.61,2.92,11.1s7.36,3.91,10.47,4.26c2.88.32,13.26-.34,14.75-.44h.37l68.36-.27a33.1,33.1,0,0,0,6.18-.74c8.74-.86,8.15-11.94,8.15-11.94l-1.41-365.21a6.07,6.07,0,0,1,6.05-6.09l95.59-.38h.53l45.7-.17a6.09,6.09,0,0,0,6-6.1l-.3-75.86A6.07,6.07,0,0,0,1357.39,703.21Z"/><path class="cls-2" d="M1783.93,1171.7a18.56,18.56,0,0,0-.91-4.43c-4.68-14.5-9.73-28.9-14.68-43.3-11.54-33.6-22.6-67.37-34-101q-14.37-42.24-28.23-84.67c-2.79-8.51-5.09-13.09-8.92-25.43-7.42-21.82-14.94-43.62-22.25-65.48-15.58-46.61-30.87-89.86-46.25-136.54-2.56-4.27-7.73-9.69-15-9.71-36.48-.1-63.28,2-101.38.41-7.24-.3-15.4,7.13-17,12.42-6.83,22-11.89,37.87-19,59.78-12.08,37-24.4,73.86-36.49,110.81-10.45,31.94-20.69,63.94-31.09,95.9q-17.7,54.33-35.51,108.62c-8.81,26.94-14.37,44-23.17,71-.9,7.47,3,17.42,11.57,17.39,70.38-.24,133.67-.5,204-.78l6.67,0h3.1l-.37-95.5-18.89.08h-4.17l-25,.1h0l-37.85.15c-9.83,0-10.83-.94-7.16-9.56,5.42-12.72,9-26,13.1-39.1,6.31-20.3,13.4-40.34,19.67-60.64,9.6-31.11,20-62,30-93,4.88-15,9.89-30,14.77-45,.7-2.15.9-5.64,4.24-5.37,2.64.22,2.69,3.25,3.44,5.34,12.17,33.91,22.71,68.33,34.43,102.38,5.79,16.82,11.1,33.81,16.77,50.67q12.44,37,24.77,74.07c5.47,16.33,11,32.66,16.35,49,5.51,16.89,14.47,41.21,18.85,58.44a12.89,12.89,0,0,0,1.16,3.68c.06.32.13.64.22,1l27.35,92a7.68,7.68,0,0,0,11.61,4.22c47.85-31.87,62.67-84.77,65.16-95.06A7.55,7.55,0,0,0,1783.93,1171.7Z"/></g></g></svg>